<?xml version="1.0" encoding="UTF-8"?>
<svg width="90px" height="24px" viewBox="0 0 90 24" version="1.1" xmlns="http://www.w3.org/2000/svg" xmlns:xlink="http://www.w3.org/1999/xlink">
    <!-- Generator: Sketch 40.1 (33804) - http://www.bohemiancoding.com/sketch -->
    <title>Combined Shape</title>
    <desc>Created with Sketch.</desc>
    <defs></defs>
    <g id="Page-1" stroke="none" stroke-width="1" fill="none" fill-rule="evenodd">
        <g id="forword" transform="translate(-188.000000, -29.000000)" fill="#FFFFFF">
            <g id="header">
                <path d="M193.424751,49.2666667 L193.424487,49.8 C193.28573,51.5899861 191.761747,53 189.902174,53 C189.201825,53 188.549076,52.8000019 188,52.4550304 L188,48.2058181 L188,29 L192.934783,29 L196.152174,29 L196.152174,34.3333333 L193.432143,34.3333333 L193.427391,43.9333333 L196.152174,43.9333333 L196.152174,49.2666667 L193.424751,49.2666667 Z M238,39.1369858 C238,38.2458622 237.276537,37.5333333 236.384101,37.5333333 L232.565217,37.5333333 L232.565217,48.2058181 L232.565217,52.4550304 C233.114294,52.8000019 233.767042,53 234.467391,53 C236.326965,53 237.850947,51.5899861 237.989704,49.8 L238,39.1369858 Z M221.695652,41.2666667 L221.695652,48.2058181 L221.695652,52.4550304 C222.244729,52.8000019 222.897477,53 223.597826,53 C225.457399,53 226.981382,51.5899861 227.120139,49.8 L227.130435,41.2666667 L227.130435,34.3275152 L227.130435,30.0783029 C226.581358,29.7333315 225.92861,29.5333333 225.228261,29.5333333 C223.368688,29.5333333 221.844705,30.9433473 221.705948,32.7333333 L221.695652,41.2666667 Z M232.565217,35.4 L236.65657,35.4 C237.397618,35.4 238,34.8030463 238,34.0666667 L238,33.2608486 L238,30.0783029 C237.450924,29.7333315 236.798175,29.5333333 236.097826,29.5333333 C234.238253,29.5333333 232.71427,30.9433473 232.575513,32.7333333 L232.565217,35.4 Z M216.26087,39.1369858 C216.26087,38.2458622 215.537407,37.5333333 214.64497,37.5333333 L210.826087,37.5333333 L210.826087,48.2058181 L210.826087,52.4550304 C211.375163,52.8000019 212.027912,53 212.728261,53 C214.587834,53 216.111817,51.5899861 216.250573,49.8 L216.26087,39.1369858 Z M210.826087,35.4 L214.91744,35.4 C215.658488,35.4 216.26087,34.8030463 216.26087,34.0666667 L216.26087,33.2608486 L216.26087,30.0783029 C215.711793,29.7333315 215.059045,29.5333333 214.358696,29.5333333 C212.499122,29.5333333 210.97514,30.9433473 210.836383,32.7333333 L210.826087,35.4 Z M196.152174,43.9333333 C198.879717,43.9333333 201.077235,41.7768359 201.077235,39.1333333 C201.077235,36.4898308 198.879717,34.3333333 196.152174,34.3333333 L196.152174,31.6666667 L196.152174,29 C199.003644,29 201.585166,30.134212 203.45382,31.9679846 C205.322474,33.8017573 206.478261,36.3350906 206.478261,39.1333333 C206.478261,41.9315761 205.322474,44.4649094 203.45382,46.298682 C201.585166,48.1324547 199.003644,49.2666667 196.152174,49.2666667 L196.152174,46.6 L196.152174,43.9333333 Z M246.997893,37 L274.002107,37 C276.210083,37 278,38.7888304 278,40.9962027 L278,49.0037973 C278,51.2108391 276.216227,53 274.002107,53 L246.997893,53 C244.789917,53 243,51.2111696 243,49.0037973 L243,40.9962027 C243,38.7891609 244.783773,37 246.997893,37 Z M244,49.0037973 C244,50.6586633 245.341981,52 246.997893,52 L274.002107,52 C275.661677,52 277,50.6608208 277,49.0037973 L277,40.9962027 C277,39.3413367 275.658019,38 274.002107,38 L246.997893,38 C245.338323,38 244,39.3391792 244,40.9962027 L244,49.0037973 Z M250.77,48.2000008 L253.77,48.2000008 C255.3,48.2000008 256.27,47.4800008 256.27,46.2000008 C256.27,45.3500008 255.74,44.8200008 254.95,44.5700008 C255.59,44.2900008 256,43.8100008 256,43.0700008 C256,42.0100008 255.23,41.2000008 253.59,41.2000008 L250.77,41.2000008 L250.77,48.2000008 Z M251.96,47.2000008 L251.96,45.1200008 L253.76,45.1200008 C254.54,45.1200008 255.05,45.4700008 255.05,46.1300008 C255.05,46.8400008 254.55,47.2000008 253.76,47.2000008 L251.96,47.2000008 Z M251.96,44.1700008 L251.96,42.2000008 L253.53,42.2000008 C254.38,42.2000008 254.78,42.6200008 254.78,43.1600008 C254.78,43.7300008 254.38,44.1700008 253.53,44.1700008 L251.96,44.1700008 Z M259.8,48.3300008 C260.55,48.3300008 261.26,48.0900008 261.87,47.6700008 L261.36,46.9000008 C260.92,47.1800008 260.41,47.3800008 259.87,47.3800008 C258.93,47.3800008 258.41,46.8100008 258.35,45.7300008 L261.99,45.7300008 C262.01,45.6000008 262.03,45.3600008 262.03,45.2000008 C262.03,43.8100008 261.3,42.7800008 259.77,42.7800008 C258.3,42.7800008 257.18,43.8400008 257.18,45.5100008 C257.18,47.2800008 258.21,48.3300008 259.8,48.3300008 Z M260.91,44.9800008 L258.4,44.9800008 C258.55,44.1400008 259.09,43.6500008 259.8,43.6500008 C260.62,43.6500008 260.91,44.2400008 260.91,44.9800008 Z M263.58,46.7200008 C263.58,47.8000008 264.09,48.3200008 265.13,48.3200008 C265.64,48.3200008 266.16,48.1200008 266.51,47.8500008 L266.07,47.1100008 C265.83,47.2800008 265.57,47.3700008 265.28,47.3700008 C264.91,47.3700008 264.74,47.1400008 264.74,46.7000008 L264.74,43.7800008 L266.21,43.7800008 L266.21,42.9100008 L264.74,42.9100008 L264.74,41.4900008 L263.58,41.4900008 L263.58,42.9100008 L262.69,42.9100008 L262.69,43.7800008 L263.58,43.7800008 L263.58,46.7200008 Z M268.7,48.3200008 C269.4,48.3200008 269.92,48.0400008 270.34,47.6000008 C270.6,48.0500008 270.97,48.2200008 271.85,48.2200008 L271.85,47.3800008 C271.55,47.3800008 271.36,47.2400008 271.36,46.9000008 L271.36,44.5100008 C271.36,43.5000008 270.79,42.7900008 269.38,42.7900008 C268.68,42.7900008 267.88,43.0400008 267.24,43.3500008 L267.67,44.2600008 C268.25,43.9700008 268.82,43.7400008 269.34,43.7400008 C269.94,43.7400008 270.2,44.0400008 270.2,44.4800008 L270.2,45.0700008 C268.46,45.1600008 267.11,45.6400008 267.11,46.9200008 C267.11,47.7500008 267.76,48.3200008 268.7,48.3200008 Z M270.2,45.7900008 L270.2,46.9200008 C269.93,47.2200008 269.52,47.4400008 268.99,47.4400008 C268.56,47.4400008 268.27,47.2000008 268.27,46.8200008 C268.27,46.0100008 269.28,45.8300008 270.2,45.7900008 Z" id="Combined-Shape"></path>
            </g>
        </g>
    </g>
</svg>