<?xml version="1.0" encoding="UTF-8" standalone="no"?>
<svg width="26px" height="26px" viewBox="0 0 26 26" version="1.1" xmlns="http://www.w3.org/2000/svg" xmlns:xlink="http://www.w3.org/1999/xlink">
    <!-- Generator: Sketch 40 (33762) - http://www.bohemiancoding.com/sketch -->
    <title>files-32px-outline-3_pdf</title>
    <desc>Created with Sketch.</desc>
    <defs></defs>
    <g id="Page-1" stroke="none" stroke-width="1" fill="none" fill-rule="evenodd">
        <g id="forword-v0.1" transform="translate(-652.000000, -467.000000)">
            <g id="button" transform="translate(614.000000, 453.000000)">
                <g id="files-32px-outline-3_pdf" transform="translate(39.000000, 15.000000)">
                    <g id="Group" transform="translate(0.387097, 0.387097)">
                        <polyline id="Shape" stroke="#FFFFFF" points="14.7096774 0 14.7096774 6.19354839 20.9032258 6.19354839"></polyline>
                        <polyline id="Shape" stroke="#FFFFFF" points="20.9032258 9.29032258 20.9032258 6.19354839 14.7096774 0 2.32258065 0 2.32258065 9.29032258"></polyline>
                        <polyline id="Shape" stroke="#FFFFFF" points="2.32258065 20.1290323 2.32258065 23.2258065 20.9032258 23.2258065 20.9032258 20.1290323"></polyline>
                        <path d="M9.40103226,14.0167742 C9.40103226,14.5107097 9.25548387,14.8923871 8.9643871,15.1618065 C8.67329032,15.4312258 8.25909677,15.5651613 7.72258065,15.5651613 L7.38658065,15.5651613 L7.38658065,17.0322581 L6.192,17.0322581 L6.192,12.6108387 L7.72258065,12.6108387 C8.28077419,12.6108387 8.7003871,12.7323871 8.98064516,12.9770323 C9.26090323,13.2216774 9.40103226,13.5669677 9.40103226,14.0167742 L9.40103226,14.0167742 Z M7.38658065,14.592 L7.60412903,14.592 C7.78374194,14.592 7.92619355,14.5416774 8.03225806,14.4410323 C8.13832258,14.3403871 8.19096774,14.2010323 8.19096774,14.0237419 C8.19096774,13.7249032 8.02606452,13.5762581 7.69470968,13.5762581 L7.38658065,13.5762581 L7.38658065,14.592 L7.38658065,14.592 Z" id="Shape" fill="#FFFFFF"></path>
                        <path d="M13.8580645,14.7274839 C13.8580645,15.4652903 13.6552258,16.0343226 13.2487742,16.4330323 C12.8423226,16.8317419 12.2717419,17.0322581 11.5354839,17.0322581 L10.1047742,17.0322581 L10.1047742,12.6108387 L11.6353548,12.6108387 C12.3452903,12.6108387 12.8934194,12.792 13.2789677,13.1550968 C13.6645161,13.5181935 13.8580645,14.0423226 13.8580645,14.7274839 L13.8580645,14.7274839 Z M12.6185806,14.7700645 C12.6185806,14.3651613 12.5380645,14.0647742 12.3778065,13.8689032 C12.2175484,13.6730323 11.9744516,13.5754839 11.6477419,13.5754839 L11.300129,13.5754839 L11.300129,16.052129 L11.5664516,16.052129 C11.9295484,16.052129 12.1950968,15.9468387 12.3646452,15.7362581 C12.5341935,15.5256774 12.6185806,15.2036129 12.6185806,14.7700645 L12.6185806,14.7700645 Z" id="Shape" fill="#FFFFFF"></path>
                        <polygon id="Shape" fill="#FFFFFF" points="15.8268387 17.0322581 14.6500645 17.0322581 14.6500645 12.6108387 17.2629677 12.6108387 17.2629677 13.5692903 15.8268387 13.5692903 15.8268387 14.4131613 17.1514839 14.4131613 17.1514839 15.3716129 15.8268387 15.3716129"></polygon>
                        <rect id="Rectangle-path" stroke="#FFFFFF" x="0" y="9.29032258" width="23.2258065" height="10.8387097"></rect>
                    </g>
                </g>
            </g>
        </g>
    </g>
</svg>