<?xml version="1.0" encoding="UTF-8" standalone="no"?>
<svg width="119px" height="27px" viewBox="0 0 119 27" version="1.1" xmlns="http://www.w3.org/2000/svg" xmlns:xlink="http://www.w3.org/1999/xlink">
    <!-- Generator: Sketch 40.1 (33804) - http://www.bohemiancoding.com/sketch -->
    <title>blued</title>
    <desc>Created with Sketch.</desc>
    <defs></defs>
    <g id="Page-1" stroke="none" stroke-width="1" fill="none" fill-rule="evenodd">
        <g id="forword" transform="translate(-400.000000, -1496.000000)" fill="#FFFFFF">
            <g id="Group-6" transform="translate(0.000000, 1381.000000)">
                <g id="Group-7">
                    <g id="blued" transform="translate(400.000000, 115.000000)">
                        <path d="M13.3571376,27 C18.6074037,26.9998364 23.3714009,23.8925132 25.5355126,19.0566394 C25.5388519,19.0498877 25.5421912,19.0397602 25.5455304,19.0330085 C25.5822626,18.9452365 25.622334,18.8574646 25.6590662,18.7696927 C26.3558455,17.1034417 26.7135812,15.3124023 26.7109412,13.5033762 C26.7109412,13.4628661 26.7142804,13.4257318 26.7142804,13.3852217 L11.059709,25.9096024 C11.059709,25.9096024 10.8894054,26.048012 10.8326376,26.091898 C10.4820126,26.3552138 10.1881554,26.2539385 10.2582804,25.8690923 C10.2749769,25.7880721 10.3250662,25.5483871 10.3250662,25.5483871 L12.4254769,15.2250566 C11.0797447,15.4883724 3.18901258,16.3323334 1.69635187,8.77381896 C1.65628044,8.56451664 1.50935187,8.10540187 1.37911973,7.51800504 C-0.663963461,11.7038665 -0.424219385,16.6595247 2.01315274,20.6238594 C4.45052487,24.5881941 8.73997524,26.9991757 13.3571376,27 L13.3571376,27 Z M4.18745901,4.08814767 C4.2141733,4.28732246 4.25758401,4.53713491 4.29431615,4.71605463 C4.49801258,5.70855273 4.6582983,6.47824513 4.67165544,6.54576201 C5.85710187,12.3825961 10.5654947,11.8053268 16.809959,10.5225061 L15.617834,16.3728435 C15.617834,16.3728435 15.477584,17.075019 15.4274947,17.3079523 C15.3506912,17.6522883 15.6245126,17.8042013 15.9317269,17.5543889 C16.132084,17.3923484 16.7431733,16.9062268 16.7431733,16.9062268 L26.0965126,9.4388602 C24.3350012,3.81740148 19.1733642,-0.00195360068 13.3404412,7.4967575e-07 L13.2703162,7.4967575e-07 C13.1267269,7.4967575e-07 12.9831376,0.00337659354 12.8395483,0.0101282813 C12.6892804,0.016879969 12.5390126,0.0236316567 12.3887447,0.0337591883 C12.3620304,0.0371350322 12.3386554,0.0371350322 12.3119412,0.0405108761 C9.3556132,0.263028965 6.55953707,1.48550878 4.37445901,3.51087837 C4.32840098,3.55005034 4.28794359,3.59549513 4.25424473,3.64591213 C4.17860827,3.77988676 4.15481178,3.93746019 4.18745901,4.08814767 Z M36.160533,11.0796363 C38.227259,8.89943447 40.5451335,7.86075535 43.3188708,7.95130686 C47.8791138,8.10024566 51.6303922,11.9968289 51.7672721,16.7309111 C51.9094012,21.645277 48.3133746,25.721734 43.4941095,26.1095485 C39.0008933,26.4709351 34.7838597,22.998428 34.1481148,18.4268058 C33.9072626,16.6936252 34.0356633,14.9534792 34.0231462,13.2168159 C34.0174933,12.4311483 34.0140613,11.6454808 34.0124461,10.8598133 C34.0067933,8.4054985 34.016282,5.95118373 34.0164839,3.4966641 C34.0164839,3.25799325 34.0035631,3.0180932 34.0219349,2.78085644 C34.0732144,2.1181095 34.406935,1.6446603 35.0767989,1.63687533 C35.8102575,1.62847575 36.1518518,2.13695733 36.1566971,2.84457028 C36.1698198,4.78855967 36.1607349,6.73254905 36.160533,8.6767433 L36.160533,11.0796363 Z M42.9786494,23.9465556 C39.288745,23.9471702 36.2955556,20.9007878 36.2448817,17.0933221 C36.194006,13.2670085 39.2116238,10.1310989 42.9544229,10.1208556 C46.6849068,10.1106122 49.6956604,13.2211181 49.6797113,17.0689428 C49.6641659,20.8565364 46.6540179,23.945941 42.9786494,23.9465556 Z M116.839467,11.0796363 C114.772741,8.89943447 112.454866,7.86075535 109.681129,7.95130686 C105.120886,8.10024566 101.369608,11.9968289 101.232728,16.7309111 C101.090599,21.645277 104.686625,25.721734 109.50589,26.1095485 C113.999107,26.4709351 118.21614,22.998428 118.851885,18.4268058 C119.092737,16.6936252 118.964337,14.9534792 118.976854,13.2168159 C118.982507,12.4311483 118.985939,11.6454808 118.987554,10.8598133 C118.993207,8.4054985 118.983718,5.95118373 118.983516,3.4966641 C118.983516,3.25799325 118.996437,3.0180932 118.978065,2.78085644 C118.926786,2.1181095 118.593065,1.6446603 117.923201,1.63687533 C117.189742,1.62847575 116.848148,2.13695733 116.843303,2.84457028 C116.83018,4.78855967 116.839265,6.73254905 116.839467,8.6767433 L116.839467,11.0796363 Z M110.021351,23.9465556 C113.711255,23.9471702 116.704444,20.9007878 116.755118,17.0933221 C116.805994,13.2670085 113.788376,10.1310989 110.045577,10.1208556 C106.315093,10.1106122 103.30434,13.2211181 103.320289,17.0689428 C103.335834,20.8565364 106.345982,23.945941 110.021351,23.9465556 Z M90.442087,18.0740624 C88.2221281,18.0738575 86.0019673,18.0955735 83.7826141,18.0609509 C83.0994255,18.0502977 83.0063552,18.2537313 83.1678655,18.8927136 C84.2443316,23.1488396 88.9681037,25.2849949 92.7769201,23.211734 C92.924702,23.131221 93.0664273,23.0392354 93.2111809,22.9533958 C93.8445031,22.5780783 94.3948494,22.6995648 94.7776288,23.3147824 C95.1632346,23.934712 94.869084,24.4337697 94.3516454,24.8010974 C93.0724839,25.7092758 91.6172762,26.0958611 90.0809096,26.1767839 C85.3514846,26.4254932 81.2129854,22.6376948 80.8621043,17.7554932 C80.5110213,12.8716526 84.0335607,8.52968706 88.7488535,8.03411215 C93.4809031,7.53669343 97.7968618,11.092172 98.3657818,15.9569598 C98.5708998,17.7102174 98.2496962,18.0740624 96.4963002,18.0742673 C94.4782291,18.0742673 92.4601581,18.0742673 90.442087,18.0740624 Z M89.6097639,15.8265206 C87.69405,15.8265206 85.7773267,15.7935369 83.8628241,15.8433197 C83.1305768,15.8623724 83.1113975,15.6089511 83.290472,15.0183176 C84.1357765,12.2298636 86.7538583,10.2543246 89.6576114,10.2481786 C92.4808112,10.2424423 95.1354347,12.2890704 95.9898241,15.0830558 C96.1674854,15.6642654 96.0986416,15.8504901 95.4578496,15.8390175 C93.5090261,15.8043949 91.5591931,15.8265206 89.6097639,15.8265206 Z M63.6249781,13.982919 C63.6249781,15.3823701 63.5900515,16.7828455 63.6318423,18.1808626 C63.7321806,21.5257371 66.3801417,23.9790276 69.8368657,23.9696036 C73.2729971,23.9603846 75.9328696,21.4708326 75.9960605,18.1232948 C76.0477438,15.3936378 76.0107983,12.6621371 76.0130191,9.9316607 C76.013221,9.69258012 76.0085776,9.45370441 76.0138267,9.2148287 C76.0295739,8.50270865 76.3503737,7.98705671 77.0785832,7.98767131 C77.7997267,7.98828592 78.1532323,8.49492368 78.1562606,9.20786319 C78.1661531,11.529014 78.1679701,13.8499599 78.1564625,16.1711107 C78.1516172,17.1591875 78.2041081,18.1470594 78.0698526,19.1353411 C77.4975005,23.3521325 73.7312825,26.3938029 69.3741387,26.1377183 C64.8732508,25.873439 61.5227198,22.5119701 61.4722479,18.1605807 C61.4385326,15.2596544 61.4722479,12.3581135 61.4597308,9.45677742 C61.4565006,8.69282586 61.6349695,8.01368951 62.4917816,7.99566115 C63.4029015,7.97660846 63.6261894,8.66680766 63.6195271,9.47746906 C63.6074139,10.9791491 63.616095,12.4810341 63.616095,13.982919 L63.6249781,13.982919 Z M56.9656818,11.0232115 C56.9656818,13.4447475 56.9616441,15.8662834 56.9668931,18.2876145 C56.9717384,20.6345786 57.7500161,22.620361 59.6225261,24.0904914 C60.1694403,24.5198941 60.4230114,25.0566474 59.9562467,25.6739137 C59.4646497,26.3243686 58.8856354,26.2252126 58.2882492,25.7611873 C55.8169399,23.8413723 54.8456574,21.1973501 54.8190082,18.1579333 C54.7751985,13.1448212 54.8022515,8.13109455 54.8077025,3.11757276 C54.8087119,2.16493806 55.2706313,1.55832487 55.9509934,1.6449839 C56.8057866,1.75376864 56.9683064,2.39316066 56.9658837,3.14482016 C56.9576063,5.77101891 56.9626535,8.39701279 56.9626535,11.0232115 L56.9656818,11.0232115 Z" id="logo-blued"></path>
                    </g>
                </g>
            </g>
        </g>
    </g>
</svg>