<?xml version="1.0" encoding="UTF-8" standalone="no"?>
<svg width="115px" height="41px" viewBox="0 0 115 41" version="1.1" xmlns="http://www.w3.org/2000/svg" xmlns:xlink="http://www.w3.org/1999/xlink">
    <!-- Generator: Sketch 40.1 (33804) - http://www.bohemiancoding.com/sketch -->
    <title>logo-FengHuang</title>
    <desc>Created with Sketch.</desc>
    <defs></defs>
    <g id="Page-1" stroke="none" stroke-width="1" fill="none" fill-rule="evenodd">
        <g id="forword" transform="translate(-1042.000000, -1485.000000)" fill="#FFFFFF">
            <g id="Group-6" transform="translate(0.000000, 1381.000000)">
                <g id="Group-7">
                    <g id="fenghuang" transform="translate(1042.000000, 104.000000)">
                        <path d="M41.9145252,13.9803782 L46.4485469,13.9803782 L46.4485469,12.2724382 L41.9145252,12.2724382 L41.9145252,13.9803782 Z M41.9416641,11.6531993 L46.4492499,11.6531993 L46.4492499,9.83331944 L41.9416641,9.83331944 L41.9416641,11.6531993 Z M38.1308304,6.55322373 L50.7684104,6.55322373 L50.7684104,4.62583019 L38.1308304,4.62583019 L38.1308304,6.55322373 Z M53.5876202,3.08208776 C53.5876202,4.75319036 53.5744023,6.36361127 53.5904325,7.97360384 C53.6199618,10.9460076 53.5670902,13.9239799 53.7330171,16.8889591 C53.9121618,20.0892405 54.9352837,23.0268059 57.0041666,25.5243218 C57.2271836,25.7936058 57.4092813,26.0977282 57.6103621,26.3857164 L57.5372418,26.5857519 C57.2936949,26.5342081 56.9872927,26.5611936 56.8157412,26.4196982 C53.2822023,23.5036927 51.328062,19.7355733 51.0656726,15.1146262 C50.9188695,12.5285864 50.884981,9.93583582 50.7989241,7.34608368 C50.7951274,7.23143096 50.7771286,7.11720659 50.7712227,7.05795269 C49.2593197,7.05795269 47.7912889,7.03867733 46.324383,7.07465801 C46.039495,7.08165425 45.6990637,7.23899833 45.4892646,7.44003323 C44.9138641,7.99173696 44.394288,8.60340849 43.8806178,9.27019328 C44.9377688,9.18652392 46.1182399,9.88157924 46.9717789,8.64452926 C47.0574141,8.52045303 47.4187971,8.44692109 47.5504137,8.52545035 C48.2294483,8.9308041 48.8754381,9.3935556 49.6626063,9.9235567 C48.5493496,10.4665508 48.8279099,11.3796319 48.8184886,12.1986207 C48.8061144,13.2670469 48.8155357,14.335616 48.8155357,15.4504459 L46.5571024,15.4504459 C46.5146364,15.1436106 46.4793418,14.889747 46.4370164,14.5844823 L41.9271806,14.5844823 L41.9271806,16.519586 C42.1774771,16.519586 42.4260861,16.5212994 42.6746952,16.5193005 C45.2049391,16.4988829 47.7351831,16.4721829 50.265427,16.4654722 C50.5259884,16.4649011 50.7866905,16.5819811 51.031081,16.8161411 C48.0082593,17.1491051 44.9910622,16.9811953 41.9312585,17.0789999 L41.9312585,18.7823709 L44.4000533,18.7823709 C45.4313309,18.7823709 46.4631709,18.758241 47.4933236,18.7913661 C48.1256737,18.8117837 48.675904,18.777088 49.0959239,18.1805512 C49.1959019,18.0384846 49.6851049,18.0053596 49.8632653,18.1250096 C50.504193,18.5547788 51.088593,19.0715013 51.7970163,19.6373403 C50.5916561,20.0829582 50.958945,21.126969 50.7831751,21.9576657 C50.6507148,22.5833297 50.6081082,23.2341231 50.4234794,23.841654 C49.9057313,25.545025 48.6091114,26.3711528 47.0020114,26.7720804 C46.7920717,26.8244808 46.3624899,26.6921233 46.3066653,26.5414899 C45.9597657,25.6047073 45.3147602,25.0070282 44.4442067,24.6095274 C44.3708051,24.575974 44.3244019,24.4818816 44.3004972,24.2442949 C44.7868878,24.3044055 45.2752471,24.3513803 45.7591067,24.4270539 C47.5492888,24.7069037 47.9324673,24.4987297 48.3131148,22.7095477 C48.5475216,21.6079964 48.6033461,20.4671804 48.7464932,19.2855293 L41.9448983,19.2855293 C41.9187437,19.523116 41.8956827,19.7315754 41.866997,19.9930065 L39.7053075,19.9930065 L39.7053075,8.4863285 C40.6219831,8.81358134 41.4867714,9.12227271 42.4480222,9.4652314 C42.6457283,8.59655502 42.8106708,7.87208692 42.9936122,7.06866123 L37.9881052,7.06866123 C37.9881052,7.89750185 37.9920424,8.7648932 37.9872615,9.63242732 C37.972075,12.3913743 37.9758716,15.1497502 37.40708,17.8710032 C36.6739082,21.3791193 34.7516878,24.1166492 32.0964363,26.3765785 C31.8714507,26.5680471 31.4981153,26.5797551 31.193541,26.6749896 C31.1514969,26.609739 31.1094527,26.5444883 31.0674085,26.4790948 C31.1963534,26.2707781 31.3009717,26.0410444 31.4577585,25.8572859 C34.2371739,22.5997495 35.1281168,18.6928475 35.1295229,14.528084 C35.1307885,10.8193614 34.9938285,7.11063868 34.9207082,3.40191601 C34.9190208,3.31210709 34.9506594,3.22158427 34.9821574,3.04553596 C35.7112512,3.30953704 36.4002696,3.58110549 37.1041931,3.80512805 C37.4772473,3.92377862 37.8756124,4.0218688 38.2630094,4.02329661 C42.3387636,4.03885968 46.4150803,4.06770133 50.4899907,4.00259344 C51.2750498,3.99002876 52.0557497,3.59181403 52.8350434,3.35951021 C53.1165566,3.27555529 53.3878049,3.15661916 53.5876202,3.08208776 Z M14.5400671,27.0410788 C18.8102932,25.650397 21.7808058,23.0763507 22.606081,18.5210826 C23.0362252,16.1472146 22.8638301,13.8036159 21.2930089,11.7701365 C21.3672542,12.2941408 21.4513425,12.8170029 21.5144791,13.342435 C22.1791708,18.8676108 19.0369662,24.8091345 12.666078,25.9331023 C9.20355006,26.5439172 6.18691545,25.4813449 3.74582203,22.8684623 C3.4022972,22.5008026 3.09406697,22.0988756 2.83294309,21.7881853 C3.92609172,22.4656786 5.01347509,23.3156508 6.23233441,23.8647845 C11.7793536,26.3640138 18.3029507,22.603319 19.1809569,16.4881743 C19.3852719,15.064653 19.3359157,13.6823953 18.7735924,12.3639605 C17.6102764,9.63585406 14.4725715,9.20851211 12.6278304,11.516844 C12.2308715,12.0135772 11.9274222,12.5862697 11.5438218,13.0951393 C10.8767396,13.9802354 10.0539955,14.3052037 8.91978702,14.1043116 C10.0935086,13.2774699 10.1590356,12.0385638 10.294027,10.8432057 C10.774793,6.58377875 14.1284841,3.76543508 18.3700246,4.07926655 C22.5035719,4.38510231 25.9405077,7.6704809 26.6937875,12.0048676 C27.1773659,14.7876589 26.6171518,17.3764116 25.3385307,19.8486554 C25.8309678,17.9411084 26.1346984,16.0162849 25.7461764,14.0553379 C25.3606074,12.1089546 24.4851323,10.4325691 22.9659173,9.11242086 C25.237709,13.9481098 25.3599043,18.6630064 22.1698902,23.1161865 C20.431033,25.5434544 17.4513804,26.9933901 14.5400671,27.0410788 Z M3.94125012,17.9200911 C-0.489840637,9.77175251 4.2331689,0.256433722 12.2205784,0 C8.1507301,1.35598611 5.26205602,3.8116674 4.35648911,8.1196397 C3.83424136,10.6043054 3.966561,13.0631279 5.59348789,15.2248242 C5.50588413,14.5877377 5.39311012,13.9530785 5.3348951,13.3132793 C4.94496699,9.03700421 6.89095154,4.42762234 10.9174901,2.22623307 C15.6400778,-0.355808928 21.1286007,0.948205093 24.1760303,5.40866694 C23.3580671,4.82526594 22.5513532,4.14663038 21.6549264,3.62748059 C15.8287845,0.254292015 8.55106379,3.97986279 7.68318197,10.7352351 C7.48955376,12.2419974 7.60570256,13.6853652 8.30582953,15.0287866 C9.45930241,17.2423122 12.2215627,17.6446676 13.9338435,15.8407791 C14.4477949,15.2992128 14.8173337,14.6177216 15.2642113,14.0089057 C15.8951552,13.1490817 16.7079156,12.6856163 17.9806308,12.8478149 C16.6498412,13.8901123 16.7759737,15.3564678 16.5166778,16.7006031 C15.4627611,22.1638122 10.2530796,24.3709127 5.44963774,22.1004176 C2.10705528,20.520409 0.471269586,17.5909821 0.0623583159,13.9629304 C-0.208468062,11.5612201 0.423882,9.30357535 1.55120031,7.16315334 C0.424866312,11.211408 0.807763626,14.9014264 3.94125012,17.9200911 Z M64.5584789,3.0342563 C65.2349824,3.27584085 65.8133359,3.52727726 66.4153129,3.68476412 C67.0395073,3.84824775 67.6859189,4.01201695 68.3240343,4.01787095 C71.8128573,4.04971099 75.3028053,3.99159934 78.7907847,4.05399441 C80.1364796,4.07798153 81.3866963,3.8501039 82.6018996,3.30496807 C82.828432,3.20330837 83.0711352,3.13919994 83.1896744,3.09807917 C83.1896744,4.86398801 83.1799719,6.59377339 83.191643,8.32341599 C83.2159696,11.9319068 82.9195511,15.555104 83.6518791,19.1323258 C84.1260362,21.4489389 85.01262,23.5709423 86.5210076,25.4008167 C86.7310879,25.6556799 86.9169822,25.931389 87.1085012,26.2013868 C87.1474518,26.2563573 87.1613728,26.3296037 87.2796308,26.6310133 C86.8809845,26.5257841 86.5630518,26.534922 86.3803916,26.3798624 C83.3592573,23.8152396 81.2460803,20.6529378 80.8869471,16.6072532 C80.5723892,13.0628709 80.5519999,9.4907891 80.431492,5.92998699 C80.3857918,4.57914097 80.4237581,4.57785595 79.1212323,4.57785595 C78.0668937,4.57785595 77.0117113,4.6045559 75.9587789,4.56600517 C75.4785753,4.54844317 75.2825566,4.74590856 75.0720545,5.16025748 C74.530683,6.22611368 73.9104259,7.25070632 73.2852473,8.35611271 C74.0833836,8.35611271 74.8988156,8.42207729 75.6949833,8.32498657 C76.0347115,8.28358024 76.3660028,7.93548145 76.6438599,7.66591193 C76.9983528,7.32195378 77.3258474,7.31053134 77.707198,7.57952974 C78.2973632,7.99587759 78.891747,8.40580032 79.4438053,8.79030812 C79.4170883,8.95207839 79.4222911,9.02917984 79.400355,9.03817501 C78.6051716,9.36471395 78.6394819,10.0420645 78.6618399,10.7436877 C78.6913692,11.6704757 78.6746359,12.5989771 78.6759015,13.5266218 C78.677167,14.427281 78.6761827,15.3279402 78.6761827,16.2837127 L76.2691184,16.2837127 C76.2433856,16.0418426 76.2191997,15.8133938 76.1909359,15.5471082 L71.3282947,15.5471082 C71.3035463,15.7962602 71.2810477,16.0244234 71.25419,16.2947068 L69.0622681,16.2947068 L69.0622681,7.40647982 C69.6206542,7.61551042 70.1481047,7.83267952 70.6883513,8.00958452 C71.2204422,8.18377669 71.7656104,8.31727643 72.4114596,8.49846484 C72.4834549,7.086366 72.5446229,5.88558226 72.6086032,4.6293997 L67.636844,4.6293997 C67.636844,5.86430797 67.6766383,7.07008903 67.6288288,8.27230058 C67.517461,11.07194 67.4854005,13.8828591 67.1986846,16.6656504 C66.7880859,20.6499394 64.7605441,23.7913953 61.771189,26.3226074 C61.5318606,26.5253557 61.1721649,26.5816112 60.8682938,26.705973 C60.8180939,26.6467191 60.7677533,26.587608 60.7174128,26.5283541 C60.8348272,26.2996198 60.9142752,26.0377604 61.0752805,25.8471485 C63.8191201,22.6014629 64.7390298,18.7435346 64.7145627,14.5861957 C64.6938921,11.0675138 64.6124755,7.5491175 64.5590414,4.03072119 C64.5545417,3.72959718 64.5584789,3.42833039 64.5584789,3.0342563 Z M71.3170454,14.924871 L76.1817958,14.924871 L76.1817958,12.1954795 L71.3170454,12.1954795 L71.3170454,14.924871 Z M71.3319507,11.6050823 L76.1725152,11.6050823 L76.1725152,8.85869996 L71.3319507,8.85869996 L71.3319507,11.6050823 Z M109.424088,24.0764137 C109.630653,24.0565672 109.83764,24.0161603 110.043642,24.0207293 C110.558297,24.0318662 111.07253,24.078127 111.587184,24.0836955 C112.605384,24.0946896 112.62493,24.0695602 112.62493,23.064814 C112.625352,17.1889694 112.625211,11.3131248 112.625211,5.43728015 L112.625211,4.62571596 L102.484409,4.62571596 L102.484409,5.46012502 C102.484409,12.001755 102.485112,18.5433849 102.483706,25.0848721 C102.483424,25.9781067 102.283047,26.2275442 101.445678,26.4080187 C100.413557,26.6303279 100.144699,26.3646135 100.146527,25.3157481 C100.158902,18.0876297 100.150886,10.8593684 100.14934,3.63110721 L100.14934,2.93733692 C100.805173,3.24931224 101.390557,3.56200147 102.002377,3.80587051 C102.381618,3.95707503 102.800654,4.08143681 103.202816,4.08514911 C105.896877,4.10927901 108.591923,4.06387482 111.285141,4.115133 C112.291248,4.13426559 113.169254,3.86241157 114.023075,3.38766652 C114.304447,3.23117912 114.598616,3.09810772 114.997122,2.89950009 C114.997122,3.23432029 115.004293,3.45634392 114.995997,3.67793921 C114.934688,5.31620231 114.823039,6.95403707 114.815446,8.59258573 C114.791682,13.7308265 114.807009,18.86921 114.806587,24.0075935 C114.806446,25.2320788 114.562337,25.6118748 113.445705,26.0292221 C113.052965,26.1760005 112.639413,26.3026467 112.226706,26.3403408 C112.037577,26.3576172 111.694333,26.1772855 111.648774,26.0189419 C111.398759,25.1495517 110.765002,24.7808925 109.991193,24.5411641 C109.784628,24.4771984 109.592406,24.364973 109.393434,24.2748785 C109.403699,24.2087712 109.413823,24.142521 109.424088,24.0764137 Z M114.729361,31.1613376 L114.729361,40.5795657 L112.725161,40.5795657 L112.725161,33.3443082 C112.676227,33.3316007 112.627292,33.319036 112.578217,33.3063286 C112.455741,33.4903726 112.325249,33.6694193 112.211913,33.8590318 C111.095844,35.7280281 109.968385,37.5904565 108.879455,39.4757299 C108.634783,39.8993595 108.371409,40.1170997 107.886706,40.0445672 C107.703343,40.0171534 107.509152,40.0168678 107.325789,40.0442817 C106.693579,40.1388023 106.326431,39.8889365 106.005264,39.3042505 C104.879352,37.2543513 103.685522,35.2428601 102.412385,33.0346173 L102.412385,40.57671 L100.535021,40.57671 C100.519553,40.3569709 100.492274,40.1496537 100.491993,39.9423364 C100.48918,37.2549224 100.503383,34.5675085 100.479197,31.88038 C100.474134,31.3273913 100.645967,31.2138808 101.183261,31.1354943 C102.900744,30.8849146 103.980535,31.4533236 104.711316,33.1358487 C105.414958,34.7554076 106.44483,36.2290448 107.334647,37.7649343 C107.448546,37.9616858 107.582132,38.1465865 107.755933,38.4124437 C108.959746,36.382391 110.183949,34.4707033 111.243209,32.4690639 C111.797096,31.4223403 112.457569,30.9557337 113.602324,31.1523424 C113.942192,31.2107396 114.30006,31.1613376 114.729361,31.1613376 Z M97.6884475,7.49226232 C98.3864652,7.94487641 99.0309083,8.36265206 99.7896721,8.85453077 C97.7425847,11.3283452 95.6727174,13.8294306 93.5927259,16.3427952 L97.7594586,16.3427952 C97.4236676,15.6197549 97.1597314,15.0517742 96.8939672,14.4792246 C97.9982245,14.4426728 99.6735233,15.8671935 99.7314571,16.9170583 C99.7498778,17.2513074 99.6950375,17.7033503 99.4880508,17.9083831 C99.2241146,18.1700997 98.6771185,18.4510916 98.4227441,18.335725 C98.0391438,18.1616756 97.8033308,17.6519494 97.3626403,17.1106686 C95.7546965,17.4653353 93.884504,17.858981 92.0262638,18.3047417 C91.6726146,18.3895533 91.4808144,18.4004046 91.286905,18.0597304 C91.0465923,17.6375285 90.7453929,17.2511646 90.4702074,16.848952 C92.2340943,15.6921446 93.9670456,13.7461896 94.7208879,12.0623796 C93.8480845,12.1914531 93.0195751,12.2953973 92.1990809,12.443889 C91.8416351,12.5085685 91.6077907,12.4872942 91.5251085,12.0698042 C91.4889702,11.8877591 91.3798522,11.7209915 91.3057476,11.5465137 C90.9073825,10.6073038 90.940146,10.653993 91.7754049,10.0540295 C92.1962686,9.75190602 92.5572298,9.2892973 92.8019016,8.82183405 C93.7441693,7.0223718 94.6285032,5.19135507 95.5350544,3.37247467 C95.5967848,3.24868401 95.6641399,3.12774895 95.7967407,2.87745479 C96.3313627,3.68787673 96.8139567,4.41934107 97.3097687,5.1706519 C95.9161237,7.07520057 94.5393526,8.95661881 93.1533009,10.8507445 C93.2679029,10.9068572 93.3061505,10.9369839 93.3483353,10.9445513 C95.4477319,11.3230623 95.4547627,11.3273457 96.5743471,9.4844782 C96.9632909,8.84425058 97.3078,8.17618077 97.6884475,7.49226232 Z M41.7444783,38.4560917 L41.7444783,31.2261171 L43.5484407,31.2261171 L43.5484407,40.6317805 C42.8968263,40.6317805 42.2488678,40.655482 41.604706,40.6162174 C41.4287954,40.6055089 41.2434636,40.42789 41.0970823,40.2891073 C38.8394928,38.1481142 36.5879497,36.000696 34.3338755,33.8559905 C34.1990248,33.7276309 34.0553153,33.6089803 33.7974256,33.381531 L33.7974256,40.5967993 L31.9867136,40.5967993 L31.9867136,31.2218337 C33.1943236,31.0590639 34.2092898,31.1290264 35.1719468,32.1296319 C37.229018,34.2676266 39.4382356,36.2548452 41.7444783,38.4560917 Z M90.3617222,30.9162692 C92.0720343,30.9018484 93.7275063,31.1442896 95.2243634,32.0533728 C98.3155245,33.9305077 98.3264925,38.0464402 95.1385876,39.7456706 C92.0032731,41.4167732 88.6896576,41.415631 85.5558898,39.757093 C82.3232691,38.0461547 82.349283,33.9085195 85.4914877,32.0296713 C86.9935476,31.1315821 88.6512694,30.8964227 90.3617222,30.9162692 Z M90.4060162,31.7749509 C90.3911109,31.8095038 90.3762056,31.8440567 90.3613003,31.8786096 C89.8051641,31.9487148 89.242419,31.9848382 88.6941573,32.0950647 C86.9021472,32.4555854 85.7247696,33.6856392 85.5283291,35.3615963 C85.3207799,37.1323597 86.0781376,38.6439765 87.6503648,39.3206132 C89.454046,40.0967678 91.3145361,40.09791 93.1085147,39.286917 C94.5381574,38.6405498 95.1894906,37.3990736 95.1762727,35.8436232 C95.1634767,34.3168716 94.5120028,33.0975264 93.0868599,32.5021319 C92.2386643,32.1477507 91.3025837,32.0101104 90.4060162,31.7749509 Z M58.8712797,32.5220212 C57.7249782,32.3479718 56.5772706,32.1505064 55.4233758,32.004442 C54.0862585,31.8349616 52.7567344,31.8739406 51.4720668,32.3526835 C49.8272817,32.9656401 48.9269176,34.2346729 48.9387293,35.9063466 C48.9501192,37.5319023 49.8556861,38.7622416 51.4903469,39.373342 C52.9832667,39.9316136 55.0345727,40.0171391 56.8135054,39.5752336 L56.8135054,36.580556 L59.0291914,36.580556 C59.0291914,37.7714879 59.0424093,38.9301514 59.0106301,40.0875299 C59.0071147,40.2163179 58.7617398,40.4242062 58.6052342,40.4500495 C55.9354992,40.8905272 53.2554993,41.172947 50.5895609,40.4691821 C48.893451,40.0214225 47.4290762,39.201006 46.8465041,37.3679903 C46.0468211,34.8516273 47.1829982,32.6276787 49.7505054,31.614223 C51.9100856,30.7616808 54.160785,30.8596282 56.4102188,30.9972686 C56.9698704,31.0315359 57.5264284,31.1236293 58.0831271,31.1997313 C59.0965465,31.3380855 59.1290288,31.3941983 58.8712797,32.5220212 Z M80.9013321,39.0323679 C81.0349173,40.1573353 81.0398389,40.1797518 80.1183824,40.3920663 C77.3123905,41.0384335 74.5004927,41.1992043 71.7414666,40.203025 C69.1883023,39.2812343 68.0518439,37.0555723 68.7612515,34.5569141 C69.1486485,33.1922184 70.0982283,32.3556677 71.3110411,31.7835463 C72.674313,31.1403203 74.1320789,30.8968796 75.6181086,30.9318608 C77.0902172,30.9664137 78.5620447,31.081352 80.0299349,31.2079982 C81.0877889,31.299235 81.0986164,31.354491 80.8854425,32.5385694 C79.710596,32.3579521 78.5375775,32.1520627 77.3575282,32.0032855 C76.0451593,31.8378029 74.7393993,31.8753542 73.4731524,32.3336795 C71.8359605,32.9262184 70.9336278,34.1294294 70.8927085,35.7785438 C70.8533361,37.367976 71.6405043,38.5776121 73.2273557,39.2419697 C75.2447731,40.0866589 77.3098594,39.8821973 79.3724146,39.4280126 C79.8697733,39.3185 80.3596794,39.1735778 80.9013321,39.0323679 Z M29.4095602,39.6224225 L29.4095602,40.5883324 L20.5345826,40.5883324 C20.5158807,40.3765889 20.4822734,40.1719845 20.4819922,39.9673801 C20.4784768,37.2805373 20.4959132,34.5934088 20.4669463,31.9067087 C20.460478,31.3093153 20.6420132,31.1418338 21.2207886,31.1491156 C23.5855275,31.1789567 25.9509695,31.160538 28.3161303,31.1635364 C28.5215703,31.1636792 28.7270102,31.1905219 28.9199353,31.2042288 C29.1266408,32.1452949 29.098377,32.1859873 28.2341512,32.1867012 C26.4107838,32.1881291 24.5874164,32.1871296 22.7127241,32.1871296 L22.7127241,35.1719553 L27.9463103,35.1719553 L27.9463103,36.1998319 L22.7007718,36.1998319 L22.7007718,39.6224225 L29.4095602,39.6224225 Z M72.414764,25.0863428 L72.414764,21.5041236 L69.9923725,21.5041236 C69.6409732,21.5039808 69.2874646,21.5255406 68.9388776,21.4935578 C68.7825127,21.4792798 68.635569,21.3579164 68.4844068,21.2852411 C68.6378188,21.1812969 68.7884185,20.9925412 68.9450647,20.9874011 C69.8344608,20.9577027 70.7254037,20.971838 71.615784,20.9712669 C71.8672054,20.9709813 72.1187674,20.9711241 72.4123736,20.9711241 L72.4123736,18.1105174 L67.9406448,18.1105174 C67.9260207,18.0305603 67.911256,17.9506033 67.896632,17.8706462 C68.0729644,17.8012549 68.2495781,17.6708963 68.4256293,17.6714675 C72.2200109,17.6840321 76.0143925,17.7103037 79.8087741,17.7401449 C79.906221,17.7408588 80.0031054,17.8093934 80.1047707,18.011285 C79.8828787,18.0546902 79.6612679,18.1337906 79.4389541,18.1357895 C78.1268664,18.1480687 76.8143568,18.1584916 75.502691,18.1343617 C75.0103944,18.1253666 74.8403897,18.3048416 74.8638726,18.798862 C74.8964955,19.4837799 74.8721689,20.1716962 74.8721689,21.0439421 L79.9493901,21.0439421 C79.9489682,21.1457446 79.9485464,21.2475471 79.9481245,21.3494923 C79.1627843,21.6815997 78.3144481,21.4530082 77.5001409,21.4945573 C76.6605229,21.5375342 75.8172489,21.5041236 74.9239156,21.5041236 L74.9239156,25.1353165 L82.04499,25.1353165 C82.0621452,25.220842 82.0791597,25.3063675 82.0963149,25.3917502 C81.8948122,25.4674238 81.6935907,25.6086337 81.4919474,25.6090621 C76.6416804,25.621484 71.7914134,25.6219123 66.9411464,25.6063492 C66.7601736,25.6057781 66.5799039,25.423733 66.3992124,25.3262139 C66.5929812,25.2463997 66.786047,25.0994786 66.9808001,25.0970513 C68.5504963,25.0782043 70.1204737,25.0863428 71.6903105,25.0863428 L72.414764,25.0863428 Z M9.19895192,31.1949767 L17.6345046,31.1949767 L17.6345046,32.1741651 L11.364438,32.1741651 L11.364438,35.353315 L16.6147575,35.353315 L16.6147575,36.3267923 L11.3405333,36.3267923 L11.3405333,40.5916449 L9.19895192,40.5916449 L9.19895192,31.1949767 Z M103.200313,20.8603407 C104.186734,20.4402806 104.049914,19.6878275 104.048508,18.9807786 C104.045555,17.5823867 104.047665,16.1839948 104.047665,14.7126421 C103.743653,14.6972218 103.491669,14.7096437 103.250091,14.6643823 C103.048729,14.6265455 102.8596,14.5211735 102.665128,14.4457854 C102.869584,14.3541203 103.06729,14.2124821 103.280323,14.182641 C103.601912,14.1376651 103.934047,14.1723608 104.261823,14.1702191 C106.718384,14.1535138 109.175086,14.129955 111.631787,14.12867 C111.879693,14.1285272 112.127599,14.2624553 112.375505,14.3341311 C112.358772,14.4292228 112.342039,14.5243146 112.325305,14.6192636 L106.112188,14.6192636 L106.112188,20.5061024 L111.985296,20.5061024 C112.001748,20.6020509 112.0182,20.6978565 112.034793,20.7936622 C111.813604,20.8472049 111.592837,20.944724 111.371085,20.947294 C110.060404,20.9618576 108.746066,21.0142581 107.440025,20.9347293 C106.483696,20.8764749 105.737025,21.0678007 105.307865,22.0976763 C104.620112,21.6938931 104.003511,21.3319446 103.200313,20.8603407 Z M5.18238301,40.6113343 L3.09465755,40.6113343 C3.07651809,40.3661802 3.04558258,40.1401588 3.04530135,39.9139945 C3.04192656,37.2531377 3.06442512,34.5918525 3.02800558,31.9315668 C3.01914677,31.2813446 3.23063321,31.092446 3.82965728,31.1529849 C4.26345758,31.1968185 4.70485114,31.1615518 5.18238301,31.1615518 L5.18238301,40.6113343 Z M111.648872,6.99679982 C110.011821,7.57206233 109.521774,9.01071833 108.473763,10.0922804 C109.851941,10.295457 111.142374,10.0747184 112.57061,10.376128 C111.7009,10.9024168 103.000286,10.7934753 102.602765,10.2891746 C102.917604,10.2449127 103.173525,10.1800904 103.430009,10.1776631 C104.62412,10.1665262 105.818934,10.1518198 107.012342,10.1828032 C107.47989,10.1949395 107.745373,10.0652949 107.887254,9.58969313 C108.272261,8.29895769 108.692703,7.01921635 109.128893,5.64138483 C109.885126,6.04816638 110.687621,6.47979174 111.648872,6.99679982 Z M92.1205187,19.2486919 C92.6825608,20.5756936 93.275679,21.9071214 92.682139,23.4164538 C92.5602249,23.7264302 92.3017727,24.0204152 92.0340399,24.2231634 C91.5203697,24.6119547 90.7509191,24.5488457 90.4393141,24.1145075 C90.0723064,23.6030679 90.1181472,23.0152407 90.5564472,22.6243077 C91.519526,21.7653404 91.8586918,20.6969142 91.8323966,19.4511546 C91.831131,19.3934713 91.8854088,19.334503 91.9139539,19.2761058 C91.9828557,19.2669678 92.0516169,19.2578299 92.1205187,19.2486919 Z M93.9692533,19.0474714 C95.2470307,19.3425986 96.4031753,21.1863228 96.0108567,22.3495553 C95.8893645,22.710076 95.5520267,23.0693116 95.2197512,23.2650637 C94.7482658,23.5429144 94.2217996,23.2038108 94.1315241,22.6513932 C94.1015729,22.4677775 94.1050883,22.2691699 94.1384143,22.0859825 C94.3051848,21.171902 94.4747677,20.2635326 93.975581,19.3885739 C93.9280528,19.3053329 93.9692533,19.1698342 93.9692533,19.0474714 Z M96.6547372,18.8291743 C98.3028971,19.3017777 99.4133415,20.596511 99.2921306,21.8512657 C99.2322282,22.4705046 98.8919375,22.772057 98.2878512,22.8103221 C97.6501578,22.850729 97.3630199,22.4700763 97.3638636,21.912233 C97.3652698,20.8960644 97.229716,19.9380074 96.6305513,19.0904626 C96.601725,19.0496274 96.640535,18.9596757 96.6547372,18.8291743 Z M39.3684901,20.2891332 C40.0219325,21.2703206 40.2280756,22.2447973 40.0447123,23.281669 C39.8838477,24.1911806 39.1412547,24.7061898 38.3054333,24.4843089 C38.0299666,24.4112053 37.7012064,24.156485 37.6031971,23.9026213 C37.5213586,23.6907351 37.6567718,23.2649637 37.8404162,23.095055 C39.173737,21.8614317 38.9290652,21.8548638 39.3684901,20.2891332 Z M104.035501,6.23746473 C105.322138,5.96018506 107.035121,7.62257806 106.778919,8.82164843 C106.644771,9.45002528 106.238954,9.66433876 105.664678,9.66319652 C105.074091,9.66191149 104.858667,9.27983096 104.794406,8.75511273 C104.740269,8.31206494 104.744628,7.85202627 104.621307,7.43025276 C104.504737,7.03118135 104.255706,6.67208847 104.035501,6.23746473 Z M105.97108,11.0429984 C106.808167,10.9694665 108.1488,11.6391069 108.406549,12.398699 C108.524104,12.7453699 108.508777,13.3216319 108.297712,13.5536502 C108.037151,13.8400678 107.504357,14.0066926 107.099664,13.9882739 C106.589228,13.9648579 106.4915,13.4714086 106.422739,12.9858122 C106.329792,12.328451 106.12618,11.6872239 105.97108,11.0429984 Z M15.3086459,12.3919597 C14.8295673,12.9172491 14.3573788,13.4021315 13.922313,13.9192824 C13.2820884,14.6803023 12.4932328,14.875626 11.6022899,14.4841219 C12.0847434,13.9398428 12.5764775,13.3835701 13.0697583,12.8285824 C13.6489555,12.1767896 14.4281087,12.0380069 15.3086459,12.3919597 Z M45.11382,20.1204238 C46.0657902,20.550193 46.9961055,21.0066621 47.5155409,22.0046976 C47.8014132,22.5538313 47.5706624,23.1390884 47.0785065,23.3134234 C46.5455719,23.5021792 46.0979912,23.2231861 45.9151905,22.6219376 C45.673331,21.826222 45.4088323,21.0375027 45.11382,20.1204238 Z M40.8259044,20.5059025 C41.7833586,20.9108279 42.5827605,22.1403105 42.5256704,23.0369719 C42.4905164,23.5906745 42.2312205,23.9160712 41.6628507,23.9504813 C41.1062927,23.9840347 40.8222484,23.7651522 40.8956499,23.1594775 C40.9496465,22.714288 41.0078615,22.2643867 40.9984402,21.818055 C40.9895814,21.4038489 40.8936813,20.9916416 40.8259044,20.5059025 Z M62.92424,40.6085073 L65.4107524,40.6085073 L65.4107524,39.1108829 L62.92424,39.1108829 L62.92424,40.6085073 Z M43.028035,20.535201 C43.9553974,20.7753578 44.8436686,21.7731077 44.8623705,22.627506 C44.8746041,23.1884905 44.6583367,23.540016 44.0631093,23.5637176 C43.4699911,23.5872763 43.338937,23.2490294 43.3085639,22.7098904 C43.2672228,21.9767127 43.1249194,21.2493889 43.028035,20.535201 Z" id="logo-FengHuang"></path>
                    </g>
                </g>
            </g>
        </g>
    </g>
</svg>