<?xml version="1.0" encoding="UTF-8" standalone="no"?>
<svg width="68px" height="59px" viewBox="0 0 68 59" version="1.1" xmlns="http://www.w3.org/2000/svg" xmlns:xlink="http://www.w3.org/1999/xlink">
    <!-- Generator: Sketch 40.1 (33804) - http://www.bohemiancoding.com/sketch -->
    <title>Group 4</title>
    <desc>Created with Sketch.</desc>
    <defs></defs>
    <g id="Page-1" stroke="none" stroke-width="1" fill="none" fill-rule="evenodd">
        <g id="forword-copy" transform="translate(-686.000000, -1801.000000)" fill="#FFFFFF">
            <g id="Group-4" transform="translate(686.000000, 1801.000000)">
                <g id="Group-5">
                    <path d="M58.5436129,35 C58.5436129,34.0777778 59.2894194,33.3333333 60.1997419,33.3333333 L60.1997419,33.3333333 C61.0990968,33.3333333 61.8339355,34.0777778 61.8339355,35 L61.8339355,35 C61.8339355,35.9222222 61.0990968,36.6666667 60.1997419,36.6666667 L60.1997419,36.6666667 C59.2894194,36.6666667 58.5436129,35.9222222 58.5436129,35 L58.5436129,35 Z M52.0419355,35 C52.0419355,34.0777778 52.7767742,33.3333333 53.6870968,33.3333333 L53.6870968,33.3333333 C54.5974194,33.3333333 55.3322581,34.0777778 55.3322581,35 L55.3322581,35 C55.3322581,35.9222222 54.5974194,36.6666667 53.6870968,36.6666667 L53.6870968,36.6666667 C52.7767742,36.6666667 52.0419355,35.9222222 52.0419355,35 L52.0419355,35 Z M45.5380645,35 C45.5380645,34.0777778 46.2729032,33.3333333 47.1832258,33.3333333 L47.1832258,33.3333333 C48.0935484,33.3333333 48.8283871,34.0777778 48.8283871,35 L48.8283871,35 C48.8283871,35.9222222 48.0935484,36.6666667 47.1832258,36.6666667 L47.1832258,36.6666667 C46.2729032,36.6666667 45.5380645,35.9222222 45.5380645,35 L45.5380645,35 Z M39.0341935,35 C39.0341935,34.0777778 39.7690323,33.3333333 40.6793548,33.3333333 L40.6793548,33.3333333 C41.5896774,33.3333333 42.3245161,34.0777778 42.3245161,35 L42.3245161,35 C42.3245161,35.9222222 41.5896774,36.6666667 40.6793548,36.6666667 L40.6793548,36.6666667 C39.7690323,36.6666667 39.0341935,35.9222222 39.0341935,35 L39.0341935,35 Z M32.5303226,35 C32.5303226,34.0777778 33.2651613,33.3333333 34.1754839,33.3333333 L34.1754839,33.3333333 C35.0858065,33.3333333 35.8206452,34.0777778 35.8206452,35 L35.8206452,35 C35.8206452,35.9222222 35.0858065,36.6666667 34.1754839,36.6666667 L34.1754839,36.6666667 C33.2651613,36.6666667 32.5303226,35.9222222 32.5303226,35 L32.5303226,35 Z M26.0264516,35 C26.0264516,34.0777778 26.7612903,33.3333333 27.6606452,33.3333333 L27.6606452,33.3333333 C28.5709677,33.3333333 29.3167742,34.0777778 29.3167742,35 L29.3167742,35 C29.3167742,35.9222222 28.5709677,36.6666667 27.6606452,36.6666667 L27.6606452,36.6666667 C26.7612903,36.6666667 26.0264516,35.9222222 26.0264516,35 L26.0264516,35 Z M19.5094194,35 C19.5094194,34.0777778 20.2442581,33.3333333 21.1545806,33.3333333 L21.1545806,33.3333333 C22.0649032,33.3333333 22.7997419,34.0777778 22.7997419,35 L22.7997419,35 C22.7997419,35.9222222 22.0649032,36.6666667 21.1545806,36.6666667 L21.1545806,36.6666667 C20.2442581,36.6666667 19.5094194,35.9222222 19.5094194,35 L19.5094194,35 Z M13.0077419,35 C13.0077419,34.0777778 13.7425806,33.3333333 14.6529032,33.3333333 L14.6529032,33.3333333 C15.5632258,33.3333333 16.2980645,34.0777778 16.2980645,35 L16.2980645,35 C16.2980645,35.9222222 15.5632258,36.6666667 14.6529032,36.6666667 L14.6529032,36.6666667 C13.7425806,36.6666667 13.0077419,35.9222222 13.0077419,35 L13.0077419,35 Z M6.50387097,35 C6.50387097,34.0777778 7.23870968,33.3333333 8.14903226,33.3333333 L8.14903226,33.3333333 C9.05935484,33.3333333 9.79419355,34.0777778 9.79419355,35 L9.79419355,35 C9.79419355,35.9222222 9.05935484,36.6666667 8.14903226,36.6666667 L8.14903226,36.6666667 C7.23870968,36.6666667 6.50387097,35.9222222 6.50387097,35 L6.50387097,35 Z M0,35 C0,34.0777778 0.73483871,33.3333333 1.64516129,33.3333333 L1.64516129,33.3333333 C2.55548387,33.3333333 3.29032258,34.0777778 3.29032258,35 L3.29032258,35 C3.29032258,35.9222222 2.55548387,36.6666667 1.64516129,36.6666667 L1.64516129,36.6666667 C0.73483871,36.6666667 0,35.9222222 0,35 L0,35 Z" id="Shape-Copy"></path>
                    <path d="M58.5436129,41.6666667 C58.5436129,40.7466667 59.2894194,40 60.1887742,40 L60.1887742,40 C61.0990968,40 61.8339355,40.7466667 61.8339355,41.6666667 L61.8339355,41.6666667 C61.8339355,42.5911111 61.0990968,43.3333333 60.1887742,43.3333333 L60.1887742,43.3333333 C59.2894194,43.3333333 58.5436129,42.5911111 58.5436129,41.6666667 L58.5436129,41.6666667 Z M52.0419355,41.6666667 C52.0419355,40.7466667 52.7767742,40 53.6870968,40 L53.6870968,40 C54.5974194,40 55.3322581,40.7466667 55.3322581,41.6666667 L55.3322581,41.6666667 C55.3322581,42.5911111 54.5974194,43.3333333 53.6870968,43.3333333 L53.6870968,43.3333333 C52.7767742,43.3333333 52.0419355,42.5911111 52.0419355,41.6666667 L52.0419355,41.6666667 Z M45.5380645,41.6666667 C45.5380645,40.7466667 46.2729032,40 47.1832258,40 L47.1832258,40 C48.0935484,40 48.8283871,40.7466667 48.8283871,41.6666667 L48.8283871,41.6666667 C48.8283871,42.5911111 48.0935484,43.3333333 47.1832258,43.3333333 L47.1832258,43.3333333 C46.2729032,43.3333333 45.5380645,42.5911111 45.5380645,41.6666667 L45.5380645,41.6666667 Z M39.0341935,41.6666667 C39.0341935,40.7466667 39.7690323,40 40.6793548,40 L40.6793548,40 C41.5896774,40 42.3245161,40.7466667 42.3245161,41.6666667 L42.3245161,41.6666667 C42.3245161,42.5911111 41.5896774,43.3333333 40.6793548,43.3333333 L40.6793548,43.3333333 C39.7690323,43.3333333 39.0341935,42.5911111 39.0341935,41.6666667 L39.0341935,41.6666667 Z M32.5303226,41.6666667 C32.5303226,40.7466667 33.2651613,40 34.1754839,40 L34.1754839,40 C35.0748387,40 35.8206452,40.7466667 35.8206452,41.6666667 L35.8206452,41.6666667 C35.8206452,42.5911111 35.0748387,43.3333333 34.1754839,43.3333333 L34.1754839,43.3333333 C33.2651613,43.3333333 32.5303226,42.5911111 32.5303226,41.6666667 L32.5303226,41.6666667 Z M26.0132903,41.6666667 C26.0132903,40.7466667 26.7590968,40 27.6584516,40 L27.6584516,40 C28.5687742,40 29.3036129,40.7466667 29.3036129,41.6666667 L29.3036129,41.6666667 C29.3036129,42.5911111 28.5687742,43.3333333 27.6584516,43.3333333 L27.6584516,43.3333333 C26.7612903,43.3333333 26.0132903,42.5911111 26.0132903,41.6666667 L26.0132903,41.6666667 Z M19.5094194,41.6666667 C19.5094194,40.7466667 20.2552258,40 21.1545806,40 L21.1545806,40 C22.0649032,40 22.7997419,40.7466667 22.7997419,41.6666667 L22.7997419,41.6666667 C22.7997419,42.5911111 22.0649032,43.3333333 21.1545806,43.3333333 L21.1545806,43.3333333 C20.2552258,43.3333333 19.5094194,42.5911111 19.5094194,41.6666667 L19.5094194,41.6666667 Z M13.0077419,41.6666667 C13.0077419,40.7466667 13.7425806,40 14.6529032,40 L14.6529032,40 C15.5632258,40 16.2980645,40.7466667 16.2980645,41.6666667 L16.2980645,41.6666667 C16.2980645,42.5911111 15.5632258,43.3333333 14.6529032,43.3333333 L14.6529032,43.3333333 C13.7425806,43.3333333 13.0077419,42.5911111 13.0077419,41.6666667 L13.0077419,41.6666667 Z M6.50387097,41.6666667 C6.50387097,40.7466667 7.23870968,40 8.14903226,40 L8.14903226,40 C9.05935484,40 9.79419355,40.7466667 9.79419355,41.6666667 L9.79419355,41.6666667 C9.79419355,42.5911111 9.05935484,43.3333333 8.14903226,43.3333333 L8.14903226,43.3333333 C7.23870968,43.3333333 6.50387097,42.5911111 6.50387097,41.6666667 L6.50387097,41.6666667 Z M0,41.6666667 C0,40.7466667 0.73483871,40 1.64516129,40 L1.64516129,40 C2.54451613,40 3.29032258,40.7466667 3.29032258,41.6666667 L3.29032258,41.6666667 C3.29032258,42.5911111 2.54451613,43.3333333 1.64516129,43.3333333 L1.64516129,43.3333333 C0.73483871,43.3333333 0,42.5911111 0,41.6666667 L0,41.6666667 Z" id="Shape-Copy-2"></path>
                    <path d="M58.5545806,23.8888889 C58.5545806,22.9666667 59.2894194,22.2222222 60.1997419,22.2222222 L60.1997419,22.2222222 C61.0990968,22.2222222 61.8449032,22.9666667 61.8449032,23.8888889 L61.8449032,23.8888889 C61.8449032,24.8111111 61.0990968,25.5555556 60.1997419,25.5555556 L60.1997419,25.5555556 C59.2894194,25.5555556 58.5545806,24.8111111 58.5545806,23.8888889 L58.5545806,23.8888889 Z M52.0419355,23.8888889 C52.0419355,22.9666667 52.7767742,22.2222222 53.6870968,22.2222222 L53.6870968,22.2222222 C54.5974194,22.2222222 55.3322581,22.9666667 55.3322581,23.8888889 L55.3322581,23.8888889 C55.3322581,24.8111111 54.5974194,25.5555556 53.6870968,25.5555556 L53.6870968,25.5555556 C52.7767742,25.5555556 52.0419355,24.8111111 52.0419355,23.8888889 L52.0419355,23.8888889 Z M45.5380645,23.8888889 C45.5380645,22.9666667 46.2729032,22.2222222 47.1832258,22.2222222 L47.1832258,22.2222222 C48.0935484,22.2222222 48.8283871,22.9666667 48.8283871,23.8888889 L48.8283871,23.8888889 C48.8283871,24.8111111 48.0935484,25.5555556 47.1832258,25.5555556 L47.1832258,25.5555556 C46.2729032,25.5555556 45.5380645,24.8111111 45.5380645,23.8888889 L45.5380645,23.8888889 Z M39.0341935,23.8888889 C39.0341935,22.9666667 39.7690323,22.2222222 40.6793548,22.2222222 L40.6793548,22.2222222 C41.5896774,22.2222222 42.3245161,22.9666667 42.3245161,23.8888889 L42.3245161,23.8888889 C42.3245161,24.8111111 41.5896774,25.5555556 40.6793548,25.5555556 L40.6793548,25.5555556 C39.7690323,25.5555556 39.0341935,24.8111111 39.0341935,23.8888889 L39.0341935,23.8888889 Z M32.5303226,23.8888889 C32.5303226,22.9666667 33.2651613,22.2222222 34.1754839,22.2222222 L34.1754839,22.2222222 C35.0858065,22.2222222 35.8206452,22.9666667 35.8206452,23.8888889 L35.8206452,23.8888889 C35.8206452,24.8111111 35.0858065,25.5555556 34.1754839,25.5555556 L34.1754839,25.5555556 C33.2651613,25.5555556 32.5303226,24.8111111 32.5303226,23.8888889 L32.5303226,23.8888889 Z M26.0264516,23.8888889 C26.0264516,22.9666667 26.7612903,22.2222222 27.6716129,22.2222222 L27.6716129,22.2222222 C28.5709677,22.2222222 29.3167742,22.9666667 29.3167742,23.8888889 L29.3167742,23.8888889 C29.3167742,24.8111111 28.5709677,25.5555556 27.6716129,25.5555556 L27.6716129,25.5555556 C26.7612903,25.5555556 26.0264516,24.8111111 26.0264516,23.8888889 L26.0264516,23.8888889 Z M19.5094194,23.8888889 C19.5094194,22.9666667 20.2442581,22.2222222 21.1545806,22.2222222 L21.1545806,22.2222222 C22.0649032,22.2222222 22.7997419,22.9666667 22.7997419,23.8888889 L22.7997419,23.8888889 C22.7997419,24.8111111 22.0649032,25.5555556 21.1545806,25.5555556 L21.1545806,25.5555556 C20.2442581,25.5555556 19.5094194,24.8111111 19.5094194,23.8888889 L19.5094194,23.8888889 Z M13.0077419,23.8888889 C13.0077419,22.9666667 13.7425806,22.2222222 14.6529032,22.2222222 L14.6529032,22.2222222 C15.5632258,22.2222222 16.2980645,22.9666667 16.2980645,23.8888889 L16.2980645,23.8888889 C16.2980645,24.8111111 15.5632258,25.5555556 14.6529032,25.5555556 L14.6529032,25.5555556 C13.7425806,25.5555556 13.0077419,24.8111111 13.0077419,23.8888889 L13.0077419,23.8888889 Z M6.50387097,23.8888889 C6.50387097,22.9666667 7.23870968,22.2222222 8.14903226,22.2222222 L8.14903226,22.2222222 C9.05935484,22.2222222 9.79419355,22.9666667 9.79419355,23.8888889 L9.79419355,23.8888889 C9.79419355,24.8111111 9.05935484,25.5555556 8.14903226,25.5555556 L8.14903226,25.5555556 C7.23870968,25.5555556 6.50387097,24.8111111 6.50387097,23.8888889 L6.50387097,23.8888889 Z M0,23.8888889 C0,22.9666667 0.73483871,22.2222222 1.64516129,22.2222222 L1.64516129,22.2222222 C2.54451613,22.2222222 3.29032258,22.9666667 3.29032258,23.8888889 L3.29032258,23.8888889 C3.29032258,24.8111111 2.54451613,25.5555556 1.64516129,25.5555556 L1.64516129,25.5555556 C0.73483871,25.5555556 0,24.8111111 0,23.8888889 L0,23.8888889 Z" id="Shape-Copy-3"></path>
                    <path d="M58.5545806,30.5555556 C58.5545806,29.6333333 59.2894194,28.8888889 60.1997419,28.8888889 L60.1997419,28.8888889 C61.0990968,28.8888889 61.8449032,29.6333333 61.8449032,30.5555556 L61.8449032,30.5555556 C61.8449032,31.4777778 61.0990968,32.2222222 60.1997419,32.2222222 L60.1997419,32.2222222 C59.2894194,32.2222222 58.5545806,31.4777778 58.5545806,30.5555556 L58.5545806,30.5555556 Z M52.0419355,30.5555556 C52.0419355,29.6333333 52.7877419,28.8888889 53.6870968,28.8888889 L53.6870968,28.8888889 C54.5974194,28.8888889 55.3322581,29.6333333 55.3322581,30.5555556 L55.3322581,30.5555556 C55.3322581,31.4777778 54.5974194,32.2222222 53.6870968,32.2222222 L53.6870968,32.2222222 C52.7855484,32.2222222 52.0419355,31.4777778 52.0419355,30.5555556 L52.0419355,30.5555556 Z M45.5380645,30.5555556 C45.5380645,29.6333333 46.2729032,28.8888889 47.1832258,28.8888889 L47.1832258,28.8888889 C48.0935484,28.8888889 48.8283871,29.6333333 48.8283871,30.5555556 L48.8283871,30.5555556 C48.8283871,31.4777778 48.0935484,32.2222222 47.1832258,32.2222222 L47.1832258,32.2222222 C46.2729032,32.2222222 45.5380645,31.4777778 45.5380645,30.5555556 L45.5380645,30.5555556 Z M39.0341935,30.5555556 C39.0341935,29.6333333 39.7690323,28.8888889 40.6793548,28.8888889 L40.6793548,28.8888889 C41.5896774,28.8888889 42.3245161,29.6333333 42.3245161,30.5555556 L42.3245161,30.5555556 C42.3245161,31.4777778 41.5896774,32.2222222 40.6793548,32.2222222 L40.6793548,32.2222222 C39.7690323,32.2222222 39.0341935,31.4777778 39.0341935,30.5555556 L39.0341935,30.5555556 Z M32.5303226,30.5555556 C32.5303226,29.6333333 33.2651613,28.8888889 34.1754839,28.8888889 L34.1754839,28.8888889 C35.0858065,28.8888889 35.8206452,29.6333333 35.8206452,30.5555556 L35.8206452,30.5555556 C35.8206452,31.4777778 35.0858065,32.2222222 34.1754839,32.2222222 L34.1754839,32.2222222 C33.2651613,32.2222222 32.5303226,31.4777778 32.5303226,30.5555556 L32.5303226,30.5555556 Z M26.0264516,30.5555556 C26.0264516,29.6333333 26.7612903,28.8888889 27.6716129,28.8888889 L27.6716129,28.8888889 C28.5709677,28.8888889 29.3167742,29.6333333 29.3167742,30.5555556 L29.3167742,30.5555556 C29.3167742,31.4777778 28.5709677,32.2222222 27.6716129,32.2222222 L27.6716129,32.2222222 C26.7612903,32.2222222 26.0264516,31.4777778 26.0264516,30.5555556 L26.0264516,30.5555556 Z M19.5094194,30.5555556 C19.5094194,29.6333333 20.2442581,28.8888889 21.1545806,28.8888889 L21.1545806,28.8888889 C22.0649032,28.8888889 22.7997419,29.6333333 22.7997419,30.5555556 L22.7997419,30.5555556 C22.7997419,31.4777778 22.0649032,32.2222222 21.1545806,32.2222222 L21.1545806,32.2222222 C20.2442581,32.2222222 19.5094194,31.4777778 19.5094194,30.5555556 L19.5094194,30.5555556 Z M13.0077419,30.5555556 C13.0077419,29.6333333 13.7425806,28.8888889 14.6529032,28.8888889 L14.6529032,28.8888889 C15.5632258,28.8888889 16.2980645,29.6333333 16.2980645,30.5555556 L16.2980645,30.5555556 C16.2980645,31.4777778 15.5632258,32.2222222 14.6529032,32.2222222 L14.6529032,32.2222222 C13.7425806,32.2222222 13.0077419,31.4777778 13.0077419,30.5555556 L13.0077419,30.5555556 Z M6.50387097,30.5555556 C6.50387097,29.6333333 7.23870968,28.8888889 8.14903226,28.8888889 L8.14903226,28.8888889 C9.05935484,28.8888889 9.79419355,29.6333333 9.79419355,30.5555556 L9.79419355,30.5555556 C9.79419355,31.4777778 9.05935484,32.2222222 8.14903226,32.2222222 L8.14903226,32.2222222 C7.23870968,32.2222222 6.50387097,31.4777778 6.50387097,30.5555556 L6.50387097,30.5555556 Z M0,30.5555556 C0,29.6333333 0.73483871,28.8888889 1.64516129,28.8888889 L1.64516129,28.8888889 C2.54451613,28.8888889 3.29032258,29.6333333 3.29032258,30.5555556 L3.29032258,30.5555556 C3.29032258,31.4777778 2.54451613,32.2222222 1.64516129,32.2222222 L1.64516129,32.2222222 C0.73483871,32.2222222 0,31.4777778 0,30.5555556 L0,30.5555556 Z" id="Shape-Copy-4"></path>
                    <path d="M58.5545806,12.7777778 C58.5545806,11.8555556 59.2894194,11.1111111 60.1997419,11.1111111 L60.1997419,11.1111111 C61.0990968,11.1111111 61.8449032,11.8555556 61.8449032,12.7777778 L61.8449032,12.7777778 C61.8449032,13.7 61.0990968,14.4444444 60.1997419,14.4444444 L60.1997419,14.4444444 C59.2894194,14.4444444 58.5545806,13.7 58.5545806,12.7777778 L58.5545806,12.7777778 Z M52.0419355,12.7777778 C52.0419355,11.8555556 52.7767742,11.1111111 53.6870968,11.1111111 L53.6870968,11.1111111 C54.5974194,11.1111111 55.3322581,11.8555556 55.3322581,12.7777778 L55.3322581,12.7777778 C55.3322581,13.7 54.5974194,14.4444444 53.6870968,14.4444444 L53.6870968,14.4444444 C52.7767742,14.4444444 52.0419355,13.7 52.0419355,12.7777778 L52.0419355,12.7777778 Z M45.5380645,12.7777778 C45.5380645,11.8555556 46.2729032,11.1111111 47.1832258,11.1111111 L47.1832258,11.1111111 C48.0935484,11.1111111 48.8283871,11.8555556 48.8283871,12.7777778 L48.8283871,12.7777778 C48.8283871,13.7 48.0935484,14.4444444 47.1832258,14.4444444 L47.1832258,14.4444444 C46.2729032,14.4444444 45.5380645,13.7 45.5380645,12.7777778 L45.5380645,12.7777778 Z M39.0341935,12.7777778 C39.0341935,11.8555556 39.7690323,11.1111111 40.6793548,11.1111111 L40.6793548,11.1111111 C41.5896774,11.1111111 42.3245161,11.8555556 42.3245161,12.7777778 L42.3245161,12.7777778 C42.3245161,13.7 41.5896774,14.4444444 40.6793548,14.4444444 L40.6793548,14.4444444 C39.7690323,14.4444444 39.0341935,13.7 39.0341935,12.7777778 L39.0341935,12.7777778 Z M32.5303226,12.7777778 C32.5303226,11.8555556 33.2651613,11.1111111 34.1754839,11.1111111 L34.1754839,11.1111111 C35.0858065,11.1111111 35.8206452,11.8555556 35.8206452,12.7777778 L35.8206452,12.7777778 C35.8206452,13.7 35.0858065,14.4444444 34.1754839,14.4444444 L34.1754839,14.4444444 C33.2651613,14.4444444 32.5303226,13.7 32.5303226,12.7777778 L32.5303226,12.7777778 Z M26.0264516,12.7777778 C26.0264516,11.8555556 26.7612903,11.1111111 27.6716129,11.1111111 L27.6716129,11.1111111 C28.5709677,11.1111111 29.3167742,11.8555556 29.3167742,12.7777778 L29.3167742,12.7777778 C29.3167742,13.7 28.5709677,14.4444444 27.6716129,14.4444444 L27.6716129,14.4444444 C26.7612903,14.4444444 26.0264516,13.7 26.0264516,12.7777778 L26.0264516,12.7777778 Z M19.5094194,12.7777778 C19.5094194,11.8555556 20.2442581,11.1111111 21.1545806,11.1111111 L21.1545806,11.1111111 C22.0649032,11.1111111 22.7997419,11.8555556 22.7997419,12.7777778 L22.7997419,12.7777778 C22.7997419,13.7 22.0649032,14.4444444 21.1545806,14.4444444 L21.1545806,14.4444444 C20.2442581,14.4444444 19.5094194,13.7 19.5094194,12.7777778 L19.5094194,12.7777778 Z M13.0077419,12.7777778 C13.0077419,11.8555556 13.7425806,11.1111111 14.6529032,11.1111111 L14.6529032,11.1111111 C15.5632258,11.1111111 16.2980645,11.8555556 16.2980645,12.7777778 L16.2980645,12.7777778 C16.2980645,13.7 15.5632258,14.4444444 14.6529032,14.4444444 L14.6529032,14.4444444 C13.7425806,14.4444444 13.0077419,13.7 13.0077419,12.7777778 L13.0077419,12.7777778 Z M6.50387097,12.7777778 C6.50387097,11.8555556 7.23870968,11.1111111 8.14903226,11.1111111 L8.14903226,11.1111111 C9.05935484,11.1111111 9.79419355,11.8555556 9.79419355,12.7777778 L9.79419355,12.7777778 C9.79419355,13.7 9.05935484,14.4444444 8.14903226,14.4444444 L8.14903226,14.4444444 C7.23870968,14.4444444 6.50387097,13.7 6.50387097,12.7777778 L6.50387097,12.7777778 Z M0,12.7777778 C0,11.8555556 0.73483871,11.1111111 1.64516129,11.1111111 L1.64516129,11.1111111 C2.54451613,11.1111111 3.29032258,11.8555556 3.29032258,12.7777778 L3.29032258,12.7777778 C3.29032258,13.7 2.54451613,14.4444444 1.64516129,14.4444444 L1.64516129,14.4444444 C0.73483871,14.4444444 0,13.7 0,12.7777778 L0,12.7777778 Z" id="Shape-Copy-5"></path>
                    <path d="M58.5545806,19.4444444 C58.5545806,18.5222222 59.2894194,17.7777778 60.1997419,17.7777778 L60.1997419,17.7777778 C61.0990968,17.7777778 61.8449032,18.5222222 61.8449032,19.4444444 L61.8449032,19.4444444 C61.8449032,20.3666667 61.0990968,21.1111111 60.1997419,21.1111111 L60.1997419,21.1111111 C59.2894194,21.1111111 58.5545806,20.3666667 58.5545806,19.4444444 L58.5545806,19.4444444 Z M52.0419355,19.4444444 C52.0419355,18.5222222 52.7767742,17.7777778 53.6870968,17.7777778 L53.6870968,17.7777778 C54.5974194,17.7777778 55.3322581,18.5222222 55.3322581,19.4444444 L55.3322581,19.4444444 C55.3322581,20.3666667 54.5974194,21.1111111 53.6870968,21.1111111 L53.6870968,21.1111111 C52.7767742,21.1111111 52.0419355,20.3666667 52.0419355,19.4444444 L52.0419355,19.4444444 Z M45.5380645,19.4444444 C45.5380645,18.5222222 46.2729032,17.7777778 47.1832258,17.7777778 L47.1832258,17.7777778 C48.0935484,17.7777778 48.8283871,18.5222222 48.8283871,19.4444444 L48.8283871,19.4444444 C48.8283871,20.3666667 48.0935484,21.1111111 47.1832258,21.1111111 L47.1832258,21.1111111 C46.2729032,21.1111111 45.5380645,20.3666667 45.5380645,19.4444444 L45.5380645,19.4444444 Z M39.0341935,19.4444444 C39.0341935,18.5222222 39.7690323,17.7777778 40.6793548,17.7777778 L40.6793548,17.7777778 C41.5896774,17.7777778 42.3245161,18.5222222 42.3245161,19.4444444 L42.3245161,19.4444444 C42.3245161,20.3666667 41.5896774,21.1111111 40.6793548,21.1111111 L40.6793548,21.1111111 C39.7690323,21.1111111 39.0341935,20.3666667 39.0341935,19.4444444 L39.0341935,19.4444444 Z M32.5303226,19.4444444 C32.5303226,18.5222222 33.2651613,17.7777778 34.1754839,17.7777778 L34.1754839,17.7777778 C35.0858065,17.7777778 35.8206452,18.5222222 35.8206452,19.4444444 L35.8206452,19.4444444 C35.8206452,20.3666667 35.0858065,21.1111111 34.1754839,21.1111111 L34.1754839,21.1111111 C33.2651613,21.1111111 32.5303226,20.3666667 32.5303226,19.4444444 L32.5303226,19.4444444 Z M26.0264516,19.4444444 C26.0264516,18.5222222 26.7612903,17.7777778 27.6716129,17.7777778 L27.6716129,17.7777778 C28.5709677,17.7777778 29.3167742,18.5222222 29.3167742,19.4444444 L29.3167742,19.4444444 C29.3167742,20.3666667 28.5709677,21.1111111 27.6716129,21.1111111 L27.6716129,21.1111111 C26.7612903,21.1111111 26.0264516,20.3666667 26.0264516,19.4444444 L26.0264516,19.4444444 Z M19.5094194,19.4444444 C19.5094194,18.5222222 20.2442581,17.7777778 21.1545806,17.7777778 L21.1545806,17.7777778 C22.0649032,17.7777778 22.7997419,18.5222222 22.7997419,19.4444444 L22.7997419,19.4444444 C22.7997419,20.3666667 22.0649032,21.1111111 21.1545806,21.1111111 L21.1545806,21.1111111 C20.2442581,21.1111111 19.5094194,20.3666667 19.5094194,19.4444444 L19.5094194,19.4444444 Z M13.0077419,19.4444444 C13.0077419,18.5222222 13.7425806,17.7777778 14.6529032,17.7777778 L14.6529032,17.7777778 C15.5632258,17.7777778 16.2980645,18.5222222 16.2980645,19.4444444 L16.2980645,19.4444444 C16.2980645,20.3666667 15.5632258,21.1111111 14.6529032,21.1111111 L14.6529032,21.1111111 C13.7425806,21.1111111 13.0077419,20.3666667 13.0077419,19.4444444 L13.0077419,19.4444444 Z M6.50387097,19.4444444 C6.50387097,18.5222222 7.23870968,17.7777778 8.14903226,17.7777778 L8.14903226,17.7777778 C9.05935484,17.7777778 9.79419355,18.5222222 9.79419355,19.4444444 L9.79419355,19.4444444 C9.79419355,20.3666667 9.05935484,21.1111111 8.14903226,21.1111111 L8.14903226,21.1111111 C7.23870968,21.1111111 6.50387097,20.3666667 6.50387097,19.4444444 L6.50387097,19.4444444 Z M0,19.4444444 C0,18.5222222 0.73483871,17.7777778 1.64516129,17.7777778 L1.64516129,17.7777778 C2.54451613,17.7777778 3.29032258,18.5222222 3.29032258,19.4444444 L3.29032258,19.4444444 C3.29032258,20.3666667 2.54451613,21.1111111 1.64516129,21.1111111 L1.64516129,21.1111111 C0.73483871,21.1111111 0,20.3666667 0,19.4444444 L0,19.4444444 Z" id="Shape-Copy-6"></path>
                    <path d="M58.5545806,1.66666667 C58.5545806,0.744444444 59.2894194,0 60.1997419,0 L60.1997419,0 C61.0990968,0 61.8449032,0.744444444 61.8449032,1.66666667 L61.8449032,1.66666667 C61.8449032,2.58888889 61.0990968,3.33333333 60.1997419,3.33333333 L60.1997419,3.33333333 C59.2894194,3.33333333 58.5545806,2.58888889 58.5545806,1.66666667 L58.5545806,1.66666667 Z M52.0419355,1.66666667 C52.0419355,0.744444444 52.7767742,0 53.6870968,0 L53.6870968,0 C54.5974194,0 55.3322581,0.744444444 55.3322581,1.66666667 L55.3322581,1.66666667 C55.3322581,2.58888889 54.5974194,3.33333333 53.6870968,3.33333333 L53.6870968,3.33333333 C52.7767742,3.33333333 52.0419355,2.58888889 52.0419355,1.66666667 L52.0419355,1.66666667 Z M45.5380645,1.66666667 C45.5380645,0.744444444 46.2729032,0 47.1832258,0 L47.1832258,0 C48.0935484,0 48.8283871,0.744444444 48.8283871,1.66666667 L48.8283871,1.66666667 C48.8283871,2.58888889 48.0935484,3.33333333 47.1832258,3.33333333 L47.1832258,3.33333333 C46.2729032,3.33333333 45.5380645,2.58888889 45.5380645,1.66666667 L45.5380645,1.66666667 Z M39.0341935,1.66666667 C39.0341935,0.744444444 39.7690323,0 40.6793548,0 L40.6793548,0 C41.5896774,0 42.3245161,0.744444444 42.3245161,1.66666667 L42.3245161,1.66666667 C42.3245161,2.58888889 41.5896774,3.33333333 40.6793548,3.33333333 L40.6793548,3.33333333 C39.7690323,3.33333333 39.0341935,2.58888889 39.0341935,1.66666667 L39.0341935,1.66666667 Z M32.5303226,1.66666667 C32.5303226,0.744444444 33.2651613,0 34.1754839,0 L34.1754839,0 C35.0858065,0 35.8206452,0.744444444 35.8206452,1.66666667 L35.8206452,1.66666667 C35.8206452,2.58888889 35.0858065,3.33333333 34.1754839,3.33333333 L34.1754839,3.33333333 C33.2651613,3.33333333 32.5303226,2.58888889 32.5303226,1.66666667 L32.5303226,1.66666667 Z M26.0264516,1.66666667 C26.0264516,0.744444444 26.7612903,0 27.6716129,0 L27.6716129,0 C28.5709677,0 29.3167742,0.744444444 29.3167742,1.66666667 L29.3167742,1.66666667 C29.3167742,2.58888889 28.5709677,3.33333333 27.6716129,3.33333333 L27.6716129,3.33333333 C26.7612903,3.33333333 26.0264516,2.58888889 26.0264516,1.66666667 L26.0264516,1.66666667 Z M19.5094194,1.66666667 C19.5094194,0.744444444 20.2442581,0 21.1545806,0 L21.1545806,0 C22.0649032,0 22.7997419,0.744444444 22.7997419,1.66666667 L22.7997419,1.66666667 C22.7997419,2.58888889 22.0649032,3.33333333 21.1545806,3.33333333 L21.1545806,3.33333333 C20.2442581,3.33333333 19.5094194,2.58888889 19.5094194,1.66666667 L19.5094194,1.66666667 Z M13.0077419,1.66666667 C13.0077419,0.744444444 13.7425806,0 14.6529032,0 L14.6529032,0 C15.5632258,0 16.2980645,0.744444444 16.2980645,1.66666667 L16.2980645,1.66666667 C16.2980645,2.58888889 15.5632258,3.33333333 14.6529032,3.33333333 L14.6529032,3.33333333 C13.7425806,3.33333333 13.0077419,2.58888889 13.0077419,1.66666667 L13.0077419,1.66666667 Z M6.50387097,1.66666667 C6.50387097,0.744444444 7.23870968,0 8.14903226,0 L8.14903226,0 C9.05935484,0 9.79419355,0.744444444 9.79419355,1.66666667 L9.79419355,1.66666667 C9.79419355,2.58888889 9.05935484,3.33333333 8.14903226,3.33333333 L8.14903226,3.33333333 C7.23870968,3.33333333 6.50387097,2.58888889 6.50387097,1.66666667 L6.50387097,1.66666667 Z M0,1.66666667 C0,0.744444444 0.73483871,0 1.64516129,0 L1.64516129,0 C2.54451613,0 3.29032258,0.744444444 3.29032258,1.66666667 L3.29032258,1.66666667 C3.29032258,2.58888889 2.54451613,3.33333333 1.64516129,3.33333333 L1.64516129,3.33333333 C0.73483871,3.33333333 0,2.58888889 0,1.66666667 L0,1.66666667 Z" id="Shape-Copy-7"></path>
                    <path d="M58.5545806,8.33333333 C58.5545806,7.41111111 59.2894194,6.66666667 60.1997419,6.66666667 L60.1997419,6.66666667 C61.0990968,6.66666667 61.8449032,7.41111111 61.8449032,8.33333333 L61.8449032,8.33333333 C61.8449032,9.25555556 61.0990968,10 60.1997419,10 L60.1997419,10 C59.2894194,10 58.5545806,9.25555556 58.5545806,8.33333333 L58.5545806,8.33333333 Z M52.0419355,8.33333333 C52.0419355,7.41111111 52.7767742,6.66666667 53.6870968,6.66666667 L53.6870968,6.66666667 C54.5974194,6.66666667 55.3322581,7.41111111 55.3322581,8.33333333 L55.3322581,8.33333333 C55.3322581,9.25555556 54.5974194,10 53.6870968,10 L53.6870968,10 C52.7767742,10 52.0419355,9.25555556 52.0419355,8.33333333 L52.0419355,8.33333333 Z M45.5380645,8.33333333 C45.5380645,7.41111111 46.2729032,6.66666667 47.1832258,6.66666667 L47.1832258,6.66666667 C48.0935484,6.66666667 48.8283871,7.41111111 48.8283871,8.33333333 L48.8283871,8.33333333 C48.8283871,9.25555556 48.0935484,10 47.1832258,10 L47.1832258,10 C46.2729032,10 45.5380645,9.25555556 45.5380645,8.33333333 L45.5380645,8.33333333 Z M39.0341935,8.33333333 C39.0341935,7.41111111 39.7690323,6.66666667 40.6793548,6.66666667 L40.6793548,6.66666667 C41.5896774,6.66666667 42.3245161,7.41111111 42.3245161,8.33333333 L42.3245161,8.33333333 C42.3245161,9.25555556 41.5896774,10 40.6793548,10 L40.6793548,10 C39.7690323,10 39.0341935,9.25555556 39.0341935,8.33333333 L39.0341935,8.33333333 Z M32.5303226,8.33333333 C32.5303226,7.41111111 33.2651613,6.66666667 34.1754839,6.66666667 L34.1754839,6.66666667 C35.0858065,6.66666667 35.8206452,7.41111111 35.8206452,8.33333333 L35.8206452,8.33333333 C35.8206452,9.25555556 35.0858065,10 34.1754839,10 L34.1754839,10 C33.2651613,10 32.5303226,9.25555556 32.5303226,8.33333333 L32.5303226,8.33333333 Z M26.0264516,8.33333333 C26.0264516,7.41111111 26.7612903,6.66666667 27.6716129,6.66666667 L27.6716129,6.66666667 C28.5709677,6.66666667 29.3167742,7.41111111 29.3167742,8.33333333 L29.3167742,8.33333333 C29.3167742,9.25555556 28.5709677,10 27.6716129,10 L27.6716129,10 C26.7612903,10 26.0264516,9.25555556 26.0264516,8.33333333 L26.0264516,8.33333333 Z M19.5094194,8.33333333 C19.5094194,7.41111111 20.2442581,6.66666667 21.1545806,6.66666667 L21.1545806,6.66666667 C22.0649032,6.66666667 22.7997419,7.41111111 22.7997419,8.33333333 L22.7997419,8.33333333 C22.7997419,9.25555556 22.0649032,10 21.1545806,10 L21.1545806,10 C20.2442581,10 19.5094194,9.25555556 19.5094194,8.33333333 L19.5094194,8.33333333 Z M13.0077419,8.33333333 C13.0077419,7.41111111 13.7425806,6.66666667 14.6529032,6.66666667 L14.6529032,6.66666667 C15.5632258,6.66666667 16.2980645,7.41111111 16.2980645,8.33333333 L16.2980645,8.33333333 C16.2980645,9.25555556 15.5632258,10 14.6529032,10 L14.6529032,10 C13.7425806,10 13.0077419,9.25555556 13.0077419,8.33333333 L13.0077419,8.33333333 Z M6.50387097,8.33333333 C6.50387097,7.41111111 7.23870968,6.66666667 8.14903226,6.66666667 L8.14903226,6.66666667 C9.05935484,6.66666667 9.79419355,7.41111111 9.79419355,8.33333333 L9.79419355,8.33333333 C9.79419355,9.25555556 9.05935484,10 8.14903226,10 L8.14903226,10 C7.23870968,10 6.50387097,9.25555556 6.50387097,8.33333333 L6.50387097,8.33333333 Z M0,8.33333333 C0,7.41111111 0.73483871,6.66666667 1.64516129,6.66666667 L1.64516129,6.66666667 C2.54451613,6.66666667 3.29032258,7.41111111 3.29032258,8.33333333 L3.29032258,8.33333333 C3.29032258,9.25555556 2.54451613,10 1.64516129,10 L1.64516129,10 C0.73483871,10 0,9.25555556 0,8.33333333 L0,8.33333333 Z" id="Shape-Copy-9"></path>
                    <path d="M52.6451613,27.7777778 C52.6451613,18.5730319 45.2795233,11.1111111 36.1935484,11.1111111 C27.1075735,11.1111111 19.7419355,18.5730319 19.7419355,27.7777778 C19.7419355,36.9825236 27.1075735,44.4444444 36.1935484,44.4444444 C45.2795233,44.4444444 52.6451613,36.9825236 52.6451613,27.7777778 Z M15.3548387,27.7777778 C15.3548387,16.1184331 24.6846468,6.66666667 36.1935484,6.66666667 C47.7024499,6.66666667 57.0322581,16.1184331 57.0322581,27.7777778 C57.0322581,39.4371225 47.7024499,48.8888889 36.1935484,48.8888889 C24.6846468,48.8888889 15.3548387,39.4371225 15.3548387,27.7777778 Z" id="Oval-3"></path>
                    <rect id="Rectangle-3" transform="translate(57.032258, 48.888889) rotate(-45.000000) translate(-57.032258, -48.888889) " x="54.8387097" y="35.5555556" width="4.38709677" height="26.6666667" rx="2.19354839"></rect>
                </g>
            </g>
        </g>
    </g>
</svg>