<?xml version="1.0" encoding="UTF-8" standalone="no"?>
<svg width="100px" height="40px" viewBox="0 0 100 40" version="1.1" xmlns="http://www.w3.org/2000/svg" xmlns:xlink="http://www.w3.org/1999/xlink">
    <!-- Generator: Sketch 40.1 (33804) - http://www.bohemiancoding.com/sketch -->
    <title>gudong</title>
    <desc>Created with Sketch.</desc>
    <defs></defs>
    <g id="Page-1" stroke="none" stroke-width="1" fill="none" fill-rule="evenodd">
        <g id="forword" transform="translate(-1249.000000, -1486.000000)" fill="#FFFFFF">
            <g id="Group-6" transform="translate(0.000000, 1381.000000)">
                <g id="Group-7">
                    <g id="gudong" transform="translate(1249.000000, 105.000000)">
                        <path d="M22.2389164,0.200187967 C25.5491646,0.75304476 28.9198404,2.44075596 30.6963803,4.24964798 C39.9492394,13.6710086 40.1082619,28.7183714 28.9198404,35.57234 C21.6703607,40.0140667 13.813739,41.0299978 5.57361775,38.9965508 C5.24209146,38.9149276 4.94521401,38.6859072 4.53730281,38.4766984 C6.04452682,37.3704271 7.80531724,36.9401224 9.18182067,35.487547 C4.2656245,32.334357 1.0590417,25.5741361 0.432204195,22.1449329 C-0.194633314,18.7157297 -1.92021022,6.22418657 11.328473,1.35955392 C12.8614227,0.796687631 17.7607985,-0.494307151 22.2389164,0.200187967 Z M10.7159763,11.3446031 C10.3663381,13.0848407 10.2560918,14.7442476 11.7948148,15.9297646 C13.4311844,17.1905652 15.1604759,16.667543 16.6598252,15.6539893 C19.4655927,13.7584299 22.4430295,12.3557794 25.8008159,11.8517761 C26.6205757,11.7289452 27.4592348,11.600567 28.279782,11.6489069 C28.9948078,11.6909072 30.1775928,11.1155827 30.2429531,12.4540442 C30.3051635,13.7211844 29.5035156,14.3527734 28.2018222,14.3353393 C27.4482102,14.3250373 26.6796362,14.3622828 25.9409862,14.5025479 C20.7995726,15.4764787 17.6536166,18.9561615 17.6929902,23.5809459 C17.7307889,28.1455036 20.7247626,31.3589205 25.8905879,32.3796063 C21.3634035,34.4138458 14.921084,32.3621722 11.4333645,28.8476213 C7.09753619,24.4772158 5.7021334,17.8863433 7.97399404,12.1806462 C9.55445307,8.21280932 12.3515584,5.35362112 15.2526103,5.31399822 C12.853179,7.07642466 11.2294089,8.79130361 10.7159763,11.3446031 Z M14.2167678,10.1834937 C15.7869897,10.2159845 16.6232864,11.2398401 16.5839127,12.6781513 C16.5445391,14.1299342 15.5586224,15.1379407 14.0750226,15.0824686 C12.6237092,15.027789 11.7551261,14.0998208 11.7330769,12.4530932 C11.8622225,11.0021027 12.67332,10.1517954 14.2167678,10.1834937 Z M88.4905462,9.65318085 C88.7401753,9.14363041 88.8000232,8.34483281 89.6560068,8.55483417 C90.4308806,8.74423161 91.1199197,9.12778125 90.8057179,10.13975 C90.5088404,11.0978317 91.0734588,11.1120959 91.7443861,11.1057562 C93.3319324,11.091492 94.9202662,11.0788127 96.507025,11.1081336 C98.5851672,11.1461716 99.2316828,12.2080652 98.145757,14.00219 C97.4449058,15.1591785 96.5983719,16.2884311 95.5990682,17.184701 C94.2879251,18.3607086 94.8619931,18.8599571 96.0691898,19.3386017 C96.9094239,19.671434 97.7677698,19.962266 98.5969793,20.3212495 C99.1592353,20.5637416 100.400293,20.2364565 99.8718986,21.5210308 C99.5112358,22.3990742 99.0600136,23.4688924 97.7110718,22.7992654 C96.35898,22.128846 94.9517651,21.5463894 93.6823581,20.7428371 C92.7909382,20.1778146 92.1601721,20.1302671 91.2782019,20.7388748 C89.8434254,21.7286548 88.2086307,22.3483569 86.5730486,22.9522098 C85.64383,23.2953441 84.8862806,22.9736062 84.0247848,22.3214133 C84.0247848,23.8603666 83.9483999,25.1568278 84.0436842,26.4398171 C84.1649551,28.0706956 83.4341798,28.6523597 81.9080564,28.5406231 C81.1560194,28.4859435 80.396895,28.5239815 79.6417081,28.5271513 C78.4250617,28.5319061 77.8234321,27.9034869 77.8218572,26.7029132 C77.8139824,22.139148 77.8155574,17.5745903 77.8194947,13.0108251 C77.8202822,11.8102513 78.3841131,11.1636057 79.6251711,11.204021 C80.0023709,11.2167003 80.3811456,11.2032286 80.7591328,11.2024361 C84.003523,11.1905492 83.9987982,11.1905492 84.0295096,14.3817773 C84.0350219,14.9872152 84.0988073,15.5918606 84.1358185,16.1972984 C84.2728389,16.6283955 84.2752013,17.0935683 84.4618325,17.5111937 C84.8091083,18.2838401 84.1287313,19.6349809 85.3075789,19.8402275 C86.5667488,20.0589459 87.7849701,19.3718849 88.8882203,18.7157297 C89.3457423,18.4431242 89.3425924,17.9636871 89.059102,17.5254579 C88.7449001,17.0404737 88.3102148,16.7860947 87.7188223,16.9437938 C87.1392419,17.0983231 86.6407713,17.5397222 86.0257546,17.5302127 C85.1642587,17.5175333 84.048409,17.7267422 84.4287586,16.186204 C86.2470346,14.3009466 87.3557971,11.9695354 88.4905462,9.65318085 Z M80.0193016,14.8654144 C80.0177266,14.1387305 80.0531629,13.4635563 81.0571914,13.4968395 C81.8730138,13.5245756 82.0572826,14.0594847 82.059645,14.722772 C82.0690947,18.2190963 82.0659448,21.7154207 82.0683072,25.2125376 C82.0683072,25.9281271 81.8021412,26.3631865 81.0036433,26.3402052 C80.183096,26.3164314 80.020089,25.8116357 80.0224515,25.1277446 C80.0295387,23.3027139 80.0248139,21.4784758 80.0224515,19.6542376 C80.020089,18.0582274 80.0224515,16.4614247 80.0193016,14.8654144 Z M95.2406891,13.5012773 C94.7453683,14.9681169 93.8728479,16.4769568 92.5853289,16.4904286 C91.3954567,16.5023155 90.6654689,14.8975882 90.0299779,13.5012773 L95.2406891,13.5012773 Z M61.7817336,31.2958408 C59.7602895,31.5050497 58.829496,30.8401775 59.0145522,28.6411068 C59.1791341,26.6781885 59.1421229,24.6843643 59.0224269,22.7151064 C58.9106057,20.8829437 59.4720742,20.0762215 61.4273706,20.1594296 C63.8693255,20.2624491 64.7276714,18.8835723 64.0142206,16.5054061 C63.8008153,15.7945713 63.3488056,15.7866467 62.8196235,15.781892 C61.6864493,15.7723825 60.5524877,15.790609 59.420101,15.7692127 C58.8476079,15.7581182 58.1443941,15.9110626 58.1467566,14.9474338 C58.1483315,14.1462588 58.4932448,13.6454254 59.2980426,13.5281416 C59.5957075,13.4853489 59.9012472,13.5004056 60.2028495,13.4885187 C63.5314994,13.360933 63.5535486,13.3641028 64.015008,10.1498935 C64.1284042,9.35743556 64.4024449,8.83362087 65.242679,8.83045103 C66.1364613,8.8272812 66.3695534,9.43034168 66.3616786,10.2045731 C66.3601037,10.4320085 66.4034147,10.668161 66.3608912,10.8876718 C65.906519,13.2444417 67.0861541,13.8078793 69.1296475,13.5004056 C69.64623,13.4219523 70.1856493,13.4853489 70.7140439,13.4972358 C71.6046762,13.5170472 72.1354333,13.9315027 72.1622074,14.8737352 C72.1944938,15.9974405 71.346385,15.7303822 70.7234936,15.7676277 C70.1210764,15.8032883 69.5013349,15.8587604 68.9130923,15.7612881 C66.7971514,15.4094368 66.2128462,16.3041218 66.3041931,18.370852 C66.3758532,19.9827115 67.0239437,20.2236187 68.3760355,20.2204488 C71.3282731,20.2149016 71.3290606,20.2719586 71.3306355,23.2175247 C71.3322105,25.2699908 71.286537,27.3240417 71.3455975,29.3757153 C71.3841837,30.7339882 70.8518517,31.3354637 69.4855854,31.2855389 C68.0523839,31.2332367 66.6152451,31.273652 65.1796811,31.2744445 C64.046507,31.2752369 62.9030956,31.180142 61.7817336,31.2958408 Z M69.0999597,26.3869602 C69.2109935,28.6074273 68.5550282,29.4458478 66.3839641,29.0630906 C65.9461289,28.9862222 65.4830946,29.0519962 65.0318724,29.0519962 C61.406345,29.0519962 61.3835083,29.0519962 61.4134323,25.5073319 C61.4441438,21.9214598 60.9496105,22.5451242 65.3476492,22.4809351 C69.048774,22.4809351 68.9062413,22.4880672 69.0999597,26.3869602 Z M57.6319852,26.3218202 C57.669784,27.8774151 56.9996441,28.5050418 55.465646,28.49157 C49.4147007,28.4384753 50.4754274,28.9535729 50.411642,23.6464822 C50.3706934,20.155705 50.4628278,16.661758 50.3785681,13.1725658 C50.3391945,11.5725932 50.943974,11.030552 52.4937216,11.0574955 C58.4478076,11.1621 57.5430007,10.4140197 57.6170232,16.0745467 C57.6327727,17.2893847 57.6193857,18.5034302 57.6185982,19.7182682 C57.6178107,21.9197164 57.5776496,24.121957 57.6319852,26.3218202 Z M55.3891824,24.892543 C55.4175314,25.901342 54.9867835,26.2119855 54.0378781,26.2064383 C53.1338587,26.2000986 52.6283008,25.994852 52.6401129,24.9448453 C52.6771241,21.5182572 52.6771241,18.0900842 52.6401129,14.6634961 C52.6290882,13.6642067 53.0291247,13.3385064 53.9827549,13.3519782 C54.8788996,13.3638651 55.4183189,13.5524701 55.3860325,14.6119863 C55.3364216,16.2856575 55.3734329,17.9624985 55.3742204,19.6377545 C55.3750078,21.3890865 55.3395715,23.1420035 55.3891824,24.892543 Z M95.4634653,31.6759037 C92.6702973,30.7709167 89.8952412,29.8072879 87.12176,28.8428666 C86.722511,28.703394 86.1649799,28.5100342 86.4295709,27.9069738 C86.6949495,27.3031208 87.0020641,26.4195302 87.8178865,26.6667771 C90.9102943,27.6058397 93.9672659,28.6637711 97.0305373,29.7010985 C97.1927568,29.7557781 97.2841037,30.0244213 97.4006498,30.1829129 C96.9699018,31.029258 96.6871989,32.0721326 95.4634653,31.6759037 Z M94.7000886,26.4297529 C92.9991462,25.8060885 91.2619799,25.2806889 89.5571001,24.6689114 C89.1901375,24.5373634 88.5097606,24.4977405 88.7089913,23.8606043 C88.9066471,23.2298078 89.2515605,22.2709337 89.9768234,22.4595387 C92.1565497,23.027731 94.2780029,23.8233588 96.4120557,24.5595522 C96.552226,24.6078922 96.6065616,24.9066488 96.6908213,25.0691027 C96.2230621,25.8980137 96.0057194,26.90919 94.7000886,26.4297529 Z" id="logo-Gudong"></path>
                    </g>
                </g>
            </g>
        </g>
    </g>
</svg>