<?xml version="1.0" encoding="UTF-8" standalone="no"?>
<svg width="97px" height="39px" viewBox="0 0 97 39" version="1.1" xmlns="http://www.w3.org/2000/svg" xmlns:xlink="http://www.w3.org/1999/xlink">
    <!-- Generator: Sketch 40.1 (33804) - http://www.bohemiancoding.com/sketch -->
    <title>longzhu</title>
    <desc>Created with Sketch.</desc>
    <defs></defs>
    <g id="Page-1" stroke="none" stroke-width="1" fill="none" fill-rule="evenodd">
        <g id="forword" transform="translate(-622.000000, -1495.000000)" fill="#FFFFFF">
            <g id="Group-6" transform="translate(0.000000, 1381.000000)">
                <g id="Group-7">
                    <g id="longzhu" transform="translate(622.000000, 114.000000)">
                        <path d="M53.2188094,14.8925322 L68.773703,14.8925322 L68.773703,13.531292 L53.2188094,13.531292 L53.2188094,14.8925322 Z M53.1936345,7.98131891 L68.7658359,7.98131891 C68.8940701,7.43274773 68.7052589,7.02915607 68.260766,6.82030718 C67.8839303,6.64319706 67.450058,6.49429916 67.0405738,6.49194814 C63.0480042,6.46843795 59.054648,6.47549101 55.0616851,6.48371958 C54.7324456,6.48450325 54.3973058,6.53191547 54.0759334,6.60558075 C53.3962132,6.7615317 53.1067027,7.21880496 53.1936345,7.98131891 L53.1936345,7.98131891 Z M53.1782936,11.4968765 L68.7886505,11.4968765 L68.7886505,10.0317996 L53.1782936,10.0317996 L53.1782936,11.4968765 Z M53.2192027,18.5209387 L68.7721296,18.5209387 L68.7721296,16.9253803 L53.2192027,16.9253803 L53.2192027,18.5209387 Z M71.0760192,18.5326938 C71.4658356,18.5526775 71.7923216,18.5691346 72.1581432,18.5879428 L72.1581432,20.71875 L49.6845003,20.71875 L49.6845003,18.5703101 L50.903119,18.5703101 L50.903119,17.8575594 C50.903119,14.5030466 50.9570089,11.1477502 50.8842379,7.79480471 C50.834675,5.4990343 52.3022885,4.36701847 54.384325,4.30158177 C56.0273755,4.25025118 57.6731796,4.28669198 59.3174102,4.28198994 C59.4519381,4.2815981 59.5860727,4.26514097 59.7607231,4.25377771 L59.7607231,2.9901048 L49.6829268,2.9901048 L49.6829268,0.997224048 L59.7674101,0.997224048 C59.7906182,0.644571143 59.8106794,0.341289645 59.8331007,0 L61.9902683,0 C62.0111162,0.295836604 62.0323575,0.598334429 62.058319,0.973322018 L72.1585366,0.973322018 L72.1585366,2.94504359 L62.0779868,2.94504359 L62.0779868,4.25573689 C62.272305,4.26435729 62.4788172,4.28120627 62.6853294,4.2815981 C64.1733975,4.28394912 65.6614655,4.26318178 67.1487469,4.2933532 C67.7100667,4.30432462 68.2812205,4.37994908 68.8264128,4.51356535 C70.2680647,4.86700192 71.0732657,5.91673207 71.0756258,7.39904978 C71.0811328,10.8703299 71.0768059,14.34161 71.0764126,17.8128901 C71.0760192,18.0413308 71.0760192,18.2701633 71.0760192,18.5326938 Z M38.4617968,10.0568698 L31.9390244,10.0568698 L31.9390244,7.83858153 L38.4254014,7.83858153 L38.4254014,4.41021051 C37.1823591,4.41021051 35.9729126,4.3980113 34.7642659,4.42516438 C34.6054861,4.42870609 34.4451064,4.62389342 34.2955254,4.74313084 C33.5768166,5.31649362 32.8613074,5.89418516 32.1449983,6.4703026 C32.0830061,6.4340985 32.021014,6.39828792 31.9590219,6.36247734 C31.9590219,5.57543165 31.9562222,4.78877949 31.9642212,4.0017338 C31.9646211,3.93680253 32.0242136,3.85376921 32.0810064,3.81008818 C33.2204618,2.928597 33.8431828,1.76613052 33.9883644,0.342758397 L36.2772739,0.342758397 C36.1432909,0.949964145 36.0161071,1.52568807 35.8777246,2.15256996 L38.4449989,2.15256996 L38.4449989,0 L40.714311,0 L40.714311,2.1722461 L46.9295223,2.1722461 L46.9295223,4.39525664 L40.7751032,4.39525664 L40.7751032,7.83936857 L47.3170732,7.83936857 L47.3170732,10.0442771 L40.7371081,10.0442771 L40.7371081,10.7864612 C40.7371081,13.842166 40.7371081,16.8982644 40.7367081,19.9539693 C40.7367081,20.7036303 40.7359082,20.7036303 39.9480082,20.7044174 C39.6492461,20.7044174 39.3476844,20.6776578 39.0529218,20.7103202 C38.5689832,20.7638393 38.4505982,20.5623556 38.4529979,20.1105914 C38.4697957,17.0155342 38.4617968,13.9204771 38.4617968,10.8258134 L38.4617968,10.0568698 Z M90.452687,20.7144252 C89.0198726,20.7148054 87.5870581,20.7170864 86.1538649,20.7140451 C84.9047932,20.7113839 84.071321,20.0202438 84.0319205,18.7714014 C83.9690312,16.7873197 83.9785025,14.7990562 84.028132,12.8142142 C84.0554093,11.710595 84.8176574,10.9996862 85.945118,10.9890416 C89.0179783,10.9605292 92.0912175,10.964711 95.1644567,10.9852399 C96.1157515,10.9917027 96.9230829,11.7166776 96.9518756,12.7028259 C97.0136283,14.7990562 97.0189322,16.8998486 96.9503602,18.9956988 C96.9158848,20.0479958 96.0615758,20.6973178 94.9212343,20.7098632 C93.4319711,20.7269707 91.942329,20.7140451 90.452687,20.7144252 Z M94.8727414,14.8070397 C94.8727414,14.3508416 94.9473751,13.9216352 94.8462218,13.5395693 C94.7799229,13.2879 94.474569,12.9381481 94.2514258,12.9191398 C93.4005265,12.8461481 92.5393982,12.8894869 91.6562966,12.8894869 L91.6562966,14.8070397 L94.8727414,14.8070397 Z M86.1584111,14.7948744 L89.3831907,14.7948744 L89.3831907,12.8815035 C88.5125911,12.8815035 87.6866959,12.8704787 86.8608008,12.8864456 C86.4830864,12.8936687 86.1955385,13.0856521 86.1656092,13.4893875 C86.1337858,13.9159327 86.1584111,14.3470399 86.1584111,14.7948744 Z M94.8215965,16.6588239 L91.6570543,16.6588239 L91.6570543,18.69917 C92.1874456,18.69917 92.6894232,18.6923271 93.1910219,18.7003105 C94.6946814,18.7250212 95.0394358,18.8957154 94.8856223,16.7508239 C94.8844858,16.7348569 94.8651644,16.7200305 94.8215965,16.6588239 Z M89.4006178,16.6671876 L86.1553803,16.6671876 C86.1553803,17.1374518 86.0959007,17.5795838 86.1777325,17.9935836 C86.2269831,18.2437322 86.4823287,18.6311205 86.6679656,18.6448064 C87.5753138,18.712856 88.4902389,18.6755998 89.4006178,18.6755998 L89.4006178,16.6671876 Z M-5.68434189e-14,20.71875 L-5.68434189e-14,18.5564338 C1.15176943,18.4440652 1.50374262,17.662947 1.67265833,16.6531899 C2.32632283,12.7507203 3.01809158,8.85488364 3.69296875,4.95592562 C3.72203797,4.78815299 3.72753755,4.61647866 3.7499287,4.38549866 L0.0695304191,4.38549866 L0.0695304191,2.08311186 C1.26333236,2.08311186 2.43160053,2.05619021 3.59790457,2.09559727 C4.09993776,2.11237453 4.29360158,1.96528085 4.32306363,1.4650843 C4.35095436,0.985956861 4.47548059,0.512681961 4.56386672,0 L6.79237557,0 C6.68552657,0.676552908 6.58142735,1.33671872 6.47025725,2.04214413 L17.9380625,2.04214413 L17.9380625,0.131877095 L20.1642144,0.131877095 L20.1642144,2.04916717 L22.4756098,2.04916717 L22.4756098,4.37457393 L6.05582452,4.37457393 C5.85037588,5.50684414 5.64885552,6.60594999 5.45204907,7.705446 C4.86437954,10.989888 4.31717122,14.2821333 3.67529153,17.5560407 C3.36495802,19.1401265 2.51173729,20.34926 0.758549374,20.6520311 C0.53110241,20.691048 0.29737021,20.6937792 -5.68434189e-14,20.71875 Z M11.1803937,6.09375 L13.4146513,6.09375 L13.4146513,7.73528537 L13.4146513,9.43148614 C14.6211741,9.30721082 15.7633648,9.19355396 16.9047661,9.0700652 C17.3716671,9.01933255 17.8385682,8.96073438 18.3011278,8.88050601 C19.24085,8.71690306 19.9524497,8.27250082 20.1857029,7.25666808 L22.3007685,7.25666808 C22.412067,8.9371378 21.1439749,10.524401 19.3260998,10.8346961 C17.5705835,11.1343726 15.7980962,11.3439889 14.0271876,11.5390539 C13.535422,11.5933261 13.4079418,11.7577156 13.415046,12.2217816 C13.4387265,13.7866281 13.4209661,15.3522612 13.4249129,16.9178942 C13.4276756,18.0949702 13.8468209,18.5138095 15.0122974,18.5145961 C17.2706302,18.5157759 19.528963,18.5149893 21.7872958,18.5149893 L22.4756098,18.5149893 L22.4756098,20.71773 L21.9120132,20.71773 C19.3983254,20.71773 16.8846377,20.7204829 14.3709499,20.7169435 C12.3888899,20.7137972 11.1886819,19.515091 11.1831564,17.5337649 C11.1784203,15.8902632 11.1823671,14.2463681 11.1823671,12.6028664 L11.1823671,11.9268244 C9.39132999,12.1572843 7.66817707,12.3790922 5.91463415,12.6048328 L5.91463415,10.2734907 C7.65041668,10.0839316 9.39132999,9.89358582 11.1803937,9.69852076 L11.1803937,6.09375 Z M75.0443301,18.5133896 C75.6077363,18.4698121 76.1231225,18.4568566 76.6289876,18.3834422 C77.1352666,18.3096352 77.5744833,18.0332515 77.5881442,17.5287727 C77.6307826,15.9588033 77.6038748,14.386871 77.6038748,12.8345682 C76.5979402,13.0760114 75.599043,13.3158842 74.5442606,13.5694976 L74.5442606,11.2869765 C75.4972077,10.9780078 76.3893019,10.7086907 77.2615259,10.3895147 C77.4399448,10.3239521 77.6581042,10.071909 77.660588,9.90309506 C77.6874957,8.14546745 77.6742489,6.38705465 77.6692813,4.62903445 C77.6688673,4.57446437 77.6353362,4.51989429 77.5951816,4.39936901 L74.5243902,4.39936901 L74.5243902,2.20792891 L77.6502389,2.20792891 L77.6502389,0 L80.0437837,0 L80.0437837,2.16945504 L82.7010242,2.16945504 L82.7010242,4.38170244 L80.0963573,4.38170244 L80.0963573,8.7418124 C80.9644416,8.44344363 81.819693,8.15017853 82.8003757,7.81333589 C82.8003757,8.59851687 82.8181762,9.2537504 82.7829892,9.9058432 C82.7767797,10.0181241 82.5606901,10.1500345 82.4137325,10.2207008 C81.7919573,10.5214251 81.1643866,10.8131198 80.5285366,11.0863628 C80.1621777,11.2437916 80.0396441,11.4699237 80.0446117,11.8593735 C80.0690356,13.7343856 80.0586865,15.6097904 80.0545468,17.4851952 C80.0504072,19.4575698 78.8722632,20.6294524 76.8049227,20.7079705 C76.2319953,20.7299555 75.6569981,20.7115038 75.0443301,20.7115038 L75.0443301,18.5133896 Z M26.678908,18.5423967 L26.678908,11.3225743 L24.8414634,11.3225743 L24.8414634,9.18745469 L26.6688876,9.18745469 L26.6688876,3.41630921 L24.8678134,3.41630921 L24.8678134,1.21875 L30.7560976,1.21875 L30.7560976,3.37468282 L28.8473968,3.37468282 L28.8473968,9.14347209 L30.7538708,9.14347209 L30.7538708,11.2974414 L28.8310673,11.2974414 C28.8203046,11.5456289 28.8054596,11.7309842 28.8054596,11.9163394 C28.8039751,13.909301 28.8232737,15.9026553 28.7920991,17.8948314 C28.7839343,18.4359745 28.9602191,18.5745982 29.4289512,18.5329718 C29.8494369,18.4956652 30.2751183,18.5251178 30.7445927,18.5251178 L30.7445927,20.71875 L24.8570507,20.71875 L24.8570507,18.5423967 L26.678908,18.5423967 Z M88.7637471,5.37006422 L88.7637471,3.66522677 L91.0351577,3.66522677 L91.0351577,5.37530066 L93.8075212,5.37530066 L93.8075212,3.65625 L96.0757461,3.65625 L96.0757461,5.38315533 C96.4190063,5.40559725 96.6889951,5.42355078 97,5.44412254 L97,7.48745887 C96.6937737,7.50279417 96.3847599,7.51812948 95.9889355,7.53795317 C96.0586229,8.03765981 95.6751432,8.6095546 96.4341384,8.93122204 C96.4962597,8.95740428 96.5384704,9.08569722 96.539665,9.16723618 C96.5484257,9.75932869 96.5444436,10.3514212 96.5444436,10.9379032 C94.8102231,11.1080878 93.87243,9.98898429 93.6912428,7.55852493 L91.0702006,7.55852493 L91.0702006,10.3779775 L88.772906,10.3779775 L88.772906,7.54505978 L86.0917335,7.54505978 C86.1725709,8.63947715 86.0654514,9.66544668 85.0695191,10.3813438 C84.5562217,10.7501392 84.0019083,11.016824 83.2544613,10.9614673 C83.2544613,10.3682526 83.2528684,9.77840432 83.2564523,9.18818197 C83.2572488,9.11674187 83.2683987,8.99480747 83.3066272,8.98209038 C84.0915063,8.72251224 83.7574051,8.09900104 83.8641264,7.54543381 L82.804878,7.54543381 L82.804878,5.44935898 C83.0752651,5.43215351 83.3615807,5.41419998 83.7175837,5.39175807 L83.7175837,3.65961629 L85.9583319,3.65961629 L85.9583319,5.37006422 L88.7637471,5.37006422 Z M82.804878,2.4375 L97,2.4375 L97,0 L82.804878,0 L82.804878,2.4375 Z M29.5008804,38.9989899 L29.5008804,38.0962434 C30.9551154,38.0962434 32.3766482,38.0962434 33.7981811,38.095854 C35.0444952,38.095854 35.6149655,37.5397185 35.6278848,36.3207382 C35.6432266,34.867698 35.6626056,33.4146578 35.6807734,31.9616176 C35.6977301,30.6448851 35.2067946,30.1569035 33.8627779,30.1561246 C32.8784844,30.1557352 31.8937873,30.1522301 30.9094939,30.1576824 C30.0770029,30.1623558 29.5020916,30.6032139 29.453644,31.3953564 C29.3959106,32.340553 29.3922771,33.2954859 29.4597,34.2399036 C29.519452,35.0729384 30.1335251,35.5328796 31.0092152,35.5359952 C32.0694098,35.5391108 33.1296044,35.5367741 34.2249235,35.5367741 L34.2249235,36.4145958 C32.9438887,36.4145958 31.6785993,36.4909281 30.4278442,36.3923971 C29.2332075,36.2985395 28.4467417,35.3194607 28.4083874,34.0771133 C28.3821449,33.2249954 28.386586,32.3713196 28.4075799,31.5192017 C28.440282,30.169366 29.3805689,29.2751874 30.7807041,29.2572726 C31.8453397,29.2436419 32.9099754,29.2529887 33.9750148,29.2549359 C35.5556172,29.2576621 36.6315573,30.1900068 36.6594146,31.7038013 C36.6900981,33.3881752 36.6565885,35.0756646 36.5806873,36.7588701 C36.5189166,38.1238944 35.5019211,38.9950954 34.0937113,38.998211 C32.5720535,39.0017161 31.0503956,38.9989899 29.5008804,38.9989899 Z M96.9752735,36.5625 L96.0411125,36.5625 C96.0411125,34.9562529 96.0659274,33.3770551 96.0239021,31.7998462 C96.0134959,31.4143946 95.8574021,30.9828003 95.632467,30.6689496 C95.4599634,30.4278932 95.081336,30.2242284 94.7803552,30.2031459 C93.9130343,30.1418874 93.0381088,30.1812679 92.1071497,30.1812679 L92.1071497,36.5453953 L91.1421701,36.5453953 L91.1421701,30.2182617 C90.2044069,30.2182617 89.3106701,30.1410918 88.4377458,30.2421286 C87.7213155,30.3248675 87.3354837,30.9911537 87.3298804,31.8583203 C87.3206748,33.2044174 87.3270787,34.5505145 87.3270787,35.8966115 L87.3270787,36.5609089 L86.3572962,36.5609089 L86.3572962,34.8607851 C86.3572962,33.8317209 86.3476905,32.8022589 86.3596977,31.772797 C86.376908,30.2600289 87.399122,29.2596051 88.9284405,29.2552294 C90.800765,29.2492627 92.6730896,29.246876 94.5450139,29.2564228 C95.7585427,29.2623895 96.8880211,30.1319428 96.9512591,31.3006287 C97.0445151,33.0333707 96.9752735,34.774864 96.9752735,36.5625 Z M46.1046525,35.6348404 L46.1046525,36.5625 L37.9113194,36.5625 C37.7608225,36.0100598 37.899653,35.5973592 38.3900319,35.206251 C40.2197168,33.7473362 42.0144025,32.2399402 43.8211435,30.7488405 C44.0109174,30.5919898 44.1921359,30.4237318 44.4880743,30.1638079 L37.9043196,30.1638079 L37.9043196,29.25 L46.0653755,29.25 C46.2329832,29.8256623 46.0972637,30.2220667 45.6247734,30.6029897 C43.7709778,32.0965339 41.950626,33.6348926 40.1189967,35.1577699 C39.9712219,35.2803986 39.8312248,35.412805 39.5815632,35.6348404 L46.1046525,35.6348404 Z M12.4330818,29.2539194 C13.0300196,29.2543155 13.6265578,29.2432246 14.223096,29.2566922 C15.5284478,29.2856078 16.4805916,30.185954 16.5317348,31.4824049 C16.568494,32.4077056 16.5728892,33.3365713 16.5317348,34.2614759 C16.469404,35.656953 15.4968829,36.5541303 14.1000325,36.5596758 C13.0060462,36.5636368 11.9124594,36.5632407 10.818473,36.5596758 C9.38486346,36.5549225 8.3584022,35.603875 8.30566071,34.189781 C8.27289706,33.3040907 8.27010016,32.4144394 8.30925672,31.5291452 C8.3703889,30.1609994 9.32972463,29.2701597 10.7030011,29.2547117 C11.2799611,29.248374 11.8565214,29.2539194 12.4330818,29.2539194 Z M12.4738366,30.170902 C11.9376315,30.170902 11.4018259,30.1681292 10.8656207,30.1716942 C9.99858261,30.1768436 9.40084573,30.6418706 9.34291,31.494288 C9.27938048,32.4334524 9.28057915,33.3837078 9.34410867,34.3232683 C9.40164484,35.1737052 9.99978128,35.6395244 10.8700159,35.6422972 C11.9020709,35.6458621 12.9345255,35.645466 13.9669801,35.6422972 C14.8875588,35.6395244 15.5208563,35.0798284 15.5576155,34.174729 C15.5923769,33.3298375 15.5947743,32.480985 15.5564168,31.6364896 C15.5148629,30.7270331 14.8835633,30.1756552 13.962585,30.1712981 C13.4663355,30.1693176 12.9700861,30.170902 12.4738366,30.170902 Z M81.0581518,36.5620722 C80.5208092,36.5620722 79.9834667,36.5632606 79.4465239,36.561676 C77.9744292,36.5573186 76.9553175,35.6038237 76.9093395,34.1535766 C76.8829522,33.3066417 76.8849512,32.4577263 76.9089397,31.6103953 C76.9497202,30.1858969 77.9128587,29.264885 79.3485709,29.2561701 C80.4828274,29.2494358 81.617084,29.2462667 82.7509408,29.2569623 C84.1570671,29.2704309 85.1082114,30.1843124 85.1505911,31.5810814 C85.1769784,32.4478229 85.1781779,33.3165451 85.1497915,34.1832866 C85.1014146,35.6410603 84.1294803,36.558507 82.6697797,36.561676 C82.1324371,36.5628644 81.5954943,36.5620722 81.0581518,36.5620722 Z M81.0037778,35.6446255 C81.539921,35.6446255 82.0764639,35.6473984 82.6130069,35.6438332 C83.4478069,35.6386835 84.0922981,35.138366 84.1486711,34.314407 C84.2130403,33.3747768 84.2162387,32.4228665 84.1414746,31.4840285 C84.0751064,30.6489777 83.4446084,30.1752013 82.5946157,30.1728245 C81.5415202,30.1696554 80.4888246,30.1680709 79.4361289,30.1732206 C78.6317143,30.177182 78.0216066,30.6295672 77.9628348,31.4151012 C77.88927,32.3927603 77.8884704,33.3830956 77.956038,34.3611508 C78.012411,35.1811485 78.617721,35.6374951 79.4545201,35.6438332 C79.9706728,35.6477946 80.4872253,35.6446255 81.0037778,35.6446255 Z M31.9446361,21.9375 C31.9446361,21.2403164 31.9249633,20.5904856 31.9592862,19.9431914 C31.967239,19.7914092 32.1346678,19.5529547 32.2698665,19.517863 C33.2313262,19.2692614 33.5879495,18.5623536 33.6951039,17.6685719 C33.9123427,15.8560638 34.1111644,14.0418645 34.3225432,12.1875 L36.6707317,12.1875 C36.5305101,13.5573452 36.3999157,14.9073192 36.2509041,16.2551792 C36.1680268,17.0052117 36.0889167,17.7582038 35.947858,18.4985121 C35.5447732,20.6116251 34.1710202,21.7984015 31.9446361,21.9375 Z M42.5853659,12.1875 L44.9534581,12.1875 C45.0988562,13.501636 45.2408827,14.8136557 45.3896524,16.1244058 C45.4562405,16.709736 45.5076566,17.2992984 45.6180749,17.8765871 C45.7714804,18.6769192 46.0803986,19.3680574 47.0122107,19.536927 C47.1289506,19.5580886 47.2954209,19.7489663 47.3000568,19.8666249 C47.3274506,20.5556469 47.313543,21.2459386 47.313543,21.9375 C45.137629,21.8435425 43.5268711,20.4219055 43.2630474,18.348491 C43.0059667,16.3254411 42.8142098,14.2935034 42.5853659,12.1875 Z M47.3170732,26.8125 L48.1949593,26.8125 L48.1949593,29.2738037 C49.4589153,29.2738037 50.6405815,29.273407 51.8226323,29.2738037 C53.5034208,29.2745972 54.3774615,30.1382751 54.4039942,31.8727722 C54.425528,33.2942505 54.4082241,34.7165222 54.4051478,36.1383972 C54.4047633,36.271698 54.3824605,36.4049988 54.3678483,36.5625 L53.4753499,36.5625 L53.4753499,35.1001587 C53.4749654,34.0337524 53.4841942,32.9669495 53.4718892,31.9005432 C53.4588151,30.7730408 52.8843246,30.1934204 51.8076355,30.192627 C50.6413506,30.1918335 49.4754502,30.192627 48.2264909,30.192627 L48.2264909,36.5561523 L47.3170732,36.5561523 L47.3170732,26.8125 Z M75.7073171,29.2829306 L75.7073171,30.1690166 L71.4101981,30.1690166 C69.9924957,30.1694127 69.5620751,30.6265174 69.5583453,32.139241 C69.5568534,32.7694434 69.5426801,33.4004381 69.563567,34.0298483 C69.6001192,35.1171555 70.1200553,35.6400136 71.1360567,35.6412019 C72.4709572,35.6423902 73.8062307,35.641598 75.1411313,35.641598 L75.7061981,35.641598 L75.7061981,36.5395671 C73.9572882,36.5395671 72.23486,36.6041322 70.5191454,36.5165931 C69.4222071,36.4603462 68.6646818,35.4324547 68.6288756,34.1910629 C68.6038858,33.3255743 68.6031399,32.4577091 68.6281296,31.5918244 C68.6684116,30.1713932 69.5684158,29.2599565 70.9148787,29.2536188 C72.3609277,29.2468851 73.8073497,29.2512422 75.2537717,29.2532227 C75.3977425,29.2536188 75.5417133,29.2718397 75.7073171,29.2829306 Z M55.6228295,29.25 L56.5747268,29.25 C56.5747268,29.580641 56.5743262,29.908099 56.5747268,30.235557 C56.5747268,31.463027 56.5695186,32.690497 56.57673,33.917967 C56.5839413,35.0706349 57.1556406,35.636425 58.2998403,35.6380165 C59.2966082,35.6396081 60.2933761,35.6427911 61.2901439,35.6368229 C62.2901168,35.6312525 62.8918634,35.0463641 62.9002766,34.0568283 C62.9134974,32.4931469 62.9118949,30.9290676 62.9175037,29.3649883 C62.9175037,29.3470835 62.9287213,29.3287809 62.9495541,29.2655174 L63.8738079,29.2655174 C63.8738079,29.8340927 63.8742085,30.4006785 63.8738079,30.9676623 C63.8738079,31.9575959 63.8854262,32.9475296 63.8702022,33.9374633 C63.8445619,35.564806 62.8269613,36.557127 61.2028066,36.5591164 C60.1659757,36.5607079 59.1291448,36.5666762 58.0927145,36.5575249 C56.7878621,36.5459863 55.7149745,35.7020758 55.6460661,34.4296449 C55.5527193,32.717553 55.6228295,30.9963098 55.6228295,29.25 Z M19.8696719,36.5625 L18.9303888,36.5625 L18.9303888,34.9123836 C18.9303888,33.8653776 18.9207469,32.8179746 18.933201,31.7709686 C18.9512796,30.2578325 19.974126,29.2628393 21.509199,29.2552955 C22.5886916,29.2497369 23.6681842,29.2465605 24.7476768,29.2560896 C25.9613527,29.2668098 27.0902602,30.1272049 27.1565483,31.3028533 C27.253771,33.0311874 27.1814566,34.7690506 27.1814566,36.5402655 L26.2510119,36.5402655 C26.2510119,35.0211738 26.2518154,33.5243165 26.2506102,32.0274593 C26.2498067,30.673935 25.7424009,30.1736591 24.3732492,30.1732621 C23.4536516,30.172865 22.5340541,30.1716739 21.6144566,30.1736591 C20.5004138,30.1760414 19.9178815,30.7378592 19.9074361,31.8511716 C19.8949819,33.2142249 19.9054273,34.5776752 19.9026151,35.9407285 C19.9022134,36.133295 19.8829295,36.3254645 19.8696719,36.5625 Z M8.2804878,35.6352145 L8.2804878,36.5383915 C6.57290587,36.5383915 4.88885753,36.6061497 3.21398331,36.5144768 C2.09314583,36.4526973 1.2411498,35.4490787 1.20764434,34.2800504 C1.16017826,32.6191772 1.1956781,30.9559125 1.1956781,29.25 L2.15018489,29.25 C2.16255,29.4357372 2.18688135,29.6422004 2.1876791,29.8490623 C2.19126897,31.1962548 2.18249373,32.543846 2.19206672,33.8910385 C2.20044308,35.104309 2.7361316,35.6344173 3.927171,35.6352145 C5.36910249,35.6356131 6.81143285,35.6352145 8.2804878,35.6352145 Z M65.0609756,36.5625 L66.2497147,36.5625 L66.2497147,35.34375 L65.0609756,35.34375 L65.0609756,36.5625 Z" id="logo-Longzhu"></path>
                    </g>
                </g>
            </g>
        </g>
    </g>
</svg>