<?xml version="1.0" encoding="UTF-8" standalone="no"?>
<svg width="105px" height="25px" viewBox="0 0 105 25" version="1.1" xmlns="http://www.w3.org/2000/svg" xmlns:xlink="http://www.w3.org/1999/xlink">
    <!-- Generator: Sketch 40.1 (33804) - http://www.bohemiancoding.com/sketch -->
    <title>meipai</title>
    <desc>Created with Sketch.</desc>
    <defs></defs>
    <g id="Page-1" stroke="none" stroke-width="1" fill="none" fill-rule="evenodd">
        <g id="forword" transform="translate(-49.000000, -1493.000000)" fill="#FFFFFF">
            <g id="Group-6" transform="translate(0.000000, 1381.000000)">
                <g id="Group-7">
                    <g id="meipai" transform="translate(49.000000, 112.000000)">
                        <path d="M84.261488,11.3351973 C83.0414966,11.7738402 81.9195762,12.0785077 80.7891155,12.2952483 L80.7891155,6.22676599 L82.932202,6.22676599 C84.2758335,6.22676599 85.1717083,4.55389172 84.425146,4.55389172 L80.7891155,4.55389172 L80.7891155,0.72950347 C80.7891155,-0.635321495 77.6803357,1.00251423 77.6803357,3.4591534 L77.6803357,4.55389172 L74.991602,4.55389172 C73.6478931,4.55389172 72.7520958,6.22676599 73.4985807,6.22676599 L77.6803357,6.22676599 L77.6803357,12.7529361 C77.0209046,12.8166564 76.4755155,12.856043 76.0420527,12.8954295 C74.9017101,12.9988924 74.3667705,12.924213 73.9117378,13.462759 C73.3249633,14.1570713 72.7764007,15.0230929 73.7700626,15.0230929 C75.0706316,15.0230929 76.4556485,14.8916856 77.6803357,14.6921846 L77.6803357,20.3253041 C77.6803357,22.5345631 77.7595459,22.9572123 75.4264839,23.3990336 C74.258379,23.6203002 73.9395001,25 74.5506568,25 L74.7032719,25 C79.4392401,25 80.7891155,23.9760762 80.7891155,21.5194116 L80.7891155,14.0430816 C82.4848323,13.6069815 83.7582583,13.1379532 84.1225735,12.8954295 C84.5485281,12.6116377 84.8388708,12.0443845 84.8388708,11.4769788 C84.8388708,11.0831639 84.68752,11.1933395 84.261488,11.3351973 L84.261488,11.3351973 Z M70.0281691,23.4022882 C62.6142522,21.995712 59.9652526,21.0037246 56.4912288,17.9368096 L67.9896812,17.9368096 C69.3333127,17.9368096 70.2290842,16.4498074 69.4826252,16.4498074 L55.9145942,16.4498074 L55.9145942,13.2899564 L68.2882029,13.2899564 C69.6318344,13.2899564 70.5277091,11.8029796 69.7811469,11.8029796 L55.9145942,11.8029796 L55.9145942,8.73606468 L65.1250339,8.73606468 L65.8994874,8.73606468 C67.2431963,8.73606468 68.1388905,7.2490625 67.3924314,7.2490625 L55.9145942,7.2490625 L55.9145942,4.27508358 L67.3924314,4.27508358 C68.7361403,4.27508358 69.6318344,2.7880814 68.8853753,2.7880814 L61.5818366,2.7880814 C63.7408426,1.48697675 63.7504149,0.278782713 62.8867403,0.278782713 L60.9183547,0.278782713 C60.0106114,0.278782713 60.516705,1.76578489 58.5141842,2.7880814 L49.8558936,2.7880814 C47.8533729,1.76578489 48.3594665,0.278782713 47.4517231,0.278782713 L45.4833376,0.278782713 C44.6195597,0.278782713 44.6292352,1.48697675 46.788138,2.7880814 L40.7897868,2.7880814 C39.4461553,2.7880814 38.5503838,4.27508358 39.2968687,4.27508358 L52.4289856,4.27508358 L52.4289856,7.2490625 L42.5813557,7.2490625 C41.2377242,7.2490625 40.3419526,8.73606468 41.0884117,8.73606468 L52.4289856,8.73606468 L52.4289856,11.8029796 L39.8940153,11.8029796 C38.5503838,11.8029796 37.6545864,13.2899564 38.4010713,13.2899564 L52.4289856,13.2899564 L52.4289856,16.4498074 L40.3419526,16.4498074 C38.9982179,16.4498074 38.1025238,17.9368096 38.8490087,17.9368096 L51.9379858,17.9368096 C48.4639878,21.0037246 45.8149882,21.995712 38.4010713,23.4022882 C37.7899146,23.5358059 36.7588149,24.8831116 37.8039247,24.8831116 C39.7963829,24.8831116 49.7926029,23.4150018 54.2146718,19.3225102 C58.6366375,23.4150018 68.6329348,24.8811283 70.6253415,24.8811283 C71.6704255,24.8811283 70.6302953,23.5404337 70.0281691,23.4022882 L70.0281691,23.4022882 Z M101.891194,18.1160452 C101.891194,19.84908 101.862323,20.5345946 101.691027,21.2149983 C101.514004,21.7779034 101.127526,22.2349555 100.660444,22.4516961 C100.100761,22.6603509 99.5319441,22.6765988 98.1098249,22.6765988 L90.2271747,22.6765988 C89.6194237,22.6765988 89.3677315,22.6733187 89.1776529,22.6103358 C89.1355192,22.5851884 89.0794013,22.5408181 89.0577024,22.4861753 C89.0073639,22.2574585 88.9850199,21.9320171 88.9850199,21.209023 L88.9850199,13.6617006 L98.9581219,13.6617006 C100.376474,13.6617006 101.322016,12.0817878 100.534069,12.0817878 L88.9850199,12.0817878 L88.9850199,6.02726497 C88.9850199,5.30455054 89.0073639,4.97773603 89.0577024,4.748943 C89.078395,4.69684287 89.1230056,4.64898907 89.1662487,4.62379081 C89.3543148,4.56243522 89.6330468,4.55389172 90.2271747,4.55389172 L100.653658,4.55389172 C101.24954,4.55389172 101.518984,4.56243522 101.707308,4.62379081 C101.751196,4.64954847 101.800503,4.6957495 101.821118,4.74767164 C101.872979,4.97847342 101.891194,5.28759066 101.891194,6.02726497 L101.891194,18.1160452 Z M104.840831,4.21916939 C104.648379,3.69793929 104.229055,3.30097142 103.700618,3.11120898 C103.21661,2.96024829 102.76408,2.9739535 101.8648,2.9739535 L92.780219,2.9739535 C96.38632,1.3940407 97.0812021,0 95.5955084,0 L93.6271486,0 C92.1605994,0 92.0300446,2.71876713 88.2251183,2.94565314 C88.1857455,2.94799243 88.1643045,2.95099283 88.1524359,2.95427292 C87.7658542,2.96815612 87.4797429,3.00383034 87.1810406,3.09704608 C86.6527062,3.28680852 86.2289447,3.69768502 86.0364924,4.21888969 C85.8835935,4.69638518 85.8762402,5.14011349 85.8762402,6.02726497 L85.8762402,21.209023 C85.8762402,22.0961999 85.8835935,22.5397248 86.0364924,23.0171185 C86.2289447,23.5385266 86.648836,23.9323415 87.1772478,24.1222057 C87.6612813,24.2732172 88.1145337,24.2565116 89.0138142,24.2565116 L98.7295993,24.2565116 C100.528264,24.2565116 101.427518,24.2674199 102.395714,23.9653713 C103.452796,23.585999 104.297223,22.7701706 104.682153,21.7273544 C104.988028,20.7722108 105,19.8904753 105,18.1160452 L105,6.02726497 C105,5.14011349 104.993937,4.69656317 104.840831,4.21916939 Z M32.0533362,3.84197109 L24.8926338,8.2591413 C24.8894344,6.87641565 24.8602789,6.09852441 24.5940347,5.26866019 C24.2181605,4.2509914 23.4047727,3.44940211 22.3721508,3.07898013 C21.4263246,2.78428005 20.5477368,2.78428005 18.7905611,2.78428005 L6.1024597,2.78428005 C4.34528404,2.78428005 3.46672201,2.78428005 2.52094745,3.07898013 C1.48829971,3.44940211 0.674886111,4.2509914 0.299011933,5.26866019 C0,6.20071593 0,7.06653407 0,8.79824665 L0,16.4609572 C0,18.1926443 0,19.0584879 0.299011933,19.9905945 C0.674886111,21.0082379 1.48829971,21.8098272 2.52094745,22.1802237 C3.46672201,22.4749238 4.34528404,22.4749238 6.1024597,22.4749238 L18.7905611,22.4749238 C20.5477368,22.4749238 21.4263246,22.4749238 22.3721508,22.1802237 C23.4047727,21.8098272 24.2181605,21.0082379 24.5940347,19.9905945 C24.8602789,19.1607049 24.8894344,18.3827628 24.8926338,17.0000371 L32.0533362,21.4171819 C32.6563139,21.7891549 33.1496101,21.5019559 33.1496101,20.779038 L33.1496101,4.48019127 C33.1496101,3.75719714 32.6563139,3.47002348 32.0533362,3.84197109 Z M17.0998756,13.0476489 L8.97497644,18.0618982 C8.60243064,18.2919117 8.2975876,18.1143543 8.2975876,17.6674222 L8.2975876,7.59178166 C8.2975876,7.14484954 8.60243064,6.96734296 8.97497644,7.19725479 L17.0998756,12.2115804 C17.472473,12.4414922 17.472473,12.817737 17.0998756,13.0476489 Z" id="logo-meipai"></path>
                    </g>
                </g>
            </g>
        </g>
    </g>
</svg>