<?xml version="1.0" encoding="UTF-8" standalone="no"?>
<svg width="107px" height="38px" viewBox="0 0 107 38" version="1.1" xmlns="http://www.w3.org/2000/svg" xmlns:xlink="http://www.w3.org/1999/xlink">
    <!-- Generator: Sketch 40 (33762) - http://www.bohemiancoding.com/sketch -->
    <title>xiongmao</title>
    <desc>Created with Sketch.</desc>
    <defs></defs>
    <g id="Page-1" stroke="none" stroke-width="1" fill="none" fill-rule="evenodd">
        <g id="forword-v0.1" transform="translate(-191.000000, -1742.000000)" fill="#FFFFFF">
            <g id="Group-6" transform="translate(0.000000, 1641.000000)">
                <g id="Group-7">
                    <g id="xiongmao" transform="translate(191.000000, 101.000000)">
                        <path d="M5.83505788,15.8675245 C7.74978067,15.8675245 9.22336635,16.4717653 10.2558149,17.6802468 C11.2863863,18.894483 11.7988562,20.6151304 11.7988562,22.8536985 C11.7988562,26.3295215 10.4210067,28.5680896 7.66530761,29.5694029 C7.17678934,29.7755037 6.66015762,29.9036039 6.13352937,29.9492113 C5.87782907,29.9754328 5.68180127,30.1930579 5.67737482,30.4556226 L5.55911253,37.1425536 C5.55602686,37.4231652 5.33253016,37.6489826 5.05790568,37.6489649 L0.501991733,37.6489649 C0.363526212,37.6476116 0.231631569,37.5884259 0.136960363,37.4851628 C0.042289156,37.3818997 -0.00691433085,37.2435516 0.000784883317,37.1022709 L1.22846009,16.3509171 C1.24051167,16.080262 1.45889772,15.8672445 1.7240354,15.8675245 C2.87286908,15.8732792 5.71679559,15.8790339 5.86321556,15.8675245 L5.83505788,15.8675245 L5.83505788,15.8675245 Z M6.55026316,24.8966077 C6.60657853,24.8620797 6.66289391,24.8160423 6.72484082,24.7700049 C7.40396247,24.2540345 7.73435019,23.3865287 7.57520301,22.5371915 C7.48320644,22.0764052 7.25054136,21.6573162 6.91068156,21.3402193 C6.79838169,21.2370717 6.67567656,21.1464064 6.54463162,21.0697497 C6.38851956,20.9829725 6.19933454,20.9860858 6.04603794,21.0779549 C5.89274135,21.1698239 5.79772994,21.3370265 5.79563711,21.5186142 L5.7787425,24.4592525 C5.7749849,24.6482074 5.87381964,24.8237851 6.0355506,24.9154662 C6.19728156,25.0071473 6.39537298,24.9998895 6.55026316,24.8966077 L6.55026316,24.8966077 Z M26.0635411,37.6489649 L21.2429449,37.6489649 C21.0053143,37.6491947 20.80042,37.4783259 20.7530011,37.2403831 L20.0659535,33.994747 C20.0160244,33.7592148 19.8118473,33.5913422 19.5760097,33.5919199 L17.3402893,33.5919199 C17.0945468,33.5939894 16.8856641,33.7759071 16.844714,34.0235204 L16.3491386,37.2173644 C16.3099089,37.465971 16.0999929,37.6487885 15.8535633,37.6489649 L11.241334,37.6489649 C11.0878594,37.6476598 10.94323,37.5753597 10.8480206,37.4523478 C10.7528112,37.329336 10.7172783,37.1688639 10.7513902,37.0159508 L14.9750435,18.0025085 C15.0276266,17.7695077 15.2309886,17.6046939 15.4649872,17.605436 L22.0369917,17.605436 C22.2728292,17.6048584 22.4770064,17.7727309 22.5269354,18.0082632 L26.5534848,37.0217055 C26.585636,37.173779 26.5491829,37.3325659 26.4542045,37.4541637 C26.3592261,37.5757616 26.2157851,37.6472873 26.0635411,37.6489649 L26.0635411,37.6489649 Z M19.5027997,27.7163979 L19.0748029,25.4087737 C19.0307761,25.1670281 18.8250006,24.9912573 18.5843698,24.9898522 C18.3437391,24.9884471 18.1360112,25.1618033 18.0892838,25.403019 L17.6443923,27.7106432 C17.613944,27.8613047 17.6513827,28.0179723 17.7463588,28.1373361 C17.8413349,28.2566998 17.9837875,28.3261155 18.1343361,28.3263933 L19.0128559,28.3263933 C19.16213,28.3255676 19.3032937,28.2568679 19.3979988,28.1389571 C19.4927038,28.0210463 19.5311158,27.8661686 19.5027997,27.7163979 L19.5027997,27.7163979 Z M70.0514816,37.6489649 L65.2365169,37.6489649 C64.9988863,37.6491947 64.793992,37.4783259 64.7465731,37.2403831 L64.0595255,33.994747 C64.0073221,33.7606589 63.8045257,33.5939216 63.5695817,33.5919199 L61.3338613,33.5919199 C61.0874318,33.5920963 60.8775157,33.7749138 60.838286,34.0235204 L60.3370791,37.2173644 C60.2978494,37.465971 60.0879334,37.6487885 59.8415038,37.6489649 L55.2292745,37.6489649 C55.0757999,37.6476598 54.9311705,37.5753597 54.8359611,37.4523478 C54.7407517,37.329336 54.7052188,37.1688639 54.7393307,37.0159508 L58.962984,18.0025085 C59.018665,17.7715242 59.220145,17.6082357 59.4529277,17.605436 L66.0249321,17.605436 C66.2607697,17.6048584 66.4649469,17.7727309 66.5148759,18.0082632 L70.5414253,37.0217055 C70.5735765,37.173779 70.5371234,37.3325659 70.442145,37.4541637 C70.3471666,37.5757616 70.2037256,37.6472873 70.0514816,37.6489649 L70.0514816,37.6489649 Z M63.4907402,27.7163979 L63.0627434,25.4087737 C63.0201152,25.1673918 62.8151675,24.9913494 62.575139,24.9899397 C62.3351105,24.9885301 62.1281962,25.1621538 62.0828558,25.403019 L61.6323328,27.7106432 C61.6018845,27.8613047 61.6393232,28.0179723 61.7342993,28.1373361 C61.8292754,28.2566998 61.971728,28.3261155 62.1222766,28.3263933 L63.0007964,28.3263933 C63.1504275,28.3266097 63.2922548,28.2581932 63.3871851,28.140002 C63.4821154,28.0218108 63.5201262,27.8663233 63.4907402,27.7163979 L63.4907402,27.7163979 Z M40.0522806,37.6489649 L38.0024009,37.6489649 C37.8637636,37.6496182 37.7311251,37.5912323 37.6363509,37.487834 L33.4971708,32.9473964 C33.3501324,32.78481 33.1172215,32.7377621 32.9207042,32.8309504 C32.7241869,32.9241387 32.6089737,33.1362667 32.6355455,33.3559782 L33.0466477,37.0734975 C33.0626266,37.2195255 33.0171533,37.3656161 32.9215552,37.4753783 C32.825957,37.5851406 32.6892331,37.6482423 32.5454409,37.6489649 L28.1415785,37.6489649 C27.8771165,37.6504372 27.6573627,37.4410172 27.6403716,37.171327 L26.3338549,18.1578847 C26.3227402,18.0161702 26.3698354,17.8761204 26.4638468,17.7713199 C26.5578583,17.6665195 26.6903066,17.6064209 26.8294302,17.605436 L31.4416595,17.605436 C31.6244151,17.6050259 31.7928348,17.7065221 31.8809195,17.870151 L36.1834142,25.8691476 C36.2941643,26.0751903 36.5279572,26.1777361 36.7504129,26.1178434 C36.9728685,26.0579508 37.1268622,25.8509997 37.123881,25.615942 L37.1069864,18.1233567 C37.1042399,17.9861549 37.1559781,17.8536635 37.2504064,17.7560863 C37.3448347,17.6585091 37.4739049,17.6041626 37.6081932,17.605436 L40.0973329,17.605436 C40.2310553,17.6060443 40.3590472,17.6609902 40.4530745,17.758153 C40.5471017,17.8553158 40.5994385,17.9867121 40.5985397,18.1233567 L40.5534874,37.1310443 C40.5543862,37.2676888 40.5020494,37.3990851 40.4080222,37.4962479 C40.3139949,37.5934107 40.186003,37.6483566 40.0522806,37.6489649 L40.0522806,37.6489649 Z M46.0217105,17.605436 C48.9782677,17.605436 51.2102338,18.5031651 52.7176087,20.2986234 C54.2249836,22.0940816 54.9796097,24.6779301 54.9814868,28.050169 C54.9814868,31.1576928 54.2306152,33.5343731 52.7288718,35.1802098 C51.2271284,36.8260465 48.991408,37.6489649 46.0217105,37.6489649 L42.9975747,37.6489649 C42.8635708,37.6492858 42.735047,37.5946359 42.6408225,37.4972692 C42.5465979,37.3999025 42.4945567,37.2679662 42.4963679,37.1310443 L42.4963679,18.117602 C42.4957656,17.9815794 42.5483777,17.85095 42.6425031,17.7547665 C42.7366285,17.658583 42.8644627,17.6048205 42.9975747,17.605436 L46.0217105,17.605436 L46.0217105,17.605436 Z M47.2493857,30.9620339 C47.2524132,31.1541366 47.3592581,31.3287419 47.5269501,31.415628 C47.6946422,31.5025141 47.8956233,31.4874024 48.049064,31.3763704 C48.3306409,31.1692022 48.5953232,30.9505246 48.7473747,30.8181671 C49.0592593,30.5596121 49.3275061,30.2505069 49.5414215,29.903174 C49.7648498,29.546336 49.9374057,29.1588 50.0538914,28.7522392 C50.1731757,28.3373323 50.2338581,27.9071429 50.2341006,27.4747016 C50.2364949,27.0506269 50.1718381,26.6289412 50.0426283,26.2259374 C49.7945962,25.4526628 49.2960013,24.7888959 48.6291124,24.3441591 C48.3774366,24.2024515 48.1057689,24.1015032 47.8238025,24.044916 C47.6738275,24.010245 47.5165716,24.0475921 47.3969308,24.1462949 C47.27729,24.2449976 47.2084133,24.3942081 47.2099649,24.5513273 L47.2493857,30.9620339 Z M105.428801,11.4939724 L92.1102145,14.1756504 L95.1625079,0.957164692 C95.231079,0.689661144 95.1527714,0.405176867 94.9577858,0.213427502 C94.7628002,0.0216781372 94.4816051,-0.0473734254 94.2226475,0.0329035877 C93.96369,0.113180601 93.767435,0.330242048 93.7095712,0.600374916 L90.5052263,14.4979122 L85.307317,15.5452628 L79.5969379,8.00664011 C79.4755029,7.84672396 79.2967093,7.74285246 79.1001235,7.71801192 C78.9035376,7.69317139 78.7053691,7.74941008 78.5494719,7.87428261 C78.2288243,8.13829321 78.1714627,8.6148653 78.4199465,8.95040661 L83.6685396,15.8732792 L72.3829381,18.1463754 L72.3829381,38 L107,38 L105.428801,11.4939724 Z M75.5253361,35.847752 C74.9674385,35.8535803 74.4612439,35.5148032 74.2435194,34.9898802 C74.0257949,34.4649572 74.139582,33.8576593 74.5316582,33.4520436 C74.9237343,33.0464278 75.5165905,32.9226796 76.0329248,33.1386809 C76.5492591,33.3546822 76.8869981,33.867732 76.8881683,34.4378569 C76.8903689,35.2107257 76.2816371,35.8404789 75.5253361,35.847752 L75.5253361,35.847752 Z M87.1657244,22.4451167 L82.7787566,23.0953948 L82.7787566,35.8419973 L78.7296811,35.847752 L78.7296811,23.6938809 L74.3427132,24.3441591 L74.3427132,20.6899412 L87.1657244,18.1866581 L87.1657244,22.4451167 L87.1657244,22.4451167 Z M97.5446483,35.583037 L93.6476243,35.6520931 L87.779562,18.0658099 L92.3129498,17.1853448 L95.6299255,28.6716738 L98.9525327,15.8905432 L103.401447,15.0215875 L97.5446483,35.583037 Z" id="logo-pandaTV"></path>
                    </g>
                </g>
            </g>
        </g>
    </g>
</svg>