<?xml version="1.0" encoding="UTF-8" standalone="no"?>
<svg width="535px" height="442px" viewBox="0 0 535 442" version="1.1" xmlns="http://www.w3.org/2000/svg" xmlns:xlink="http://www.w3.org/1999/xlink">
    <!-- Generator: Sketch 40 (33762) - http://www.bohemiancoding.com/sketch -->
    <title>Group 8</title>
    <desc>Created with Sketch.</desc>
    <defs>
        <rect id="path-1" x="0" y="0" width="35" height="71" rx="6"></rect>
        <mask id="mask-2" maskContentUnits="userSpaceOnUse" maskUnits="objectBoundingBox" x="0" y="0" width="35" height="71" fill="white">
            <use xlink:href="#path-1"></use>
        </mask>
        <ellipse id="path-3" cx="17.6268116" cy="65.9428571" rx="2.78985507" ry="2.78928571"></ellipse>
        <mask id="mask-4" maskContentUnits="userSpaceOnUse" maskUnits="objectBoundingBox" x="0" y="0" width="5.57971014" height="5.57857143" fill="white">
            <use xlink:href="#path-3"></use>
        </mask>
        <rect id="path-5" x="3.77972999" y="10.8458333" width="27.4028393" height="48.8434524" rx="1"></rect>
        <mask id="mask-6" maskContentUnits="userSpaceOnUse" maskUnits="objectBoundingBox" x="0" y="0" width="27.4028393" height="48.8434524" fill="white">
            <use xlink:href="#path-5"></use>
        </mask>
        <rect id="path-7" x="0.25" y="0" width="40.5" height="68" rx="6"></rect>
        <mask id="mask-8" maskContentUnits="userSpaceOnUse" maskUnits="objectBoundingBox" x="0" y="0" width="40.5" height="68" fill="white">
            <use xlink:href="#path-7"></use>
        </mask>
        <rect id="path-9" x="4.37101462" y="4.84583333" width="32.22027" height="48.8434524" rx="1"></rect>
        <mask id="mask-10" maskContentUnits="userSpaceOnUse" maskUnits="objectBoundingBox" x="0" y="0" width="32.22027" height="48.8434524" fill="white">
            <use xlink:href="#path-9"></use>
        </mask>
        <rect id="path-11" x="7" y="56" width="8.22027001" height="6.15416667" rx="1"></rect>
        <mask id="mask-12" maskContentUnits="userSpaceOnUse" maskUnits="objectBoundingBox" x="0" y="0" width="8.22027001" height="6.15416667" fill="white">
            <use xlink:href="#path-11"></use>
        </mask>
        <rect id="path-13" x="16.5" y="56" width="8.22027001" height="6.15416667" rx="1"></rect>
        <mask id="mask-14" maskContentUnits="userSpaceOnUse" maskUnits="objectBoundingBox" x="0" y="0" width="8.22027001" height="6.15416667" fill="white">
            <use xlink:href="#path-13"></use>
        </mask>
        <rect id="path-15" x="26" y="56" width="8.22027001" height="6.15416667" rx="1"></rect>
        <mask id="mask-16" maskContentUnits="userSpaceOnUse" maskUnits="objectBoundingBox" x="0" y="0" width="8.22027001" height="6.15416667" fill="white">
            <use xlink:href="#path-15"></use>
        </mask>
        <rect id="path-17" x="0" y="0.9" width="86" height="56" rx="6"></rect>
        <mask id="mask-18" maskContentUnits="userSpaceOnUse" maskUnits="objectBoundingBox" x="0" y="0" width="86" height="56" fill="white">
            <use xlink:href="#path-17"></use>
        </mask>
        <rect id="path-19" x="0" y="13" width="86" height="43.9" rx="6"></rect>
        <mask id="mask-20" maskContentUnits="userSpaceOnUse" maskUnits="objectBoundingBox" x="0" y="0" width="86" height="43.9" fill="white">
            <use xlink:href="#path-19"></use>
        </mask>
        <circle id="path-21" cx="9" cy="8" r="2"></circle>
        <mask id="mask-22" maskContentUnits="userSpaceOnUse" maskUnits="objectBoundingBox" x="0" y="0" width="4" height="4" fill="white">
            <use xlink:href="#path-21"></use>
        </mask>
        <circle id="path-23" cx="17" cy="8" r="2"></circle>
        <mask id="mask-24" maskContentUnits="userSpaceOnUse" maskUnits="objectBoundingBox" x="0" y="0" width="4" height="4" fill="white">
            <use xlink:href="#path-23"></use>
        </mask>
        <circle id="path-25" cx="24" cy="8" r="2"></circle>
        <mask id="mask-26" maskContentUnits="userSpaceOnUse" maskUnits="objectBoundingBox" x="0" y="0" width="4" height="4" fill="white">
            <use xlink:href="#path-25"></use>
        </mask>
    </defs>
    <g id="Page-1" stroke="none" stroke-width="1" fill="none" fill-rule="evenodd">
        <g id="forword-v0.1" transform="translate(-743.000000, -2057.000000)">
            <g id="Group-8" transform="translate(743.000000, 2057.000000)">
                <g id="Group-6-Copy" opacity="0.093919837" transform="translate(240.000000, 291.000000)">
                    <path d="M50.1271779,72.2640247 C50.1271779,88.1786448 62.9851506,101.077566 78.8492481,101.077566 C94.7227105,101.077566 107.580683,88.1739474 107.580683,72.2640247 C107.580683,56.3447072 94.7227105,43.4410881 78.8492481,43.4410881 C62.9851506,43.4457855 50.1271779,56.3494046 50.1271779,72.2640247" id="v"></path>
                    <path d="M85.7137012,135.048798 C85.1143492,135.048798 84.5149972,134.818628 84.0561184,134.362985 L7.82603953,57.9042272 C6.91296426,56.9882441 6.91296426,55.4991843 7.82603953,54.5832012 C8.7391148,53.667218 10.2234474,53.667218 11.1365227,54.5832012 L87.3666015,131.041959 C88.2796768,131.957942 88.2796768,133.456397 87.3666015,134.362985 C86.9124051,134.818628 86.3177356,135.048798 85.7137012,135.048798 L85.7137012,135.048798 Z" id="Shape" fill="#FFFFFF"></path>
                    <path d="M50.1271779,72.2640247 C50.1271779,88.1786448 62.9851506,101.077566 78.8492481,101.077566 C94.7227105,101.077566 107.580683,88.1739474 107.580683,72.2640247 C107.580683,56.3447072 94.7227105,43.4410881 78.8492481,43.4410881 C62.9851506,43.4457855 50.1271779,56.3494046 50.1271779,72.2640247" id="t"></path>
                    <path d="M79.008451,141.775403 C78.4044166,141.775403 77.8097471,141.545232 77.3508682,141.089589 L1.11142448,64.6167397 C0.198349206,63.7007565 0.198349206,62.2116967 1.11142448,61.2957136 C2.02449974,60.3797304 3.50883236,60.3797304 4.42190763,61.2957136 L80.6613514,137.768563 C81.5650618,138.679849 81.5650618,140.173606 80.6613514,141.089589 C80.2071549,141.545232 79.607803,141.775403 79.008451,141.775403 L79.008451,141.775403 Z" id="Shape" fill="#FFFFFF"></path>
                    <path d="M50.1271779,72.2640247 C50.1271779,88.1786448 62.9851506,101.077566 78.8492481,101.077566 C94.7227105,101.077566 107.580683,88.1739474 107.580683,72.2640247 C107.580683,56.3447072 94.7227105,43.4410881 78.8492481,43.4410881 C62.9851506,43.4457855 50.1271779,56.3494046 50.1271779,72.2640247" id="r"></path>
                    <path d="M99.1195191,121.600286 C98.5154847,121.600286 97.9208152,121.370116 97.4619363,120.914473 L21.2318575,44.4463209 C20.3187822,43.5303378 20.3187822,42.041278 21.2318575,41.1252948 C22.1449327,40.2093117 23.6292653,40.2093117 24.5423406,41.1252948 L100.777102,117.58875 C101.690177,118.504733 101.690177,119.993793 100.777102,120.909776 C100.318223,121.370116 99.7141886,121.600286 99.1195191,121.600286 L99.1195191,121.600286 Z" id="Shape" fill="#FFFFFF"></path>
                    <path d="M50.1271779,72.2640247 C50.1271779,88.1786448 62.9851506,101.077566 78.8492481,101.077566 C94.7227105,101.077566 107.580683,88.1739474 107.580683,72.2640247 C107.580683,56.3447072 94.7227105,43.4410881 78.8492481,43.4410881 C62.9851506,43.4457855 50.1271779,56.3494046 50.1271779,72.2640247" id="p"></path>
                    <path d="M92.4142689,128.322194 C91.8102345,128.322194 91.215565,128.092023 90.7566861,127.636381 L14.5266073,51.1682281 C13.613532,50.2522449 13.613532,48.7631851 14.5266073,47.847202 C15.4396825,46.9312188 16.9240152,46.9312188 17.8370904,47.847202 L94.0671693,124.315354 C94.9755621,125.231338 94.9755621,126.720397 94.0671693,127.636381 C93.6129729,128.096721 93.0089385,128.322194 92.4142689,128.322194 L92.4142689,128.322194 Z" id="Shape" fill="#FFFFFF"></path>
                    <path d="M50.1271779,72.2640247 C50.1271779,88.1786448 62.9851506,101.077566 78.8492481,101.077566 C94.7227105,101.077566 107.580683,88.1739474 107.580683,72.2640247 C107.580683,56.3447072 94.7227105,43.4410881 78.8492481,43.4410881 C62.9851506,43.4457855 50.1271779,56.3494046 50.1271779,72.2640247" id="n"></path>
                    <path d="M112.515972,108.156472 C111.921303,108.156472 111.317268,107.926302 110.858389,107.470659 L34.6283105,30.9978093 C33.7152352,30.0818262 33.7152352,28.5927664 34.6283105,27.6767832 C35.5413858,26.7608001 37.0257184,26.7608001 37.9387937,27.6767832 L114.168873,104.149633 C115.077265,105.065616 115.077265,106.554676 114.168873,107.470659 C113.714676,107.930999 113.120007,108.156472 112.515972,108.156472 L112.515972,108.156472 Z" id="Shape" fill="#FFFFFF"></path>
                    <path d="M50.1271779,72.2640247 C50.1271779,88.1786448 62.9851506,101.077566 78.8492481,101.077566 C94.7227105,101.077566 107.580683,88.1739474 107.580683,72.2640247 C107.580683,56.3447072 94.7227105,43.4410881 78.8492481,43.4410881 C62.9851506,43.4457855 50.1271779,56.3494046 50.1271779,72.2640247" id="l"></path>
                    <path d="M105.824769,114.883077 C105.220735,114.883077 104.621383,114.652907 104.162504,114.197264 L27.9324252,37.7197165 C27.0193499,36.8037333 27.0193499,35.3146735 27.9324252,34.3986904 C28.8455005,33.4827072 30.3298331,33.4827072 31.2429083,34.3986904 L107.468305,110.87154 C108.38138,111.782826 108.38138,113.28128 107.468305,114.192566 C107.023473,114.652907 106.419439,114.883077 105.824769,114.883077 L105.824769,114.883077 Z" id="Shape" fill="#FFFFFF"></path>
                    <path d="M50.1271779,72.2640247 C50.1271779,88.1786448 62.9851506,101.077566 78.8492481,101.077566 C94.7227105,101.077566 107.580683,88.1739474 107.580683,72.2640247 C107.580683,56.3447072 94.7227105,43.4410881 78.8492481,43.4410881 C62.9851506,43.4457855 50.1271779,56.3494046 50.1271779,72.2640247" id="j"></path>
                    <path d="M125.926473,94.7126579 C125.331803,94.7126579 124.727769,94.4824878 124.26889,94.0268449 L48.0434933,17.5539951 C47.130418,16.6380119 47.130418,15.1489521 48.0434933,14.232969 C48.9565686,13.3169858 50.4409012,13.3169858 51.3539764,14.232969 L127.579373,90.7058188 C128.492448,91.6218019 128.492448,93.1108617 127.579373,94.0268449 C127.125176,94.4824878 126.530507,94.7126579 125.926473,94.7126579 L125.926473,94.7126579 Z" id="Shape" fill="#FFFFFF"></path>
                    <path d="M50.1271779,72.2640247 C50.1271779,88.1786448 62.9851506,101.077566 78.8492481,101.077566 C94.7227105,101.077566 107.580683,88.1739474 107.580683,72.2640247 C107.580683,56.3447072 94.7227105,43.4410881 78.8492481,43.4410881 C62.9851506,43.4457855 50.1271779,56.3494046 50.1271779,72.2640247" id="h"></path>
                    <path d="M119.225905,101.434565 C118.626553,101.434565 118.027201,101.204395 117.568322,100.748752 L41.3382431,24.2759022 C40.4251678,23.359919 40.4251678,21.8708593 41.3382431,20.9548761 C42.2513184,20.038893 43.735651,20.038893 44.6487263,20.9548761 L120.878805,97.4277259 C121.79188,98.3437091 121.79188,99.8327689 120.878805,100.748752 C120.424609,101.204395 119.825257,101.434565 119.225905,101.434565 L119.225905,101.434565 Z" id="Shape" fill="#FFFFFF"></path>
                    <path d="M50.1271779,72.2640247 C50.1271779,88.1786448 62.9851506,101.077566 78.8492481,101.077566 C94.7227105,101.077566 107.580683,88.1739474 107.580683,72.2640247 C107.580683,56.3447072 94.7227105,43.4410881 78.8492481,43.4410881 C62.9851506,43.4457855 50.1271779,56.3494046 50.1271779,72.2640247" id="f"></path>
                    <path d="M139.33229,81.2594489 C138.732938,81.2594489 138.133586,81.0292788 137.674708,80.5736359 L61.4493112,4.10078611 C60.5362359,3.18480296 60.5362359,1.69574317 61.4493112,0.779760016 C62.3623865,-0.136223135 63.8467191,-0.136223135 64.7597944,0.779760016 L140.985191,77.2526098 C141.888901,78.168593 141.888901,79.6576528 140.985191,80.5736359 C140.530994,81.0292788 139.931642,81.2594489 139.33229,81.2594489 L139.33229,81.2594489 Z" id="Shape" fill="#FFFFFF"></path>
                    <path d="M50.1271779,72.2640247 C50.1271779,88.1786448 62.9851506,101.077566 78.8492481,101.077566 C94.7227105,101.077566 107.580683,88.1739474 107.580683,72.2640247 C107.580683,56.3447072 94.7227105,43.4410881 78.8492481,43.4410881 C62.9851506,43.4457855 50.1271779,56.3494046 50.1271779,72.2640247" id="d"></path>
                    <path d="M132.62704,87.9860534 C132.023006,87.9860534 131.428336,87.7558833 130.969457,87.3002404 L54.7487435,10.8226932 C53.8450331,9.90671009 53.8450331,8.4176503 54.7487435,7.50166715 C55.6618187,6.58568399 57.1555162,6.58568399 58.0592266,7.50166715 L134.284623,83.974517 C135.197698,84.8905001 135.197698,86.3795599 134.284623,87.295543 C133.825744,87.7558833 133.22171,87.9860534 132.62704,87.9860534 L132.62704,87.9860534 Z" id="Shape" fill="#FFFFFF"></path>
                </g>
                <polygon id="Rectangle-2" fill="#FFFFFF" opacity="0.100000001" points="365 92 328.893146 150.102332 192.106854 150.102332 156 92"></polygon>
                <path d="M270,175 L270,225.359979 C270,225.359979 303.253718,221.08344 303.253718,248.842815" id="Path-2" stroke="#E7EAF0" stroke-linecap="round" stroke-linejoin="round" opacity="0.340000004"></path>
                <path d="M217,175 L217,225.359979 C217,225.359979 250.253718,221.08344 250.253718,248.842815" id="Path-2-Copy" stroke="#E7EAF0" stroke-linecap="round" stroke-linejoin="round" opacity="0.340000004" transform="translate(233.626859, 211.921407) scale(-1, 1) translate(-233.626859, -211.921407) "></path>
                <g id="iphone" opacity="0.100000001" transform="translate(498.000000, 212.000000)" stroke="#FFFFFF" stroke-width="4" stroke-linecap="round" stroke-linejoin="round">
                    <use id="Combined-Shape" mask="url(#mask-2)" xlink:href="#path-1"></use>
                    <use id="Oval" mask="url(#mask-4)" xlink:href="#path-3"></use>
                    <use id="Rectangle-5-Copy" mask="url(#mask-6)" xlink:href="#path-5"></use>
                </g>
                <g id="iphone-copy" opacity="0.100000001" transform="translate(67.000000, 151.000000)" stroke="#FFFFFF" stroke-width="4" stroke-linecap="round" stroke-linejoin="round">
                    <use id="Combined-Shape" mask="url(#mask-8)" xlink:href="#path-7"></use>
                    <use id="Rectangle-5-Copy" mask="url(#mask-10)" xlink:href="#path-9"></use>
                    <use id="Rectangle-5-Copy-2" mask="url(#mask-12)" xlink:href="#path-11"></use>
                    <use id="Rectangle-5-Copy-3" mask="url(#mask-14)" xlink:href="#path-13"></use>
                    <use id="Rectangle-5-Copy-4" mask="url(#mask-16)" xlink:href="#path-15"></use>
                </g>
                <g id="web" opacity="0.100000001" transform="translate(77.000000, 354.000000)" stroke="#FFFFFF" stroke-width="4" stroke-linecap="round" stroke-linejoin="round">
                    <use id="Combined-Shape" mask="url(#mask-18)" xlink:href="#path-17"></use>
                    <use id="Combined-Shape-Copy" mask="url(#mask-20)" xlink:href="#path-19"></use>
                    <use id="Oval" mask="url(#mask-22)" xlink:href="#path-21"></use>
                    <use id="Oval-Copy" mask="url(#mask-24)" xlink:href="#path-23"></use>
                    <use id="Oval-Copy-2" mask="url(#mask-26)" xlink:href="#path-25"></use>
                </g>
                <polygon id="Path-3" fill="#FFFFFF" opacity="0.100000001" points="207.507623 278 246.032643 312.651531 181 339.583458"></polygon>
                <polygon id="Path-3-Copy" fill="#FFFFFF" opacity="0.100000001" transform="translate(127.384427, 390.500000) scale(-1, -1) translate(-127.384427, -390.500000) " points="117.334716 339 181.768855 396.955623 73 442"></polygon>
                <g id="Group-3" transform="translate(480.500000, 288.500000) rotate(-180.000000) translate(-480.500000, -288.500000) translate(426.000000, 237.000000)" fill="#FFFFFF" opacity="0.100000001">
                    <polygon id="Path-3-Copy-2" points="84.2605222 -6.25277607e-13 108.394012 21.7628517 67.6551724 38.6774157"></polygon>
                    <polygon id="Path-3-Copy-3" transform="translate(34.068406, 70.655488) scale(-1, -1) translate(-34.068406, -70.655488) " points="27.772897 38.3109756 68.1368112 74.709934 4.40536496e-13 103"></polygon>
                </g>
                <circle id="Oval-2" fill="#FFFFFF" opacity="0.100000001" cx="478.5" cy="81.5" r="10.5"></circle>
                <circle id="Oval-2-Copy-6" fill="#FFFFFF" opacity="0.100000001" cx="144.5" cy="268.5" r="10.5"></circle>
                <circle id="Oval-2-Copy-3" fill="#FFFFFF" opacity="0.100000001" cx="141" cy="13" r="13"></circle>
                <circle id="Oval-2-Copy-4" fill="#FFFFFF" opacity="0.100000001" cx="142.5" cy="144.5" r="5.5"></circle>
                <circle id="Oval-2-Copy-5" fill="#FFFFFF" opacity="0.300000012" cx="5.5" cy="63.5" r="5.5"></circle>
                <ellipse id="Oval-2-Copy" fill="#FFFFFF" opacity="0.200000003" cx="276" cy="72" rx="6" ry="6"></ellipse>
                <circle id="Oval-2-Copy-7" fill="#FFFFFF" opacity="0.300000012" cx="325" cy="287" r="4"></circle>
                <ellipse id="Oval-2-Copy-2" fill="#FFFFFF" opacity="0.400000006" cx="402" cy="203" rx="6" ry="6"></ellipse>
            </g>
        </g>
    </g>
</svg>