<?xml version="1.0" encoding="UTF-8" standalone="no"?>
<svg width="97px" height="39px" viewBox="0 0 97 39" version="1.1" xmlns="http://www.w3.org/2000/svg" xmlns:xlink="http://www.w3.org/1999/xlink">
    <!-- Generator: Sketch 40.1 (33804) - http://www.bohemiancoding.com/sketch -->
    <title>qingting</title>
    <desc>Created with Sketch.</desc>
    <defs></defs>
    <g id="Page-1" stroke="none" stroke-width="1" fill="none" fill-rule="evenodd">
        <g id="forword" transform="translate(-833.000000, -1488.000000)" fill="#FFFFFF">
            <g id="Group-6" transform="translate(0.000000, 1381.000000)">
                <g id="Group-7">
                    <g id="qingting" transform="translate(833.000000, 107.000000)">
                        <path d="M86.9983803,38.9606695 L85.2404305,38.9606695 L85.2404305,38.2094177 C85.2404305,34.1695789 85.2462001,30.1295363 85.2332682,26.0896975 C85.2314776,25.565758 85.1898964,25.0281594 85.0693308,24.520937 C84.8152677,23.4528751 84.1099789,22.7803161 83.0386163,22.7566675 C82.1120916,22.735873 81.1648758,22.8565626 80.2562569,23.055945 C79.3619626,23.2524733 78.5078569,23.6373752 77.6296778,23.917693 C77.234159,24.0440909 77.1058342,24.2691606 77.1074258,24.6997288 C77.1233421,29.2115209 77.1171745,33.7235168 77.1171745,38.2353088 L77.1171745,38.9470103 L75.4031934,38.9470103 L75.4031934,21.2470285 L77.0827556,21.2470285 C77.102651,21.6298917 77.123541,22.0331417 77.1486091,22.5161038 C77.390934,22.4367993 77.590683,22.3589219 77.7965995,22.3063241 C79.1148628,21.9687195 80.4193985,21.5295889 81.7579551,21.3306142 C83.303224,21.1008555 84.8196447,21.2737351 86.0062011,22.548111 C86.1007038,22.6494332 86.4156466,22.6043784 86.5984845,22.5395486 C88.2543713,21.9520024 89.9148341,21.374038 91.6797472,21.2672114 C92.3549941,21.226234 93.0491416,21.2396893 93.7144408,21.352428 C95.8328937,21.7112348 96.9506123,23.1870318 96.9856281,25.6440431 C97.0124867,27.5314486 96.9933872,29.4196696 96.9937851,31.3074828 C96.994382,33.62933 96.9939841,35.951381 96.9939841,38.2734321 L96.9939841,38.9394673 L95.2394165,38.9394673 L95.2394165,38.2958575 C95.2394165,34.2747746 95.2406102,30.2536916 95.2370291,26.2328125 C95.2366312,25.875025 95.2278772,25.5139757 95.1817201,25.1602655 C94.9674476,23.5211707 94.0514674,22.6726741 92.4303974,22.6700238 C90.5550652,22.6669658 88.807461,23.2785683 87.0825375,23.9529621 C86.9709248,23.9965897 86.8616995,24.2296103 86.8660765,24.3708905 C86.8909456,25.1800407 86.9888305,25.9877638 86.9918148,26.7963024 C87.0065374,30.5906846 86.9983803,34.3852707 86.9983803,38.179653 L86.9983803,38.9606695 Z M4.45575412,16.4745714 L4.45575412,12.4956891 L5.81878196,12.4956891 L5.81878196,15.4309736 C5.81878196,15.6385107 5.83211181,15.8470672 5.81719033,16.053585 C5.79391281,16.3758996 5.93258314,16.4817068 6.23837409,16.4792604 C6.67905525,16.4755908 7.12610292,16.4727366 7.55982072,16.5408284 C8.963435,16.7616169 9.94984458,17.9053137 9.95839956,19.3558311 C9.97590744,22.3386167 9.97889173,25.3214024 9.95760375,28.3039842 C9.94606447,29.9116835 8.7402096,31.1200062 7.13207151,31.195845 C6.71566263,31.2154162 6.29746317,31.1986991 5.81878196,31.1986991 L5.81878196,32.5220032 C5.81878196,34.0322538 5.83211181,35.5427082 5.81062488,37.052551 C5.80465628,37.480469 5.94452033,37.6366315 6.35157842,37.5944309 C6.58873054,37.5697629 6.83045858,37.5956541 7.06960023,37.5879071 C8.16841832,37.5526381 8.7533405,36.9353272 8.7626913,35.8008045 C8.76686931,35.2740108 8.76328816,34.7472171 8.76328816,34.1741455 L10.1655098,34.1741455 C10.1167662,35.0778903 10.1663056,35.9906051 9.99639961,36.8582653 C9.76959305,38.0166405 8.69584305,38.9271129 7.52858508,38.9540234 C5.07987006,39.0109024 2.62896655,38.977672 0.17905781,38.9784875 C0.128921623,38.9784875 0.0789843894,38.9436261 0,38.9144731 L0,37.5901497 L0.971886,37.5901497 C1.9849553,37.5899458 2.99862145,37.6036049 4.01109389,37.574248 C4.16209931,37.5697629 4.43486404,37.363449 4.43625671,37.2474484 C4.46271748,35.2676909 4.45535621,33.2873218 4.45535621,31.2031842 C4.09147095,31.2031842 3.76857003,31.2056306 3.44566912,31.2027765 C1.47663007,31.1852439 0.31036687,29.9944537 0.308974198,27.9959404 C0.30718362,25.201936 0.306785714,22.4081356 0.309173151,19.6141312 C0.310764776,17.6998152 1.4561379,16.5118792 3.33166898,16.4755908 C3.67864322,16.4688631 4.02581642,16.4745714 4.45575412,16.4745714 Z M4.42670696,17.9026634 C3.91838174,17.9026634 3.47511418,17.8671905 3.03940684,17.9104104 C2.23046345,17.9901226 1.6980649,18.5613594 1.69527955,19.3603162 C1.68493399,22.3416748 1.68513294,25.3232372 1.6954785,28.3045958 C1.69826385,29.0827581 2.20300792,29.6484905 2.97255859,29.7685685 C3.26123957,29.8138271 3.56325041,29.7673453 3.85352302,29.806284 C4.35190059,29.8731525 4.47087455,29.6613341 4.46828816,29.1712366 C4.44918866,25.6239418 4.45834051,22.0762392 4.45674888,18.5287405 C4.45674888,18.3440366 4.43943996,18.1593326 4.42670696,17.9026634 Z M5.81878196,17.9010325 L5.81878196,18.643518 L5.81878196,28.6022424 C5.81878196,29.877026 5.81878196,29.877026 7.08153742,29.796906 C7.97961181,29.7398231 8.57826176,29.1437145 8.58124605,28.2469013 C8.59119371,25.3044814 8.59019894,22.3620615 8.58164396,19.4198455 C8.57925652,18.5839886 8.04984226,17.98788 7.23552714,17.9085756 C6.7998198,17.8659672 6.35695015,17.9010325 5.81878196,17.9010325 Z M31.263036,38.9130868 L31.263036,37.5901905 L32.4086081,37.5901905 C33.274452,37.5899866 34.1406939,37.6060921 35.0055432,37.5736772 C35.1533653,37.5681728 35.417973,37.3575776 35.4193656,37.2387229 C35.4454285,35.2591693 35.4378683,33.2794118 35.4378683,31.2026134 C35.069805,31.2026134 34.7457104,31.2079139 34.4218147,31.201594 C32.6998754,31.1679559 31.5015808,29.9496436 31.4946174,28.191694 C31.4832771,25.284747 31.4840729,22.3775962 31.4944185,19.4706493 C31.5009839,17.621367 32.6730168,16.4411779 34.484286,16.4262956 C35.4398578,16.4185486 35.4398578,16.4185486 35.4398578,15.4240829 L35.4398578,12.4979724 L36.801493,12.4979724 L36.801493,16.4267033 C37.1978076,16.4267033 37.5075776,16.4228299 37.8171487,16.4273149 C39.526156,16.4519829 40.710325,17.6456272 40.7170894,19.3868597 C40.7286287,22.3504818 40.7292255,25.3143078 40.7164925,28.2777261 C40.7095292,29.904385 39.5257581,31.1310559 37.9323425,31.1979244 C37.586363,31.2126029 37.2393888,31.200167 36.8562051,31.200167 C36.8369066,31.4221787 36.8104459,31.5852727 36.8102469,31.7483667 C36.8072626,33.5040738 36.8195977,35.259577 36.8001003,37.0148763 C36.7953254,37.4474832 36.9047497,37.6497198 37.3545827,37.5946755 C37.6456511,37.5592026 37.9462692,37.5975297 38.235746,37.5545136 C38.9625218,37.4464639 39.424292,36.9208934 39.4469726,36.1686223 C39.466868,35.513392 39.4511507,34.8569386 39.4511507,34.1644007 L40.8392466,34.1644007 C40.8151733,35.1727294 41.0350165,36.1945134 40.6597909,37.1681847 C40.2465652,38.2401201 39.4376218,38.9249111 38.3127409,38.9567144 C36.0303507,39.0213404 33.7451751,38.9799553 31.4611933,38.9793437 C31.4106592,38.9793437 31.3601251,38.9465211 31.263036,38.9130868 Z M35.4173761,17.9255373 C33.7065782,17.5328885 32.8435196,18.2653845 32.8785353,19.8153892 C32.9390171,22.4944123 32.8948495,25.1758818 32.8956453,27.8563319 C32.8960432,29.3294786 33.3751223,29.7881805 34.8304644,29.8128485 C35.3178996,29.8210032 35.4535856,29.679723 35.4508002,29.1786166 C35.4303081,25.5921792 35.4400568,22.005538 35.4388631,18.4191006 C35.4388631,18.2519292 35.4245384,18.084554 35.4173761,17.9255373 Z M36.8617758,17.8494948 L36.8617758,29.7904231 C37.28097,29.7904231 37.6496301,29.8179452 38.0131175,29.7847148 C38.7653592,29.7158076 39.326606,29.1351929 39.3303861,28.3666123 C39.3451086,25.3298018 39.3457055,22.2929912 39.3283966,19.2563845 C39.3242186,18.5147145 38.7741132,17.9365462 38.0505207,17.856834 C37.671515,17.8150411 37.2843522,17.8494948 36.8617758,17.8494948 Z M21.1745012,38.9904749 L21.1745012,37.5605481 C21.5367948,37.5605481 21.8947115,37.5640139 22.2524292,37.5599365 C23.5882005,37.5446465 24.1657614,36.7899289 23.8860333,35.3699916 C23.7191116,35.3604099 23.5402528,35.3412463 23.3613939,35.3412463 C20.2845839,35.3394115 17.2077738,35.3491972 14.1311628,35.3300336 C13.6691936,35.3269756 13.5269421,35.4682558 13.5416647,35.9373549 C13.5727013,36.9312091 13.5510155,37.9268981 13.5510155,38.9556136 L12.2251919,38.9556136 C12.2132547,38.753377 12.1913698,38.5544023 12.1913698,38.3556314 C12.1891813,35.1838606 12.1850033,32.0122936 12.1919667,28.8407266 C12.1961447,26.9510786 13.3524602,25.7698702 15.2017295,25.763958 C17.5784235,25.7562111 19.9551175,25.7551917 22.3316125,25.7641619 C24.1862535,25.7710934 25.3616686,26.990425 25.364056,28.8937322 C25.3670403,31.2347429 25.368433,33.5755497 25.3634592,35.9165605 C25.3594801,37.7472908 24.1689446,38.9731462 22.3903037,38.9900672 C22.0067221,38.9935329 21.6231405,38.9904749 21.1745012,38.9904749 Z M23.9632271,29.8317266 C23.9632271,29.3989159 23.97218,29.0452057 23.9614365,28.6921072 C23.9343789,27.7910128 23.3791007,27.1883804 22.5074871,27.1830798 C20.0066464,27.1679936 17.5054077,27.1679936 15.004368,27.1836914 C14.1616026,27.1891958 13.6049318,27.7808194 13.5557903,28.6470525 C13.544251,28.8537741 13.5715076,29.0639615 13.5472353,29.2682368 C13.493518,29.7165415 13.6711831,29.8439587 14.104503,29.8409007 C16.7710717,29.8223487 19.4376404,29.8317266 22.1042091,29.8317266 L23.9632271,29.8317266 Z M23.9642219,33.8943985 C23.9642219,33.1315263 23.9473108,32.4361342 23.9707873,31.7421691 C23.9837193,31.3603253 23.8343055,31.2549258 23.4855406,31.2638959 C22.749613,31.2830595 22.0130886,31.2694004 21.2767631,31.2694004 C18.8837549,31.2694004 16.4907468,31.2671578 14.0977386,31.2736816 C13.8828693,31.2740893 13.5659369,31.1660395 13.5597694,31.5629696 C13.5476333,32.3299192 13.5561882,33.0974804 13.5561882,33.8943985 L23.9642219,33.8943985 Z M42.4116527,23.6096696 C43.5409106,23.9372847 43.5809002,23.0757405 43.7836334,22.3591462 C44.3940216,20.2022279 45.0183365,18.049183 45.6364838,15.8945072 C45.6880127,15.7148999 45.733573,15.5334578 45.8065888,15.2612947 L42.2224483,15.2612947 L42.2224483,13.8672486 L47.6240255,13.8672486 C46.7156056,17.0965101 45.8147458,20.2984533 44.8860327,23.5996801 L47.3781195,23.5996801 C47.2048313,24.8669205 47.1077422,26.0524102 46.8703911,27.2077274 C46.4229455,29.3840132 45.8869658,31.5411354 45.4112689,33.7117129 C45.3619285,33.9367826 45.3985359,34.2456419 45.5175099,34.4354425 C46.8122968,36.5020476 48.5973042,37.6702085 51.0696947,37.6222996 C53.0407232,37.5841764 55.0129455,37.6145526 56.9847699,37.6147565 L57.6224147,37.6147565 L57.6224147,38.9627285 C57.4252521,38.9716987 57.213765,38.9894352 57.0022778,38.989639 C55.0121497,38.9916777 53.0214248,38.9613015 51.0320925,38.9984053 C48.5555241,39.0444794 46.5544536,38.0922142 44.9984412,36.1324358 C44.9075196,36.0180661 44.8430588,35.8814749 44.7282628,35.6924897 C44.1469218,36.8794064 43.6387956,37.9168882 43.1121666,38.9918816 C42.6641242,38.7384743 42.2837258,38.523394 41.9192437,38.3170801 C42.478103,37.0690032 43.0053288,35.8684273 43.5548373,34.6784526 C43.7120103,34.3384016 43.6620731,34.0631805 43.5291724,33.7227217 C42.9908052,32.3451889 42.4958099,30.9497157 41.9522699,29.4724917 C42.5093387,29.3206104 42.923957,29.2074639 43.3564811,29.0894246 C43.6775914,30.1114125 43.9829845,31.0834528 44.2881785,32.0554931 C44.345477,32.0497848 44.4027755,32.0442804 44.460074,32.038776 C45.1414885,29.7805355 45.5330282,27.4605231 45.8461804,25.0351113 L42.4116527,25.0351113 L42.4116527,23.6096696 Z M19.4287472,18.3534553 L25.8650797,18.3534553 L25.8650797,19.7177367 C25.651603,19.7322113 25.4387231,19.7587141 25.2258433,19.7591218 C23.4937574,19.7625875 21.7614726,19.780324 20.0299836,19.7493362 C19.5298154,19.7401621 19.3937315,19.9052948 19.4191975,20.3937614 C19.4564017,21.1040358 19.4287472,21.8181837 19.4287472,22.5896184 L26.2120539,22.5896184 L26.2120539,23.9632778 L11.268287,23.9632778 C11.268287,23.6083444 11.2273027,23.2334321 11.2907687,22.8782948 C11.3124546,22.7574014 11.5959628,22.605724 11.7610939,22.6038892 C13.5850961,22.5845217 15.4094963,22.5916571 17.2334985,22.5916571 L18.029311,22.5916571 L18.029311,19.7611605 L17.2977603,19.7611605 C15.6209834,19.7611605 13.9438086,19.7377157 12.2678275,19.774208 C11.7085703,19.78644 11.4823606,19.6284427 11.574078,19.0484396 C11.6055126,18.8498727 11.5790518,18.6417239 11.5790518,18.3872973 C11.8231673,18.3758807 12.0191361,18.3589597 12.2151049,18.3587558 C13.9656934,18.3567171 15.7164809,18.3381652 17.4662736,18.3695608 C17.9668397,18.3787348 18.1154577,18.2162524 18.0754681,17.7257472 C18.0370701,17.2570557 18.0416461,16.7804135 18.0744733,16.3109066 C18.1049131,15.8764649 17.9367978,15.7643378 17.5349125,15.7682113 C15.7294129,15.7857439 13.9235154,15.776366 12.1178169,15.7745311 C11.9542774,15.7743273 11.7907379,15.7600566 11.5814392,15.750067 L11.5814392,14.3863972 C11.7821829,14.374369 11.9936701,14.3507204 12.2051573,14.3503127 C13.9742484,14.3472546 15.7431406,14.3364497 17.5118339,14.3568364 C17.9413737,14.3619331 18.1084943,14.2371662 18.0750702,13.7821339 C18.0394576,13.2977447 18.0671121,12.8084626 18.0671121,12.2820767 L19.4289462,12.2820767 C19.4289462,12.7913377 19.4577944,13.2785811 19.4207891,13.7603201 C19.383187,14.2463402 19.5743809,14.3631563 20.0206328,14.3576519 C21.8076297,14.3354303 23.5958204,14.3747768 25.3822204,14.3340033 C25.9768913,14.3203441 25.9786819,14.6208449 25.9756976,15.0593639 C25.9725144,15.4870779 26.0001688,15.8053151 25.3919691,15.7908405 C23.6055691,15.7480284 21.8173784,15.7943063 20.0305804,15.76393 C19.5280248,15.7551637 19.3909461,15.925597 19.4197943,16.4120249 C19.4566007,17.0285203 19.4287472,17.6488891 19.4287472,18.3534553 Z M62.537094,24.1833731 L62.537094,22.7611933 C63.1100789,22.7611933 63.6733152,22.7613972 64.2365515,22.7611933 C64.8262486,22.7611933 65.4169404,22.7365254 66.0048469,22.769348 C66.4323971,22.7929967 66.5324706,22.6203209 66.5278946,22.210751 C66.5089941,20.5496385 66.5038213,18.8879143 66.530481,17.2272095 C66.5396329,16.6470026 66.6046905,16.0566022 66.7322195,15.4916853 C67.0465654,14.1019205 67.9088282,13.2000106 69.2915524,13.0257038 C70.2817421,12.9009369 71.2991884,13.0014436 72.3814934,13.0014436 C72.3216085,13.6468882 72.2651058,14.2535979 72.213179,14.8123988 C71.5966233,14.8123988 71.0481096,14.8030209 70.4999937,14.8142336 C69.1863062,14.8415518 68.5058866,15.3995372 68.4450069,16.7389468 C68.3590592,18.6226827 68.4087974,20.5127385 68.3922843,22.400144 C68.3889021,22.7754641 68.6234679,22.7622127 68.8735519,22.7618049 C69.9604328,22.7599701 71.0475127,22.7611933 72.1343936,22.7613972 L72.7573158,22.7613972 L72.7573158,24.1417842 L68.4103891,24.1417842 L68.4103891,38.9507207 L66.5245124,38.9507207 L66.5245124,24.1833731 L62.537094,24.1833731 Z M57.7134357,24.1892038 L55.1268462,24.1892038 C53.6925931,24.1892038 53.6925931,24.1892038 53.6925931,25.6670394 C53.6925931,28.0268059 53.7031376,30.3865725 53.6836402,32.7461351 C53.6798601,33.1954591 53.8111692,33.3359239 54.2480703,33.3226725 C55.2221447,33.2931117 56.1978108,33.3134984 57.2695713,33.3134984 C57.2695713,33.7163406 57.3113515,34.0916607 57.2458959,34.4461864 C57.22421,34.5636141 56.9267751,34.7024478 56.7542827,34.7040788 C54.8936731,34.7226307 53.0328646,34.7159031 51.172255,34.7159031 L48.7681055,34.7159031 L48.7681055,33.3267498 L52.2471987,33.3267498 L52.2471987,24.196543 L48.2749007,24.196543 L48.2749007,22.8006621 L52.2551568,22.8006621 L52.2551568,15.1786672 C51.1270926,15.2585832 50.0300651,15.3364606 48.8624092,15.4194347 C48.8194354,14.9485007 48.7794458,14.5101856 48.7324929,13.9960317 C51.5433026,13.7817669 54.3065625,13.5711718 57.1458225,13.3548683 C57.1750686,13.8237636 57.2015293,14.2453617 57.2331629,14.7485067 C56.0507845,14.8543139 54.9074009,14.9566554 53.7234309,15.0624627 C53.7116926,15.288144 53.6941848,15.4722364 53.6939858,15.6565326 C53.6919963,17.827314 53.7093052,19.998503 53.6806559,22.1690805 C53.6738915,22.6909814 53.8495671,22.8004582 54.3163112,22.7874107 C55.4354225,22.7558112 56.5559265,22.7772173 57.7134357,22.7772173 L57.7134357,24.1892038 Z M73.8696428,4.87563088 C73.6762604,5.34574938 73.5324173,5.75328055 73.338239,6.13390121 C73.2769615,6.25397918 73.0720398,6.38445439 72.9476941,6.3705914 C68.6461286,5.88803698 64.3431705,5.38815382 60.1263591,4.36453501 C59.0902112,4.11296249 58.0833095,3.60757492 57.1587743,3.05142432 C56.6227946,2.72931364 56.1996213,2.12199231 55.8671707,1.55564834 C55.4670759,0.873915355 55.7913695,0.209511112 56.5603233,0.0694541262 C57.0549208,-0.0206553171 57.597267,-0.0155586291 58.089676,0.0884138055 C62.5515976,1.03068948 66.8794249,2.46204333 71.1986972,3.92112316 C72.0884155,4.22182775 72.9685841,4.55270473 73.8696428,4.87563088 Z M79.4638067,6.37894997 C79.2501311,5.88130935 79.0452093,5.40364776 78.817607,4.87338834 C79.9078701,4.48787486 80.9971384,4.08523651 82.0971502,3.71664404 C86.2097102,2.33870348 90.331422,0.989712106 94.5760869,0.0916756858 C95.0364644,-0.00577298823 95.5342451,-0.0269752102 95.9995965,0.0350005155 C96.88454,0.153039809 97.198289,0.821929138 96.8105294,1.64290364 C96.4426651,2.42167756 95.8267062,2.9511215 95.1130614,3.37312727 C93.7325257,4.18982055 92.2059584,4.56452905 90.6563125,4.80203471 C87.033774,5.35675823 83.4030785,5.85704912 79.7753673,6.37711516 C79.6697232,6.39220135 79.5604979,6.37894997 79.4638067,6.37894997 Z M73.3473909,7.92465311 C73.6217472,8.38050088 73.8431821,8.74827788 74.0809311,9.1429654 C74.0274127,9.18720465 73.9675278,9.25672347 73.8925224,9.29668151 C70.7291678,10.9879664 67.4555931,12.3991374 63.9530234,13.1520202 C63.0732527,13.3410053 62.1270317,13.2920771 61.2198054,13.2272473 C60.6776582,13.1887163 60.0722438,12.9151261 60.0153432,12.2511296 C59.9566521,11.5665425 60.57659,11.3467733 61.0737739,11.2014157 C63.6929917,10.4344661 66.318576,9.68912648 68.9527154,8.97762884 C70.4094501,8.58416453 71.887075,8.27183949 73.3473909,7.92465311 Z M78.6059805,9.16616552 C78.8095096,8.81775593 78.9766302,8.48137453 79.1948818,8.18474729 C79.2758557,8.07425109 79.4966937,7.97619082 79.6204425,8.00799415 C83.4942587,9.00857593 87.3650907,10.0203704 91.2317446,11.0492898 C91.599211,11.1471462 91.9609078,11.3281806 92.2810234,11.5404066 C92.8520188,11.9191925 92.8784796,12.5042923 92.2907721,12.8514787 C91.845316,13.1148755 91.2930222,13.3419839 90.7956394,13.3275093 C89.7921198,13.2979485 88.7677102,13.1960148 87.7976148,12.9409765 C84.7357262,12.1363114 81.8240473,10.9108637 79.0188083,9.41998058 C78.8743683,9.3433264 78.7390802,9.248528 78.6059805,9.16616552 Z M75.508937,10.0832228 L76.3837339,10.0832228 L77.1849181,10.0832228 L77.1849181,19.7565327 L75.508937,19.7565327 L75.508937,10.0832228 Z M76.3286039,8.67160331 C75.3849693,8.65875965 74.6154186,7.84430892 74.6357118,6.87981169 C74.656005,5.90899456 75.4569903,5.12308528 76.3936616,5.15468474 C77.3193905,5.1856726 78.0616846,5.97198962 78.0590982,6.91834265 C78.0563129,7.88630563 77.2686574,8.68444696 76.3286039,8.67160331 Z M61.2361196,38.9412205 L63.0438077,38.9412205 L63.0438077,36.0811631 L61.2361196,36.0811631 L61.2361196,38.9412205 Z M78.0220332,1.49006416 C78.6620654,1.50188847 79.1634273,2.04458381 79.1447257,2.7055223 C79.1260241,3.36809174 78.5995941,3.87062517 77.9518028,3.84432626 C77.3340533,3.81925056 76.8450266,3.29469943 76.8496025,2.66189466 C76.8541784,2.00992633 77.3859801,1.47823984 78.0220332,1.49006416 Z M73.5506414,2.66358676 C73.5540236,2.00224052 74.0734902,1.47789327 74.7133234,1.48971758 C75.3495755,1.5015419 75.861084,2.05157646 75.8429793,2.70415639 C75.8250735,3.33777664 75.3215231,3.84071781 74.7011873,3.84459129 C74.0526001,3.84866864 73.5470602,3.32982581 73.5506414,2.66358676 Z" id="logo-qingtingFM"></path>
                    </g>
                </g>
            </g>
        </g>
    </g>
</svg>