<?xml version="1.0" encoding="UTF-8"?>
<svg width="43px" height="14px" viewBox="0 0 43 14" version="1.1" xmlns="http://www.w3.org/2000/svg" xmlns:xlink="http://www.w3.org/1999/xlink">
    <!-- Generator: Sketch 40.1 (33804) - http://www.bohemiancoding.com/sketch -->
    <title>qiniu</title>
    <desc>Created with Sketch.</desc>
    <defs></defs>
    <g id="Page-1" stroke="none" stroke-width="1" fill="none" fill-rule="evenodd">
        <path d="M41.0949621,6.32347358 L41.0949621,10.9024907 C41.0949621,11.4150374 40.6815554,11.8316316 40.1722218,11.8316316 C39.663047,11.8316316 39.250752,11.4150374 39.250752,10.9024907 L39.250752,6.32347358 L37.3415848,6.32347358 L37.3415848,11.1282991 C37.3415848,12.0868654 38.1120174,12.8631218 39.0631864,12.8631218 L41.2776043,12.8631218 C42.2284557,12.8631218 43,12.0868654 43,11.1282991 L43,6.32347358 L41.0949621,6.32347358 Z M34.3057533,12.8261801 L36.1849036,12.8261801 L36.1849036,6.32347358 L34.3057533,6.32347358 L34.3057533,12.8261801 Z M31.4489111,9.64711111 L29.0408924,6.32347358 L29.0216753,6.34026528 L29.0216753,6.32347358 L27.455399,6.32347358 L27.455399,12.8261801 L29.0216753,12.8261801 L29.0216753,9.50414176 L31.4295352,12.8261801 L31.4489111,12.8097082 L31.4489111,12.8261801 L33.0143933,12.8261801 L33.0143933,6.32347358 L31.4489111,6.32347358 L31.4489111,9.64711111 Z M24.3771627,12.8261801 L26.2558366,12.8261801 L26.2558366,6.32347358 L24.3771627,6.32347358 L24.3771627,12.8261801 Z M21.288762,10.9024907 C21.288762,11.4150374 20.8766258,11.8316316 20.366657,11.8316316 C19.8574822,11.8316316 19.4447107,11.4150374 19.4447107,10.9024907 L19.4447107,8.19135051 C19.4447107,7.67912364 19.8574822,7.26284936 20.366657,7.26284936 C20.8766258,7.26284936 21.288762,7.67912364 21.288762,8.19135051 L21.288762,10.9024907 Z M21.471563,6.16483198 L19.2573039,6.16483198 C18.3058173,6.16483198 17.5352259,6.94204789 17.5352259,7.90093403 L17.5352259,11.1282991 C17.5352259,12.0868654 18.3058173,12.8631218 19.2573039,12.8631218 L20.5226175,12.8631218 C20.5672458,13.0588651 20.8407327,14 21.9376978,14 L23.1898294,14 L23.1898294,12.8261801 L21.8211244,12.8261801 C22.6044213,12.6637004 23.1933234,11.9654854 23.1933234,11.1282991 L23.1933234,7.90093403 C23.1933234,6.94204789 22.4225732,6.16483198 21.471563,6.16483198 Z M19.5084926,0.100932628 C19.4748229,0.0372840816 19.4030365,-0.0222065194 19.2735988,0.00817846498 C19.0217113,0.067509145 16.0827596,5.01466436 9.76762647,4.87777201 L9.76556182,4.87777201 C8.5659994,4.90367921 7.48872787,4.7464769 6.528665,4.47445133 L6.01488446,2.70396626 C6.01488446,2.70396626 5.91324009,2.26418359 5.49236886,2.03917479 C5.20109421,1.88533082 5.03163398,1.93458647 4.99589963,1.97760522 C4.96413576,2.0179053 4.97032972,2.06124388 4.97032972,2.06124388 L5.23095224,4.01243964 C2.01247847,2.6241657 0.440643539,0.051517048 0.259113043,0.00817846498 C0.129675287,-0.0222065194 0.0585242258,0.0372840816 0.0243780694,0.100932628 C-0.0291440456,0.203282049 0.0221545987,0.347530764 0.0221545987,0.347530764 C0.930124721,3.07130473 2.88932,5.22064257 5.42566474,6.36663625 L6.12462862,11.0873434 C6.17227442,12.4335581 7.06610962,13.2038974 8.22803186,13.2038974 L11.7049047,13.2038974 C12.8668269,13.2038974 13.736998,12.3617536 13.8087844,11.0873434 L14.4462852,7.18367249 C14.4462852,7.18367249 14.4569261,7.12977912 14.4246857,7.10723026 C14.3856162,7.08244251 14.0825889,7.0731671 13.4695463,7.53070099 C12.856186,7.98855473 12.6489268,8.6495081 12.6489268,8.6495081 C12.6489268,8.6495081 11.9863325,10.2730258 11.8125842,10.9664431 C11.6286714,11.6969621 10.8159929,11.6318743 10.8159929,11.6318743 L8.95240683,11.6318743 C8.33110561,11.6318743 8.26710142,11.069912 8.26710142,11.069912 L7.1045439,6.95210692 C7.95136858,7.16736055 8.84186858,7.28074452 9.76556182,7.27674649 L9.76762647,7.27674649 C14.3339999,7.29529732 18.1324819,4.48004856 19.5111925,0.347530764 C19.5111925,0.347530764 19.56265,0.203282049 19.5084926,0.100932628 Z" id="qiniu" fill="#FFFFFF"></path>
    </g>
</svg>